<mxfile host="Electron" agent="Mozilla/5.0 (Windows NT 10.0; Win64; x64) AppleWebKit/537.36 (KHTML, like Gecko) draw.io/27.0.9 Chrome/134.0.6998.205 Electron/35.4.0 Safari/537.36" version="27.0.9">
  <diagram name="PÃ¡gina-1" id="KUqg10hfsMPev_n0n6t8">
    <mxGraphModel dx="988" dy="579" grid="1" gridSize="10" guides="1" tooltips="1" connect="1" arrows="1" fold="1" page="1" pageScale="1" pageWidth="827" pageHeight="1169" math="0" shadow="0">
      <root>
        <mxCell id="0" />
        <mxCell id="1" parent="0" />
        <mxCell id="mQrTGYeU7w2Lj0z3KcBH-1" value="" style="shape=image;verticalLabelPosition=bottom;labelBackgroundColor=default;verticalAlign=top;aspect=fixed;imageAspect=0;image=data:image/png,iVBORw0KGgoAAAANSUhEUgAAAx8AAAJHCAYAAADxDuuLAAAAAXNSR0IArs4c6QAAAARnQU1BAACxjwv8YQUAAAAJcEhZcwAADsMAAA7DAcdvqGQAAP+lSURBVHhe7N15eIxX+wfw7yyyiERCKdIsIka1lKBqX0uqtVaJWqME1QZF1VI7TWnVi/ZFW1ttlR9Va2KrhIiEELJJNCJLs4tMZE/mee7fHzPZJjOTxJIXvT/X5Wo961nuc57nzJwz4OjoSA4ODmRvb082NjbE/reKg5dSO5O2tCSouHSbcs9wsnjNjbzys+nUFFtq7PI7ZRIRqcJpdScTev1LfyokIiKBMk7OpvcGf0bLf/ieln25jH4Lziy7OOXS3uGmZDH6EOVqtqRtcyZT66l0ukD9d1X4aupk2oYWXSsmyj5FU2wbk8vv6muowldTJ5PX6Uv/QiJVPN0OSSWBiPLvn6Jl/ZpQHetp5K25TmXFFLr2HaprPYYWTRtOXweW5a+iHPpj/CtUp+Wn5P2wbKvq3mk6ebuYiB7RriEmZDX2MOWXP61UGm1zNiXrqadJnRQVha/uRKZtFtG1YiJSRdG3XU1IMddPU2aFdGV+KzLt4kGRKiKibNo91IQsP/6/0jLK3TucTC1G06GSDcqdNNikAY37I58o5w8a/0odavmpN5UlV0X3Tp+k28Xq8jV5dTIdL02skg6NaUjy19zIq+R6JNA/m/qSqYM7XdQuPyGFtr9nSnLFXPIr2aep91bzrlAhEeX8MZ5eqdOSPq1YYHT65G3SLuWqjs09MJLqmX1I+3Op6rrI3k1DTSzp4/8rLalK8aXcOZhMGoyjP/KJqDiYlrYzobZLgsrSpdxDwy1eIzcvdQE92jWETKzG0uF8IqIq4j1tGzmbvEqTywrXYP4K4m9TSKpARPl0/9Qy6tekDllP89bESWXFQUupnYk9TVrgTnMOPSjdbugexQbjT6CU7e+RqVxBc8sqk8JXdyKTVvPoijogK8ZblfVfVTypKP52CKmzfZ9OLetHTepY0zT9DZUxxhh7JmxsbMje3p6kYM8fMR1xsTma/0/C8eMhaDNjJvoZZeFeTCpy4qNwP6cACb4ncDVZQF5WMm4FhgGZp7FoeQJG/GctFrp/gZXrV2JCe8vyF4YgEkgUy/4uqEAiQSTNJiKARIiiCDHrHmJScxAfdR85BQnwPXEVyUIespJvITAkCp7rt+NmHmBi/z4WLx0F+7rGMJGUu10FcrzhNgeDi/8P/wnvivEd5doHaJhhwOSxaB67HS59xmHVr544sscDU7/yh5mDHIAAQQBIFFGSiwpEAYKKIJKIilkSIYoAZI1h3cQIiQFncTM1DXdObcXuKxlQpSfg/oNsFECAKKqPL0Xqi5RcT/3/IkQBgNkATB7bHLHbXdBn3Cr86nkEezym4it/MzjINSeriqEqvVh9DJ41A20zj2DjzigUAYCYgnM+Ceg+ayZ6GpceqCZthCETBuOVmB34YvFJxBcBhXE3EZYmIDMxDilZeTAbMBljm8diu0sfjFv1KzyP7IHH1K/gb+YA7VKuybFV1oUgQgSpy1VDXVSlJaX+f1GEULpFRHpcLNTRLSLp+HGEtJmBmf1MAACCunLV1xSriHcABBWKywrXYP4kCZ5Yv/0m8mAC+/cXY+koe9Q1NoG+kJU7TcG0nhk4cIQwZHDD0u2G7iE3GH9SNBoyAYNficGOLxbjpLoycTMsDUJmIuJSspAHQBREEGniu8r6r1NFPAlI8FyP7eqGivcXL8Uo+7owNpFAzDiHlS4fY83FzNK8McYYY88cf/PxfCkOXkrtjJpSl9FT6bMv5tJn40eQy9cnKE5FRCRQ4tFZ1LmJOVm16EVTt16k31ztyNJhMK2/qiQh8QCNtzMmCUCQSEhax4QsGrek3jP20p3CHIo4sZwGNZOR3H44rT0VRcqQI7S4f2OS1VHQmA2nKTzqMu2c1Y0spXXJaeov5JeQQEdndaYm5lbUotdU2nrxN3K1sySHwevpatoVWtytBbV/15UWrFhFC6dNI48LKSRoZ6iCAvKd05GG/JxYxXG5FLHPnfo5WpGxkQXZdp9Gu8NyiSifIk8uI+cmMpLZDae1x8K0zlNSyJHF1L+xjOooxtCG0+EUdXknzepmSdK6TjT1Fz9KFIge+a2hAbYWZGHtRKPWX6TTX3aklr0n0Yp9l8j/z+U0yFpGcoeRtO5EKMXd+oNWD7UlmdyBRnj8SbfvB5HnsvfJWian5iM8yCu6kCg3gva59yNHK2MysrCl7tN2U1iuQBk3D9Kid5uSTGZNzksOUtCDklwXU+zxJTS0oxP1GeNGn34ygWb84Kv+dFoXIZOu/eRKXeysyNK+Ew35fAVN6dKcuo79mnZdTSYiotyIfeTez5GsjI3IwrY7TdsdVvrtgzZDx+YeGEn16pV880H66yIngo4vH0TWMjk5jFxHJ0Lj6NYfq2morYzkDiPI48/bdD/Ik5a9b00yeXMa4eFF0bnBtLSdETXtMpqmfvYFzf1sPI1w+ZpOqIOb8iNP0jLnJiST2dHwtcco7JH+eP/W25cOLnqXmspkZO28hA4GPSiNKX35K7yymLq1aE/vui6gFasW0rRpHnQhRV+hq2X+MYUGr6r8DZLue1Qn/gTKvPYTuXaxIytLe+o05HNaMaULNe86lr7edZXuhZ2g5YOakUxuT8PXnqKogurUv6F4KqQri7tRi/bvkuuCFbRq4TSa5nGBUgQiVfRPNOjVJjR4W4xW7hhjjLGnr+SbD4mjoyOJovqTbkEQEB8frz0+YbVIdWsZOnU9hiH+N7DaqfJn0YaIicexans2PnR1gvggE1k5ecjJTMLtQ3uQ7OaFLQO0P1avZWI8trmuRaNN2zHSSnsnex7kHfwITdxNseefvRih/jLi6VHdwrJOXXFsiD9urHbS8U0LY4wxxl5Wtra2kMlk4GlXzyudc4oMEBOx130Obju8h7cc3kD7zt3Ru98AfDByFJw7vY031XOA/ieEnIfILBCR478V55qOxwc88HhuicUqSFu1wZt1tPc8TTUNbsYYY4y9LHjw8ZxRPXyIR0IWMjKLtHdVQQ7LJqb4a/Y76Dd+NpasWos1yxdg+oRP8YfDNExtIdM+oXaoQrC2T1M0btwEr896iIlfdMfT/kCdPRlV+Hfo81objNt8En8GFmH0/ElwfBbhonqIh48EZGVkqtcmMMYYY+xfh6ddPUcKo89h9/9dQmyWCnJLe/QZPRn9HYy0DzOgEImBJ3HcJxRJeTJY2XXAgGHvoW3DZ/EmWV0qxJ3Zhv1hr2DgxNHo1IjHu88dVTz++nUPfNIs0PaDsfiwYyM89YgpjMa53f+HS7FZUMktYd9nNCb3d0BNopsxxhhjL66SaVc8+GCMMcYYY4w9U7zmgzHGGGOMMVarePDBGGOMMcYYqxU8+GCMMcYYY4zVCh58MMYYY4wxxmoFDz4YY4wxxhhjtYIHH4wxxhhjjLFawYMPxhhjjDHGWK3gwQdjjDHGGGOsVvDggzHGGGOMMVYrePDBGGOMMcYYqxU8+GCMMcYYY4zVCh58MMYYY4wxxmoFDz4YY4wxxhhjtYIHH4wxxhhjjLFawYMPxhhjjDHGWK3gwQdjjDHGGGOsVvDggzHGGGOMMVYrePDBGGOMMcYYqxU8+GCMMcYYY4zVCh58MMYYY4wxxmoFDz5YrcmNC8bthALtzeWIyI4JRbRS1N7x1BUkhuJOanXvIyDzbiju52pvf3pqlh5AyLyL0GeZIMYYY4yxZ+DlGnyoEnH9z22YO6IXenTvju49h2LKlwuxcME8fO46HP169ECvcf9FhEpzfJ4flnd7FfXthmNbpKB1sadITMDvk1vBqqETvvB6qL1Xi4iE3yejlVVDOH3hhaqO1kdI8MLKjz7Ax7NnYfSgUVjlnQBdOVQl+2PX1xMxbMRkLPj+/3DrYXVegEWkBezCApd+6NG9O3q+NxkrD91C2ZhBQMJfGzFjSC/06DcGi/6IgkqMxc8Tu6Kb2x6k6LiFkPAXNrh2RvM3XfBzZEkFPX2iMhj75vaHo2MfrPEr0t5diRD3FzZM7IDmb03B/jhdJWhYduRJbFowFRMmfgK3GTPx+YJ1OOB/D1cOH8UdVc3TAyEOf22YiA7N38KU/XE667RK2ZE4uWkBpk6YiE/cZmDm5wuw7oA/7l05jKN3nl3ZM8YYY4zB0dGRHBwcyN7enmxsbOjFV0AX3R1IBhCMB9EvD0u259O9/5tCbdp/RQGFmk0Zv5NLIylJ6rxO8/1KNj4Dxbdp1dumJJFY0MCf7pNKe38FxXR71dtkKpGQxcCf6L7hg3UrDKbV79Qjo27r6G9VMV1f3Jbq1OtCq2+Wz2Mh3fs/d+rcqD695baf7uSU21VNxZHfUy8zCZl+8CtlaO+kQvKb15H6fR9BxZotObE36VZ8vtZxZQr95pLC+HX68uozrAsiEuI3UV9jKxp7WH9ayiv46zOyN+5Eq8NrUhmP6PqmD0nhOJCWHf+bsgX1ViEzlPZ/3omsrKfQqQLNthqmhwr+os/sjanT6vAqYqmyR9c30YcKRxq47Dj9XZYoCt3/OXWysqYpJYl6EkIaBV2PrnHaGGOMMfbysrGxIXt7e3q5vvkAAEhQp44ckgrbCpGakgf7D7/BV4MsyvY1cMHOGzdw5ZYvPLobVTjjqZK/hSVnguEfGIzDM+0h095fgRxvLTmDYP9ABB+eCXvDB+uUd/4nbAvKhbzJa2gmk8PB/jVIc65j20/nkAcAEJF6wh2Dxv+Ee2+vw9GtY/G6mfZVqiZv9Qnch7+KYv9TOKE9ZUgVgXNRHTFnWmvINZvM7JzQzsak4nHlyCwtYVGx4p4JqYU5zGpwH5mZOcxq1FJEJBxww4iFf2PozsNYOcQR9TTnSy3bYOymw/iuhwSZxZptNUwPZGYwr1mCAABiwgG4jViIv4fuxOGVQ+BYlii0GbsJh7/rAUlJop5AbuAmLNt9F/wdCmOMMca01fwN5kVUdB17995EsbQxhrlPRms5ADELUX7e8A1LhjI+En9XmG6UjTunf8a3q9fh51MRyAIA5CE28Ay8vLzg5e2L8AwBuVEn8aPHTzgfXzL5JQtR3juwfuVyrNlyBMEZIgABSTfO4ExADDIf/I078YVlt8mKgveO9Vi5fA22HAlGhggISTdw5kwAYjIf4O878Sg7WkTG7T+x1WMlVn23E95R2dAxewlAEYIvXEKqABgZqQdURkZyAAJSL/+F4CIA2WexbPZO/C20xKTFrnDQMcAR0wOwZ9067AlI13MfALDCkJnj4Zjjhe27oypMAcq7vBtBbVzhbF5uY0EiQiJStK6nwsPoa/C9FIyE/Ao7NPKQFHoFPpduIC5bOyUCMmOCcPlSACLTdE1ZKkJa5FX4+AQiOrNc6qSS0gGomHwL57y94OV9GZFKERCScOOMF7y8ziDgvnqoBknJ8QRV+h0EBIQjxdDSleyzWLP4CLL6umNu9/IFoCG1w4Rl09CGSv5elp4KhEzEBF3GpYBIVMyeBBLNCaRKx52AAIQbTBAAZOPsmsU4ktUX7nO7o3KqpLCbsAzT2lD1ygSAqLyHQN/LuBWfhYykZORCRHrAZkwavwHXYm/hrPdFhKWX1Jm+esxDfGgk0oUCJN2+hsiH6nqqfG3GGGOMvQxe/sEHCUg9sQN/xKg/hzVv2hTmUgDS+rBrFIp1H36A9wdPxtYQzSe+Qhw8p3RGr7XJ6OfaGXe+6o6es04hTayLJlZh+G7kB3h/8AT8sO87DO05HLMWf4F5v4QAYiL+mNYN3VfEo8eHVvBZNBrdenyBc1kyvGqbg9/dhuD994di0fEMiADExD8wrVt3rIjvgQ+tfLBodDf0+OIccl61Rc7vbhjy/vsYuug4MkQAUOHuLhd07DoHAY6umNzKH593aIuPtoeXG5yUyMPdu/EQIIFMLoMUgESirmYhIRrR+SLSDm/FoVgVJPVfA139HitWfItfzkWXe8ErxMXlLpiycCGmjFqKC5VvUsr4nemY1k2G6zu2wa/0/fchTu2NQ+9JnWEEAGImgg8uwEDHFui18hJKD8sLxc8TnDF1xy0kRp/AYvftuFtujCAme2O12zxs9w3B9UPz0EPRC0vOq8sPygD8x9UFCz1DER91HPN6vgHnVRdR8q4rpvtg7URXfH8+DmkhWzBU0Qnux5IrDaSkDWzxWupvmDbMDTsiVICsAWwaR2HzuKGY65lUbkBFSD3ljm5O3dC/R1vYtx6GTUE5Fa5VIu/iIRxLkKB19x5orKeFGb3xNtpVHgGUUgb8B64uC+EZGo+o4/PQ8w1nrLpYcSBIqafg3s0J3fr3QFv71hi2KQi6UwQg7yIOHUuApHV39NCfKLzdzrxaZVIUshmu7geQoCpAxM5x6PLRr4gtUiIpwxRW9USIhblQKrOQp9JXj+lICdiJ2X0doRiwAtvWfYQe3bqi8+S9SNZ1bf4ahTHGGHs5vHxrPgrJb66C5ABB7kgDJwygFnXlZO3mRZVms+cepI/qSQgyB3K/WEBEAqUdHE2NpUbUe2MsCZRPp6Y0JZlRZ1oTpiLKP0oTGkoJElOy+3ALXb+5n+aMcCGPy48o8+gkspbVobdXh5NKdYfWdTcliVFnWhuhIioOoRUd6xBgRP22JJJAmXR0kjXJ6rxNq8NVpLqzjrqbSsio81qKUBVTyIqOVAcgo35bKFEgEpL30IiGUpLUH02HckidjlekJKk/iLbHa+btlxBi6YdeRgRI6ZUJRymfiHJ/G0bGAMGoL23+J5uOTmhEUkjIuO/3FJUaQlsGNyap1JK6rw6gXCIiUlHsvgmkqF+fFOP3Vrnu5MHvLtRY/gqN2p9GAhEJcdto9Me/UmL5pAnJ9FN/Y7IYfUhzj1zy+/Itcph8jDI1h+ScnELWdTRrPoRUOjiuLy0sWaAjxNHG3kZUx2kZBRdn0unpCmo9x5dKVknk+s2j1kZNaczvKSQIyXTAxZGcf4ojgYioOIy+692Amk06SjlERI920RCTsjUWqog11NmkFc2/orlX4RWa38qUun77N6mIqPjaImpjZE1DN1+jDBVRTugvNMq+Dhl3WkUhJQtaSgl0f0NPqgNjGrgtTWvfIwo7sYXmjuxN3bv3ohFz/0sXY1WV0kOZp2m6ojXN8S3NHfnNa01GTcfQ7ykCUfE1WtTGiKyHbqZr6gTRL6PsqY5xJ1pVOUFERCTc30A964CMB26jSqkKO0Fb5o6k3t27U68Rc+m/F2OrKJNC8p/fhtp/FaAufyGF9q/ZQuHFRCQk0Y/9Tch66ml1ezNYjwLFbexDRqZtafbZNMoMP0/et5PJT9+1GWOMMfbCeonXfJQja4lR/zmNv7aPRDOdOSWUzHxRK8DlE+fxQBSRfHELFi9choMh+aDiMFy/UTbdBJCh/dBx6OQ0Fhv/+B0Le8jg88cpJAsSmJnXg0T2OuYdDcKVwD8wr7WOOU15PvjjVDIEiRnM60kge30ejgZdQeAf86Dr8Oy/juHCQxHS+g3RQA5AYgGLehLQo8vw8nlU8WCpKUw1yyokmrk5oqj5vFxiDBOjbCQmZUEEYPqqLV5r3BafTPsAjaHE1Q3f4c9MAJDBbtxviFIqEbV3fJXrThoO+wxjHZQ4te03RAsqROz1Qn2XjyqWudQc5vXKTS7K8cbW3TFo26cvLDWbTJrbo2nJvfJ8cNQ7EXdPboCHhwc81u1HvvMKrJrYEaYPT+CX3xPg2M4JJStI6r7jguGKBzh5wAvKTC8c9DaGU6cm6q/25G9ivk8GEncPx2MsbVGTNcXb/TuggQwwa/MJNsztAUnoJVx+oP1dClDXrC6kEhHKjAytX6Myx5uDP8X0t4twLfABFKOnoI9d5cJ9eOIX/J7giHZOpbnDOy7DoXhwEge8lJptMjR9uz86qBOETzbMRQ9JKC5dfoCixCCc8fJSTxH08sKZG4lQ1TVDXakEojIDGVo/kWX+5mB8Ov1tFF0LxAPFaEzpY1fxgErksFbYIe6Hoeg16RscCa8DlyWf442SxT3lGapHSGFqagSpRSf079kIlm/0h/NbjWFT3Wszxhhj7IWj85X8pSKRw3b0ZxjlUPL2kofYmGStg0rkIO1BDkRI0LDbNKz9dj32XsuEIObiz4nl5shI6+PVJnXLnZeL1NRsiBCRnpICFQBZozfQtb01jMsdVSo3FanZIiCmIyVFBUCGRm90RXtrXUeLeJT+EAUESIyMYCQBULJCgIqgzHikNZWoPuxsG0FWbtAhCOr/yl6xgY2FMYyNpZAAKC5Wz2UxbtECNjJAzL2Pv/95jPktJt0wY2oX0NVfsP2SL/YEKDDxvfpaB0lKB0MAICRE4m8lIJPrDkExOx0Z+cZoPfxLLFq0qPTPwjlD4ZgRj3/yRBQVlVvnILeHnbUURcpMZKan4UGBEg8zKw4tnx4pGjk0h6VEgKrS+mwpGnTtgjZyFe74+5VOAysjQT0zU0gkpjArWfBdgYDU+H+QJxahYvbsYC0tgjJTu77VpI0c0NxSAkFVjJwL32L8mDEYo/kz4du/kNegK7q0kUN1xx9+lRMFST0zmEokMDWrV41OQQrbKXtxbpsLzH3XYnSHVug2+yhKlz6VY6geW8lRFsulqn9txhhjjL14qn7PeBkYdcbEiR1QB4CYdAS7jqVqH6FhhkYNzSCFgMigIM1Cc12kkFb4wNoMTZpYQAoB0Zd8EFvVi5JZEzSxkAJCNC75xFbxbzVI0cD2NdSXAiSKEAkAClBYrP42oZlNQ61KrIOO3TuinoRQVFikXl8iiuqX3rd74G1jC7R3agk5CEVpSUgVAEldU5hKAImsARq9ormaqET0tWu4l1X5RbUyGVpOmoH3Le9h97TZiOjuiq66xlHlSBq8ggbyAoTduKW1boUgioDUohma1o2E544LyCzdJyDG6xTCG7dECwsB4UE3NL/eBUAsQmGRFK+1c8JrTW1hbZoKr0Nnyv6dFDEDXtv3I0pXYcvkkIE0ZVuGSNfBannpD5Bv2x4dXq3chORt3PDFsCbIu7Ad224bWDCjkwzNWraAhRCOoHLftolFhSiSvoZ2Tk11N9q8dDzIt0X7Dq+iwcTDSM/KQpbmT9r/TYClvA3cvhiGJnkXsH3bbR1rhbQYLBMBCWH/wMZ1My5EhuPE4rcQv9Uda89XvqqhegzROc6t/rUZY4wx9uLR+R7zoiudZkQqFBeJAIzxapMGkOaEYtvMVbhtVTKtRPtXhkzRa+gAvCIVoTy1AR4+GRAhIun0ZuwJLgJQ8vIvan3iXRf9XIbDRgYUBv4Xq/9IhAAg784peIUXlb5QAwCJAlC3H1yG20CGQgT+dzX+SBQA5OHOKS+EF6kHGZqDIQAwGzAJo5rLQQ9TkVoMoOABMrJEyF4bjo/f1Z5IJEXj4W74yFaGwox0KEUBmcpHEGU2+GjKUDSEHE4TpqBHfSmEiOu4ngOIWVnIJiks+4/G4FelAFS4vrIf3urSBW/1X4UgnS+JFUkbj8DnH9sjO80Wwya8ruPnhEUIIpXmTdpoCCYMfgUxO77A4pPxKEIh4m6GIU3IRGJcCrIkAzB5bHPEbndBn3Gr8KvnEezxmIqv/M3g0HAwZs1oi8wjG7EzSv0zUGLKOfgkdMesmT1hXH8QJo+2Qcre6fhwzn/h+cd+bPjMFZ7ybnCUARAECKDSOJE1tkYTo0QEnL2J1LQ7OLV1N65kqJCecB8PsjVfP1AespSaF+CCUOzYdw/vLZ2Nrrp+oVlqjY9/3IV5b93D9+M/w+/RFX+JikjrjV4rPfUHz8KMtpk4snEn1NkTkXLOBwndZ2Fmz5JRHSEvS6kZRBQgdMc+3HtvKWbrTBAASGH98Y/YNe8t3Pt+PD77Pbps4T8AUMUpiIbLJBcJnuux/WYeYGKP9xcvxSj7ujA2kQBSE5gYA4+Sk/AwPRB+97rrr0c5ABCgKi73s7yC/mszxhhj7MX3Ui04L/6Hrv25laa0NSEJQJDWp7c+nEULvppPs6aMoK62ZiSRt6BZPprFr7mHaHT98gvOiUgVR4c/bU+WMglJTBpRq84D6JMt1+gR5VLU4an0Zh0JQWJMbafuo1sZ5VZUC2l0fmlvalJHQpI6VtSiY18atewkxQsqij23iHpbSQmQUbPB6+lKskBC2nla2rsJ1ZFIqI5VC+rYdxQtOxlPRbHnaFFvK5ICJGs2mNZfSSYigR5eXksDbZtSrwW7aNf8ntTE1pnW+GaoF1RXIlCGzzLq49iL5u7eSZ93aUH9V/pQWXKL6f6R2dStqSV1/HQr/fiJE9l0m0NH40pWlhdS4JJ2ZCKRkKnTUrpWzcW+qvBvafiUw1T67zqWyqGIE8tpUDMZye2H09pTUUREJGReo59cu5CdlSXZdxpCn6+YQl2ad6WxX++iq8kCUW4E7XPvR45WxmRkYUvdp+2mMPVqdaLiWDq+ZCh1dOpDY9w+pU8mzKAffFPLyiM3gva79yNFI3Oqb92Jxm64TGkCEeVH0sllztREJiO74WvpWNgjInpEfmsGkK2FBVk7jaL1F0/Tlx1bUu9JK2jf9QdEuX/T8TXjqffbvWiY62c0y20mrT5xr3Sxu17598hrw0wa1qcvDZs4g2bPnUMzJ39Egz6YSF/vuETxBfrSQ1Qce5yWDO1ITn3GkNunn9CEGT+Qb2pJ7nLp7+NraHzvt6nXMFf6bJYbzVx9gu5VmSBS/2ObXhto5rA+1HfYRJoxey7NmTmZPhr0AU38egddii/5WQZDZZJEVxZ3oxbt3yXXBSto1cJpNM3jAqUIREQqit71MSmsGpJi+AYKyFbXReV6FCjj5kFa9G5TksmsyXnJQQp6IBBRoYFrM8YYY+xFVbLgXOLo6EiiKEIURQiCgPj4eO3xycur4A+Mtx6F/Y8cMOevcGzsWfKpsYCs+8G4Ha9C49ZOeL1xFXOIyslNuIWb93JhpXBCm2bl14XokouEWzdxL9cKCqc2qPLwwlRE3IhAqqQJ3uzYGo31fcitIWbH4WZwHGT2HeFkq/0NCYC8JITdisYji5bo0KZp6eJtAICYibvX70La6m04Wr6UX5AxxhhjjLFaYmtrC5lMhpdq8FF+QTN7fJWmBTHGGGOMMfYESgYf/JE2Y4wxxhhjrFa8VN98VJ+A1IAD2ON1F4WvdMDwCcPQlqcWMcYYY4wx9ky8lNOuGGOMMcYYY88fnnbFGGOMMcYYq1U8+GCMMcYYY4zVCh58MMYYY4wxxmoFDz4YY4wxxhhjtYIHH4wxxhhjjLFawYMPxhhjjDHGWK3gwQdjjDHGGGOsVvDggzHGGGOMMVYrePDBGGOMMcYYqxU8+GCMMcYYY4zVCh58MMYYY4wxxmoFDz4YY4wxxhhjtYIHH4wxxhhjjLFawYMPxhhjjDHGWK3gwQdjjDHGGGOsVvDggzHGGGOMMVYrePDBGGOMMcYYqxU8+GCMMcYYY4zVCh58MMYYY4wxxmoFDz5qk5iNmNBoKEXtHbVLzI5BaLQSzzYZuYgLvo2EAu3t5Twn5aFWgMTQO0itdloEZN4Nxf1c7e3PWEEiQu+kVrvuhMy7CK31RD5/cuNCEJle3VKrgacVw7lxCL6dAMPNpWK7zY0Lxm1DDexppe0lU2W5MR2q0Z+XV414fp4VJIbiTvUfBi+A/9HzygDt/uyxcT/3Qnq5Bh9FMbi4+xu4vd8T3Xv0wtBPv8WO0+HI1j6u1glI+GsDXDs3x5suPyNSpb2/lggJ+GuDKzo3fxMuP0ei2skQ0xCwawFc+vVA9+498d7klTh0q1ynISTgr40zMKRXD/Qbswh/RKkgxv6MiV27wW1Pio7OpXbLQ3gYhmMbv8S0KVMx/fM5mLtoPQ4G3MftPXtwsVCEMngf5vZ3hGOfNfAr0j67MiHuL2yY2AHN35qC/XGC9u7Hkh15EpsWTMWEiZ/AbcZMfL5gHQ7438OVw0dxRwVAVCJ431z0d3REnzV+qDKZQhz+2jARHZq/hSn74/BYqcyOxMlNCzB1wkR84jYDMz9fgHUH/HHvymEcvfOMK+0pEdMCsMO9NxxbDcT6gCpLrQaeZgyLiP15Irp2c8OelMqtRWe7FWPx88Su6Oa2B5VPeZppe8mUKzdWfYb7c21VxPNzTFQGY9/c/nB07IM11XkYvACexfPqiejqzx4L93MvNEdHR3JwcCB7e3uysbGhF18BXZhpRzKjXrThvqC983+okPzmKsj49S/paqH2vlpU6EdzFcb0+pdXqWbJKKbI73uRmcSUPvg1Q3snUaEfzevYj76PKNZsyKHYm7coPl/ruFK1UR4CJZ9dQn2at6GPN/tSfIFmc87fdPzrvvSq6UDamqo+Ln5TXzK2GkuH9aa3ooK/PiN74060OlylvauGHtH1TR+SwnEgLTv+N2VrQlbIDKX9n3ciK+spdKok3UI8beprTFZjD1O1klnwF31mb0ydVodTTVP56Pom+lDhSAOXHae/yxJFofs/p05W1jSlNFFPQqC0oOsUXdPE1ZAqej11N36VJh+vVqnVwFOM4ZxYunkrXn+96mi3ObE36ZbeBvYU0/aSMVxuTLeq+nMtVcXzc0yI30R9ja1obHUfBi+Ap/e8ekp09GePp4b9nJBGQdeja/w8ZE+PjY0N2dvb08v1zQcAQAYLKwtIJRZo0PB5yp4MlpYWkGhvrm0yS1haPE4q5Gj1iTuGv1oM/1MnKk1PUkWcQ1THOZjWWq7ZYgY7p3awMal4XJlnXx6qiM0Y57IJhW4HsNu9F2yMNTvMHDFk5SFsH2+JR5kCACkszM1qlBaZmTnMnji8RCQccMOIhX9j6M7DWDnEEfU015RatsHYTYfxXQ8JMos1h0stYG5Wg1TKzGD+GIkUEw7AbcRC/D10Jw6vHALHskShzdhNOPxdD0hKE/UEcgOxadlu3H3Gn1jJzM1Rk2KrvqcYw2Z2cGpnA/3NpXK7NbNzQju9Dewppu0lY7jcmG5V9edaqorn55jU4ln1F/87T+d59RTp6M8eT836udzATVi2++4TfNvCnpbnKRyfsmqEoyoDdwMv4oLPdcQoq/g6sigNkVd94BMYjcwKh6qQcTcQFy/44HqMsvL0FtVDRF/zxaXgBORr7wOAvCSEXvHBpRtxyC7/Qp8bj9CoDIgoQmq4P/wj0rQaTBX31aJ6GI1rvpcQnKAzFchLCsUVn0u4EZet/2t1qyGYOd4ROV7bsTuq/B3zcHl3ENq4OsO83NaCxBBEaH/t/rjlAQBCJmKCLuNSQCTSqvxGPBPHvlkHX7E/pk9tCyPt3dJG+GDuZLwFUv9VUhYvYvItnPP2gpf3ZUQqRUBIwo0zXvDyOoOA+3nqgyQSTYQRVOl3EBAQjhStCc6i8h4CfS/jVnwWMpKSUWm6bfZZrFl8BFl93TG3e/mS05DaYcKyaWijTiIAKcols4zecpGUHk+qdNwJCEC4diIrycbZNYtxJKsv3Od2r1CfalLYTViGaW0IEJNx65w3vLy8cTlSCRECkm6cgZeXF84E3IempABRiXuBvrh8Kx5ZGUlIzgXE9ABsnjQeG67F4tZZb1wMSy+NO32xmBcfish0AQVJt3Et8qE65nVcu5LSugJQlIKwK/6ISNN6/NSkL3iSGNbbjxQgMSSi0hQqg+22IBEhEVrTYKpKm95YqYKYjfvhMcgWBWRGB+BSYDS0i0mVcReBFy/A53qM1r48xIdGIl0oQNLta4h8qNlZ3TLPS0DInVSIEKCMCYJ/cHxpWypKjYC/320k6QhrfXGEwiSERKSU32K4XPLiERqZDqEgCbevRaIs+fryqydWy6sUtyKSb52Dt5cXvC9HQt3t3MAZLy94nQlASbejzWAfoy8OK+QnAvfCLsHbywteXl7w9otClgggOxpXznjBy9sPUZrJ9Lr686K0SFz18UFgdKZWHnXFs4DMmCBcvhSAyEqFXDV99ZmXEKJenyEoERPkj+D40uhAaoQ//G4nVVx7UlUsS8v1F+Xou7+hONYfB9Wt71zEh0YhQwSKUsPh7x+Byl2X/jgsVY3nlaF8GIwz5CEp9Ap8Lt1AXKUOryKD/ZmhMtZmsJ/T9W4kIj1gMyaN34Brsbdw1vsiwsqtARQyYxB0+RICItMqTWk2nHeNqmLKYD09Yf/4gnqJBx+GCTH7MKnLSGy6/QAp/h5wVvTAyqu6engR6T5rMdH1e5yPS0PIlqFQdHLHsWQREGKwb1IXjNx0Gw9S/OHhrECPlVdLX7ryQn/GBOep2HErEdEnFsN9+92KnY/3arjN2w7fkOs4NK8HFL2W4Hx6Kq7tmYO+jgoM8jiIHdOc8cHYCfigfVsM3x6tPr+K+1aUh9CfJ8B56g7cSozGicXu2H63XCCLyfBe7YZ5230Rcv0Q5vVQoNeS88jQ2fKN8c70aegmu44d2/zKOvSHp7A3rjcmdVa/4ouZwTi4YCAcW/TCyktlPdxjlYcmIcqA/8DVZSE8Q+MRdXweer7hjFUXy15YK8m7hONn0yBVdMLbDbR3qslffw/vtSr5pqaMtIEtXkv9DdOGuWFHhAqQNYBN4yhsHjcUcz2TyqWZkHrKHd2cuqF/j7awbz0Mm4JyAABFIZvh6n4ACaoCROwchy4f/YpYrYdG3sVDOJYgQevuPdBYT0s0euNttKs8AihVnXKh1FNw7+aEbv17oK19awzbFAR1KnXIu4hDxxIgad0dPfQnCm+3MwekDWD7Wip+mzYMbjsioIIMDWwaI2rzOAyd64kkAUBRCDa7uuNAggoFETsxrstH+DW2CMqkDJha1YMoFiJXqURWnkpvLKanBGDn7L5wVAzAim3r8FGPbujaeTL2Juu6tv7PtIru/44vRo/DjGnD4NR2BH65p67J6vcFTxLD+voRFTKDD2LBQEe06LUSZc3FQLsVMxF8cAEGOrZAr5WXStuh4bRVL1YqE5BwaQumdrbDG2O3YP/KgejwzgC827U1FP1W4UqW+piYfZPQZeQm3H6QAn8PZyh6rMTVPBFpATsxu68jFANWYNu6j9CjW1d0nrwXadUpc/EhgvbNw7uKlui9whNHlo/DGNdPMLJra3SZ542gvTMxeMRkTB/VBa17Lkfp6XriKENU4vahr/BeyxbotvSv0tvoLRcxDQE7Z6OvowIDVmzDuo96oFvXzpi8N01PftVrjHTGakbp7fS0CRENbF9D6m/TMMxtB9Tdjg0aR23GuKFz4ZlU+eVDfx+jJw7TU3Tkpwtm/1WAyP9OwZBha3HTspn6E/K6r6LetY3YECSHZeHtyv25mA6ftRPh+v15xKWFYMtQBTq5H0OyKOqOZ2UA/uPqgoWeoYiPOo55Pd+A86qLqNZvQOipz/QHQdg3710oWvbGCs8jWD5uDFw/GYmurbtgnncQ9s4cjBGTp2NUl9boufwq8qoVyzrouX+GqL/vqDoOpFXUdzHSr+3BnL6OUAzywMEd0+D8wVhM+KA92g7fjmj1i4DeONRN//NKXz5gMM4AMdkbq93mYbtvCK4fmoceil5Ycj5DR59ioD+D4TLWZrCf0/duJCqRlGEKq3oixMJcKJVZyFMBgBIB/3GFy0JPhMZH4fi8nnjDeRUuagLTUN41N6xGTOmrpyfsH190L9+aj2K6vqQt1TEeQrseae8roaI737xDdTuupNBiIiq+RovamFD7ZcFUsmKhhJB8gFwcnemnOPW89+Kw76h3g2Y06WgOqe58Q+/U7Ugr1Reha4vakEn7ZRRcTES5fvTlWw40+Vim5ko5dHKKNdXRzE0UUg/SuL4LKUAzT1GI20i9jeqQ07JgKlbdo++6G5FFp9l0LKaQiJR0eFxjMu7xHd1TkeH7asn1+5LecphMZck4SVOs62jmWgqUenAc9V0YoJl3KVDcxt5kVMeJlum6GBERPaDfXRqT/JVRtD9NUJ+zbTR9/GsilV9hIyT/RP2NLWj0oVz1hicpj8zTNF3Rmub4lszBzSW/ea3JqOkY+j1F97oeIf4/1NcIZDxwG6Vp79Th0a4hZFJuzYcqYg11NmlF869oElR4hea3MqWu3/5NKiIqvraI2hhZ09DN1yhDRZQT+guNsq9Dxp1WUUhxIfnPb0PtvwpQz3kWUmj/mi0UXqFIBbq/oSfVgTEN3KadwkcUdmILzR3Zm7p370Uj5v6XLsaqiOgR7RpiUrbmo6pyKb5Gi9oYkfXQzXRNnUj6ZZQ91THuRKtCdNevcH8D9ayju9wehZ2gLXNHUu/u3anXiLn034uxRKoIWtPZhFrNv6KJoUK6Mr8VmXb9lv5WERX6z6c27b+iAHVBUMr+NbQlvJiIBEr6sT+ZWE+l0wXqfYZiUYjbSH2MTKnt7LOUlhlO571vU7KfvmtrSdtGzibm1HWJL6UJRJT9J01qakK9f4gloQZ9wZPEcKGBfoRIoOSf+pOxxWgqay6G2i0RCcn0U39jshh9iHLVJxhMW5WxYlAh+c9vRXWa9qPl3v9QMeVSxC8jyFpmRB1X3KZi1R365p261HFlKKmLcBG1MWmv6UMEitvYh4xM29Lss2mUGX6evG+nUXh1y1xIoh/7G1PdLovIN1lFRIV0c2l7qlO/K3119h/1/YKXUntjB3K/WFBlHBE9oO3vGZPZh/vV16+qXIQ42tjHiEzbzqazaZkUft6bbqeFG8ivut61YzWjXBHrbxMqiljTmUxazaeybmc+tTLtSt/+rT1LXX8fYygOi3XlJ0Og4tDV9LapNU0+ptSclES7PvuSvLI1f63QnwuUfMCFHJ1/InU4F1PYd72pQbNJdDSHdMRzJp2erqDWc3xL14Dk+s2j1kZNaczvKRWeG5UZrk8h6Ufqb1yXuizyJXV43KSl7etQ/a5f0dl/iomomIKXtidjB3e6WEBVxzIR0aNdNMSkZM2HofsXGOw7qoqDqutbRfe+605GFp1o9rEYKiQi5eFx1Ni4B32nfhEwGIflGX5eGeoD9ccZCal0cFxfWlgWaLSxtxHVcar8LmK4PzNUxpUuZLCfM/huJCTRj/1NyHrqaSpZsZh5ejopWs+hsubvR/NaG1HTMb9TimAg7xVUEVMG6+kJ+8cX0Eu85qM6ZFDM2INL+91hn+CDnet2ISBTRGF+QaURe6bXQXgbO6FTE3VRyd+cD5+MROwebgaZYgb2XNoPd/sE+Oxch10BmRAL81EgAjneW7E7pi369LXUXMkEze2bQqb5W57PUXgn3sXJDR7w8PDAuv35cF6xChM7mgKyeqhnJoN5e2c4NzcCYAZFSxtIs5R4SDB434py4L11N2La9kFZMprDvmlpKuBz1BuJd09ig4cHPDzWYX++M1asmoiOpuUuU0FDDPtsLByUp7Dtt2gIqgjs9aoPl4+aVfgaTWpujnrlvrt+kvJ4eOIX/J7giHZOJTOI6+Idl+FQPDiJA15KqBKD1F9Xa/6cuZEIsW5dGEsloOICHeXylMia4u3+HdBABpi1+QQb5vaAJPQSLj+Qwlphh7gfhqLXpG9wJLwOXJZ8jje0vmSpa1YXUokIZUaG1pQFc7w5+FNMf7sI1wIfQDF6CvrYlZRUmarKRU2Gpm/3Rwd1IvHJhrnoIQnFpcsPIKoSEXSmrNy8ztxAopEZ6kolEJUZyND6sNX8zcH4dPrbKLoWiAeK0ZjSx67iATrIrRWwi/sBQ3tNwjdHwlHHZQk+1y4IoMpYlJqawkhqgU79e6KR5Rvo7/wWGttU99oAUBevv9MZjaQATGxh2xhQZmZCrEFf8CQxbKgfAaQwN69XbqpHVe0WgNQc5uUaWFVpq16s6COFqakJZI26YVh/a8hRF61dV8KtPSHU1xepEgVm7LmE/e72SPDZiXW7ApApFiK/QNScawSpRSf079kIlm/0h/NbjfB6Ncsc0nowqyuBUfMO6NREBsAICkc7yGGDDt2tIQcgt7dDM0kWMjOpyjgCTFGvblmMVFkuUlOYGklh0ak/ejayxBv9nfFWo9cN5Fd3rDYo1zlWv00YItfbxxiKQ535aSCF/I0pmPFuHo5u90SiCAh3DyLw1dHoV099t4r9eSa8DnrD2KkT1OEsx5vzfZCRuBvDzVA5nh+ewC+/J8CxnVPpGpC677hguOIBTh7wguHoM1yf0npmqCsxQvMOnaAODwUc7eSATQd0t5YDkMPerhkkWZnIJFQdy5UC0ND9DfcdVcVB1WSoV88MMvP2cHZuDiMAZoqWsJFmQal+ETAYh5XofV5JDORDf5whzwdHvRNx9+QGeHh4wGPdfuQ7r8CqiR1R8fWhqv7MUBmXu0w1+rnqvxsBwEOc+OV3JDi2Q1nzfwcuwxV4cPIAvJQG8l5BFTH1LPvHF1iNmsLLRCrPx63NbpixMwntPpmBfk2lmtn/5QnISHuAAuVDTcelRSpH/q3NcJuxE0ntPsGMfk0hJai/iov8G0rIINdZwiKy0zOQb9waw79chEWLSv4sxJyhrSAvN1dfTQKZTAKQqE6j3vtqERIQ+bcSkMl1V7SYjfSMfBi3Ho4vS9OwCIsWzsFQHdORSph0m4GpXQhXf9mOS757EKCYiPfqax0kKZ+HJykPR2TE/4M8sQhF5eaoyu3tYC0tgjLzER5d+Bbjx4zBGM2fCd/+hZz6HdBRIYdwNwxh2pM4nwkpGjk0h6VEgKpYCtspe3FumwvMfddidIdW6Db7KOIrvMxL0aBrF7SRq3DH30/H9AMJ6pmZQiIxhVnJgu8KBKRWUS6VLglA2sgBzS0lEFTFQM4FfDu+rNzGTPgWPkZd0aWNHKo7/vCrnChI6pnBVCKBqVk93TGlRWo7BXvPbYOLuS/Wju6AVt1m42jFglCrRixqz8Ou9rUrkUEqg7oMatAXPEkMZxnqRwBIyq9LqardApr1PCVnVJW2x4sVg+Qt8GZLM6C4EIUkhTz/Fja7zcDOpHb4ZEY/NK3QIWnXXHXLHBXWLZVukUpQ4WCJFFKQelN14qhcuVWrXColv6r86jilnMeP2/L09TGG4rAV5NCTOGlTjJ4xEuYXt2NHWC6u/X4PbcY5la2VK9+fCxlIe1AA5cNMPXVWMZ6F1Hj8kyeiqGIhw85aiiJlJh4ZCr6q6rN8uwEASFA5PKQA6Uupdixr7avi/lXFsa6iromyWNX8XSaDBARR/SJQZRzqV/55Zag96oszQMxOR0a+MVoP/7JcnC3CwjlDUeH1oar+rIoyLlNVP1eDdyMAEFIR/08exKKicmuC5LC3s4a0SInMR9Cb9yrVWv/44tJXhS8pAfcO7Mb53Byc/mIYFmeMwo+rx6Jj45IA165eGV61tYZpqhcOnXlYulXM8ML2/VHIOv0Fhi3OwKgfV2Nsx8bqjh0AQYIGrzSAvCAMN24Vlp6n3ilChBQWzZqibqQndlzILNsnxMDrVEiVv8SQo/e+WiQN8EoDOQrCbqByMkRAaoFmTesi0nMHKibDC6dCDKRC1hKTZrwPy3u7MW12BLq7dkXJD0np9iTlEY7GLVvAQghH0I2yOY9iUSGKpK+hnVNTNJh4GOlZWcjS/En7vwmwlLeH69TeME89gZ1HknW+XBXdPY1TIdqr7jRkcshKO/kyRPp7nrz0B8i3bY8OrxISwv6BjetmXIgMx4nFbyF+qzvWnq+Yd3kbN3wxrAnyLmzHttta5VIlGZpVUS46G3deOh7k26J9h1chtZyIw+ll5ZaV9n+Y8EobuH0xDE3yLmD7ttuoOlUyyGUAVS4oCACEhDD8Y+OKzRciEX5iMd6K3wr3tecrX/cxYrHa1zaoun3Bk8VwQwP9SKWIqqrdVlJV2h4zVrQRlWtHxcgrENG4dRs0yz+NL4YtRsaoH7F6bEfoLcJS1S3zx1CjOHrMcsmpaX4rMhS3MnVj0roUoXK3I+jpY4oNxKHhZ0u9gTPgqgjHrh9W4WBWb4xxqPxtKwBA9ipsrU2R6nUIZeEsIsNrO/ZX+CESNVmzlmhhISA86Ea5H6EoQmGRFK+1c0JTnYWsUaP6rAF9saydZYP3Vz5xHFe/vnV4wjgse17lGciHvjgrhNSiGZrWjYTnjgsoKxoBMV6nUKFqqurPDJZxhQtV0c/V4N0IAGTN0LKFBYTwIJQ1fxFFhUWQvtYOTk2r9xwvpS+mnqf+8TliqNm/oEQUFRSBKB/5eRUf1Hlh27Diqik6mmbhXkwqcuKjcD+nAAm+J3A1WUBeVjJuBYZVOKf+oMkYbZOCvdM/xJz/euKP/Rvwmasn5N0ckHMvBqk58Yi6n4OCBF+cuJoMIS8LybeuI7XfBAx+JQY7vliMk/FFQGEcboalQchMRFxKFiQDJmNs81hsd+mDcat+heeRPfCY+hX8zRwgFwUIKoJYrlMiUjdUURSRpfe+gQgrv5JY2ghDJgzGKzE78MXik1An4ybC0gRkJsYhJUuCAZPHonnsdrj0GYdVv3riyB4PTP3KH2YO5T9x0CZF4xGf42P7bKTZDsOE17V7bACiAJEI6nclKRoNefzyaDh4Fma0zcSRjTsRVQQAIlLO+SCh+yzM7Klv2COD46fbsWV0PZycMxqL/rxbbpG1iMygPfjmGMGpjfr7VkEQ1B2YJmRkja3RxCgRAWdvIjXtDk5t3Y0rGSqkJ9zHg2zNgIXykKXUdEQFodix7x7eWzobXY0EJHiux/abeYCJPd5fvBSj7OvC2ETrEw6pNT7+cRfmvXUP34//DL9HVxwIUaVP6wSok6nuaOtXq1wIeVlKzQt5AUJ37MO995ZidtdKv/+lIYX1xz9i17y3cO/78fjs9+iKvxRDmk+YS8gaw7qJERIDzuJmahrunNqK3VcyoEpPwP0H2chN8MT67TeRBxPYv78YS0fZo66xCSSQwsTEGHiUjKSH6Qj0u4fuVcQiQYXics8iQe+1KxJFEaKOgaQoihDF6vYFTxjDevsRR8gAiIII0jxAq263eQBECCJpBiNVp61OVbGSdx1bJg3Gx6vOIFnX+AaAmB6HWE0jEpOO43hIG8yY2Q9GWfcQk5qD+Kj7yClIgO+Jq0gW8pCVfAuBYTnqh6aquOzFt9plDgACRFFr0EVacUgEgghRAACzGvVp1WpDBKjKBZ5YZX4rx2p5+uNWhsbWTWCUGICzN1ORducUtu6+ggxVOhLuP0BJt6O5it4+xsxAHMpROT+l5E6YMq0nMg4cAQ0ZjIbl91Xoz+tj0OTRsEnZi+kfzsF/Pf/A/g2fwdVTjm6O6mdBhXiuPxizZrRF5pGN2KkuZIgp5+CT0B2zZvaEMfJwfcskDP54Fc5UCr4q6lPQtO1K4VHW2IkIEMUKg3x9sWwCAIIAAQRRFA3f3z63yjg2FAeosr5FCIIKJJbru9QvAuq+qxpxWIG+55XcUHsM0RtnMBuAyWObI3a7C/qMW4VfPY9gj8dUfOVvhgpNrcr+rLrvIVX1c5lIMfRulGcC9SMnCQ/TA+EXUgeDZ81A28wj2LgzSv0rV2IKzvkkoPusmehprL+N6aIvpp5t//gCe6kWnBfeo4t7PGiUog5JJEbUtF1fch40iAYNcqb+Pd6iZnUtafjuNCISKPHoLOrcxJysWvSiqVsv0m+udmTpMJjWX9UsuCsnN2I/ufdTUCPz+mTdaSxtuJxGAhEJiUdpVucmZG7VgnpN3UoXf3MlO0sHGrz+KilJoMxrP5FrFzuysrSnTkM+pxVTulDzrmPp611XKVkgyo3YR+79HMnK2IgsbLvTtN1hlEtKCjmymPo3llEdxRjacDqcoi7vpFndLEla14mm/uJHCQmG7qtFyKRrP7lSFzsrsrTvREM+X0FTujSnrmO/pl1Xk4kolyL2uVM/RysyNrIg2+7TaHeYZtWrQSoK/3Y4TTn8UHsHUU4EnVg+iJrJ5GQ/fC2dilIvBH288lArjj1OS4Z2JKc+Y8jt009owowfyDfV8FJFIiJSpdKVrbNo6NsKatm2C/UdNILGTHKjBVuvqBcfE1F+5Ela5tyEZDI7Gr72GIU9IiJ6RH5rBpCthQVZO42i9RdP05cdW1LvSSto3/UHRLl/0/E146n3271omOtnNMttJq0+cU+zoLKQrizuRi3av0uuC1bQqoXTaJrHBdK7rjf/HnltmEnD+vSlYRNn0Oy5c2jm5I9o0AcT6esdlzT/OGI+RZ5cRs5NZCSzG05rj4URVVkuufT38TU0vvfb1GuYK302y41mrj5B90oW1xmUT/e8NtDMYX2o77CJNGP2XJozczJ9NOgDmvj1DrpU+i82Ej3yW0MDbC3IwtqJRq2/SKe/7Egte0+iFfuuU9LlxdStRXt613UBrVi1kKZN86ALmoJQRe+ijxVW1FAxnDYEZOuNRSHjJh1c9C41lcnI2nkJHQx6QAIRFV7Rf+1Sytv0f1/1pcayOqRw+Y5OhkXSpR2zqbuljMw6TqedAUk16AueLIb19SM5ESdo+aBmJJPb0/C1p0jdXAy123sUcWI5DWomI7n9cFp7KqpaaTMUK0LiLhrRxJJeadydVoVqL2sspuCl7cioaRcaPfUz+mLuZzR+hAt9fSJO/Y91CYl0dFZnamJuRS16TaWtF38jVztLchj8LXn7HqRF7zYlmcyanJccpKAHQg363xyKOL6cBlnLSO4wktadCKW4W3/Q6qG2JJM70AiPP+n2/SDyXPY+Wcvk1HyEB3lFF+qNI7VcOjCyHtUrWXBuqA0JGXTz4CJ6t6mMZNbOtORgEKmTry+/6+nKfd2xWp7BuH3kR2sG2JKFhTU5jVpPF09/SR1b9qZJK/bR9Qflr2S4j9EZh/ryU17mHzRl8Cq6XT4EdPbnuRSx3536KRqReX1r6jR2A13WdKg647k4lo4vGUodnfrQGLdP6ZMJM+gH31R12QiJtGtEE7J8pTF1XxVa7sYl9NRnTgQdXz6IrGVychi5jk6ExtGtP1bTUFsZyR1GkMeft+l+kCcte9+aZPLmNMLDi6ILq4jl/Eg6ucyZmshkZDd8LR0Le6T//gbi+Ftv3yrjgMhwfV+89H+0uH9jktVR0JgNpyk86jLtnNWNLKV1yWnqL+SXkKA3Dit1XQafV/rzsf5qmsE4o9wI2ufejxytjMnIwpa6T9tNOl8fDPZnNXkPMdzPJRp8N1JR9K6PSWHVkBTDN1BANhFRMcUeX0JDOzpRnzFu9OknE2jGD76k7hYNt7EyVcSU3v7iSfvHF1PJgnOJo6MjqT8BFCEIAuLj47XHJ4wxxl56RfBbPBM3pm7H7ApTblS4tawTuh4bAv8bq+FU+QuEF0geDn7UBO6me/Bg7wjtnex/qMhvMWbemIpfZzto73qKXqZYZs8HjqmasLW1hUwmexmnXTHGGKsZERn+P+Nkw/GYqG+uP6Bz7dSLRUSxSopWbd7U3sH+h8QMf/x8siHGT3yWA4+KXvxYZs8bjqnq48EHY4z9y4mZobglDsaKeX1gpb0TKjx8+AhCVgYya+WX4542FcK/64PX2ozD5pN/IrBoNOZPctQ+iP2viJkIvSVi8Ip56FM5+J6yFz2W2fOHY+px8LQrxhhjehQi+txu/N+lWGSp5LC074PRk/vDQd/vFTynVPF/4dc9PkizaIsPxn6Ijo30f7vDXlYvRyyz5wnHVE2VTLviwQdjjDHGGGPsmeI1H4wxxhhjjLFaxYMPxhhjjDHGWK349w0+ChIReif1X/mrBAWJobiT+ng5z40Lxu0EPf8auEEismKD4Hc1DCmPc3qtykVc8G08VjafuRepHJ/A89g+n3WanvX1nxv/khgu50n6XJ1y4xB8O6HCP/z51O/BGGPP2L9n8CEqEbxvLvo7OqLPGj/1v2b5LyEqg7Fvbn84OvbBGr/HyLkYi58ndkU3tz1IqckzTrgPzwUzsO7EVRz72hmKtuOx9375f2f2+SLG/oyJXbvBbU9KpRfBwstL0K1VL8z3Tqu075l7wcrxsTyP7VNfmrL+xKftWmPQ2gBkVzyjZvRd/2X0b4jhcp64z9VJROzPE9G1mxv2pIjP6B6MMfbs/XsGH1JLOI39AsMUBNLe95KTWjph7BfDoKDHzLnUHtN+uwr/XyahSbUjRkTqgXn4IvxtzHd3xzrP3/BlF3OoCrWPe35I7afht6v++GVSE62GUYQbx88Co9Zi6XuNa7nRPAflKKbjRtA9PNNXxeexfepJU87FP3G56Qysn9cF5uW215ie6798noMYrmVP3OfqJIX9tN9w1f8XTGoifUb3YIyxZ69236P+16QWMDeTaG/9V5BamONJsm5m54R2Nibamw0oQsB5P+SaWcAEgLRhfyzduxWTX3+ef+LSDHZO7VApm0I84l5bgAMre6K+1q5n739fjrmBm7Bs912otHc8bc9j+6yUpiJEZHTApr3uaKsdJ4+j0vVfRv/7GP5feNI+VyczOzi1s0FJ6D2TezDG2DP2cg4+VBm4G3gRF3yuI0ZZ/vNaKSSVOuo8JITcQaoICMoYBPkHIz5Xs6soFRH+fridpDVBWe/11YrSInHVxweB0ZmVPi3OSwrFFZ9LuBGXXXH6Tm48QqMyIKIIqeH+8I9I03rZUyHjbiAuXvDB9RhlxevmxSM0Mh1CQRJuX4vEQ+2bAoBUgkpZryIfFRQkIiSi/HSkXMSHRiFDBIpSw+HvH4G0kgQXxuPambMIuJcF4UEEznudgX902QQVITMGQZcvISAyrdJUk7z4UESmCyhIuo1rkQ8hAMhLCFHPaRaUiAnyR3BZBSE1wh9+t5MqzIEGAFXGXQRevACf6zGonLUipEVehY9PIKIzK+4sSAxBRKW5ZQ3xTvcmiL8eiTTtBFdZb1r01lUekkKvwOfSDcRla+5fRTnqjSV998hLQugVH1y6EYeSWwCG8iAiPWAzJo3fgGuxt3DW+yLC0stO1Ht/bdWOM13t01BdilDeC4Tv5VuIz8pAUnJJXGgTkX0/HDHZIoTMaARcCkS0jnTozo92mozQeco0vJ4SBe1p9trtXky+hXPeXvDyvoxIpQgISbhxxgteXmcQcD9Pc5b29WG4rYtK3Av0xeVb8cjKSILeLGvkJobA79JV3EkrRFFqDGKzRSTfOgdvLy94X46EOlk3cMbLC15nAlCaLEB3TOolIDMmCJcvBSCyfCMxEMO62rp6h544BYCiNERe9YFPYDS0mm4N06vvWAP9mh5641NXnwsAyEViiB8uXb2DtMIipMbEIltMxq1z3vDy8sblSCVECEi6cQZeXl44E3AfZdVSgMSQiLLpr3ruoTuWDfQNjDFWi166wYcQsw+TuozEptsPkOLvAWdFD6y8WuGJqiHiYdA+zHtXgZa9V8DzyHKMG+OKT0Z2Resu8+AdtBczB4/A5Omj0KV1TyzXXMPg9cV0+KydCNfvzyMuLQRbhirQyf0YkkUAYjK8V7th3nZfhFw/hHk9FOi15DwyVOm4tmcO+joqMMjjIHZMc8YHYyfgg/ZtMXx7tPqBLMRg36QuGLnpNh6k+MPDWYEeK68iT0xDwM7Z6OuowIAV27Duox7o1rUzJu/NqJBTXQzmozwxE8EHF2CgYwv0WnkJBRCRfm0P5vR1hGKQBw7umAbnD8Ziwgft0Xb4dkQLAKgIuVlK5BYDVJyLLKUSjwoEiFAi4D+ucFnoidD4KByf1xNvOK/CxXQRYloAds7uC0fFAKzYtg4f9eiGLm+PwKcz34WiZW+s8DyC5ePGwPWTkejaugvmeQdh78zBGDF5OkZ1aY2ey69qHtACYvZNQpeRm3D7QQr8PZyh6LESZVXkg7UTXfH9+TikhWzBUEUnuB9LhiozGAcXDIRji15YealsKKMM+A9cXRbCMzQeUcfnoecbzlh1MR2iWI16K89AXYnJ3ljtNg/bfUNw/dA89FD0wpLzGRD1laPeWNJ3j3Qke6+G27zt8A25jkPzekDRawnOp6cazoOoRFKGKazqiRALc6FUZiFPZSCWdbzvVTvOdDJUl0UI2ewK9wMJUBVEYOe4Lvjo19hKAz8h4RK2TO0MuzfGYsv+lRjY4R0MeLcrWiv6YdWVLPVB1c6PiMzgg1gw0BEteq9B6TR7Pe0+1dIWr6X+hmnD3LAjQgXIGsCmcRQ2jxuKuZ5JlWMEBto6ABSFYLOrOw4kqFAQsRPjunyEX2O1c6yRF47dMz7AhHVnEB55CT+McULzN0bg50gRDWxfQ+pv0zDMbQfUybJB46jNGDd0LjyT1KnSG5Pa9wEAZQD+4+qChZ6hiI86jnk934DzqotIF3X3BcrEAPyq1da7dp6MvRmi7jjNENUDYZ+1mOj6Pc7HpSFky1AoOrnjWLI6RTVJr+5j05FaVb9WiaH41C0vfDdmfDAB686EI/LSDxjj1BxvjPgZkWID2L6Wit+mDYPbjgioIEMDm8aI2jwOQ+d6IkkoF3u9VqJcF1WRvljW2zdU/axgjLGnztHRkRwcHMje3p5sbGzoxaaiO9+8Q3U7rqTQYiIqvkaL2phQ+2XBVExERI9o1xATshp7mPKJiEigpB/7k3HdLrTIN5lURFR4cym1r1Ofun51lv4pJqLiYFra3pgc3C9SgcHrC5R8wIUcnX+iOIGIqJjCvutNDZpNoqM5AqUeHEd9FwZQoea+cRt7k1EdJ1oWXEykukffdTcii06z6VhMIREp6fC4xmTc4zu6pyJS3fmG3qnbkVaqb0rXFrUhk/bLKLiYiIQ42tjHiEzbzqazaZkUft6bbmcI5QtF7dEuGmJiRWMP51ejnLQIyfRTf2OyGH2IcomISEX3vutORhadaPaxGCokIuXhcdTYuAd9d0+lOSmXfhtmQpYunppziDJPTydF6znkqy58olw/mtfaiJqO+Z1SBCIhbiP1MTKltrPPUlpmOJ33vk3p//xI/Y3rUpdFvpSsriBa2r4O1e/6FZ1VVxAFL21Pxg7udLGAiFR36Jt36lLHlaGkztoiamPSXl3OQjIdcHEk55/iSF1FYfRd7wbUbNJRyiEiIfkn6m9sQaMPaVKceZqmK1rTnLIEk9+81mTUdAz9niJUWW+V6Kqr9GQ6OK4vLQxQRwYJcbSxtxHVcdLUb6VyrCKWdNwjOHI/jeu7kMpusZF6G9Uhp2XBVFxVHoQk+rG/CVlPPU0F1bl/BTWMM+32aaguC/1pfpv29FWApiWn7Kc1W8J1XrfQfz61qtOU+i33pn+KiXIjfqER1jIy6riCbhdXlZ/KfUbyT/3J2GosHc7X/F1vuydSRayhziataP4VTeEXXqH5rUyp67d/kzpEKl7fUFsv9J9Pbdp/ReosC5Syfw1tCdeV42z6a04bcvrySmnbK/SfT68bt6FF14qJSEURazqTSav5VJas+dTKtCt9+7eKSEitIibLy6TT0xXUeo6vpnyIcv3mUWujpjTm9xR1O6sUw3raevJBvXFamHyAXByd6Sd1IVNx2HfUu0EzmnQ0p2bpNXhsdfq1cgzFJ2n3uUSU/RfNaeNEX14prRXyn/86GbdZROpqiaA1nU2o1fwrmlgspCvzW5Fp12/pbxWVxZ7FaCrpoireo4pY1tE36HxWMMbYM2JjY0P29vb0kn3zIYNixh5c2u8O+wQf7Fy3CwGZIgrzC3R+AgZIUc+sLiRGzdGhUxPIABgpHGEnB2w6dIe1HIDcHnbNJMjKzAQZvH4mvA56w9ipk2ZRthxvzvdBRuJuDDfLg89RbyTePYkNHh7w8FiH/fnOWLFqIjqaApDVQz0zGczbO8O5uREAMyha2kCapcRDAmSKGdhzaT/c7RPgs3MddgVkQizMR4EIQGoKUyMpLDr1R89GlnijvzPealBVtRrKhw5Sc5jXK//lvgz16plBZt4ezs7NYQTATNESNtIsKB/qW/z4ECd++R0Jju3gVDJhue47cBmuwIOTB+ClBKSmpjCSWqBT/55oZPkG+ju/hVcszFBXYoTmHTqhibqC4KiuIHRXVxDs7ZpBkpWJTAIgU2DGnkvY726PBJ+dWLcrAJliIfILRCDTCwe9jeHUSbOgXP4m5vtkIHH3cJgBkJqbo3w2H574Bb8nOKJdWYLxjstwKB6cxAEvZZX1VomuujK5hKPeibh7cgM8PDzgsW4/8p1XYNXEjjDVPh8AUEUs6biH4+1j8E68i5MbPODh4YF1+/PhvGIVJnY0rXkeqrp/BTWMM22G6lJuDYVdHH4Y2guTvjmC8DouWPL5G5BrXwPquDKRNUK3Yf1hLQfqtnbFSrf2oFBf+Kbm1CA/ACCFuXm9cl8ZG2r35c+rHkNtXW6tgF3cDxjaaxK+ORKOOi5L8PkbOnKcdQrb9mXjnYEdUVezSVa/PupV1S2UyPOpfkw+PIFffk+AYzun0nUIdd9xwXDFA5w84AWl1uEldLV1k0tH9cZpptdBeBs7oZPmFy/kb86HT0Yidg83q1l6DR5bw37NUHzqkHVqG/Zlv4OBHUtrBfXrl4+lqqhjT9c0K7Uq2qaOvqHqZwVjjD19L13PI5Xn49ZmN8zYmYR2n8xAv6ZSg78kI9GecC2RQlLhDAmkUqDkB0X0Xl/IQNqDAigfZla+n5iN9Ix8GLceji8XLcKikj8L52BoKzkAida8bwlkMglAovpaUjnyb22G24ydSGr3CWb0awppxSTWmN586CSpVE6V/i6TQQKCqO8iQiri/8mDWFRUbn2GHPZ21pAWKZH5SP3ArpQVifacZgmkElSsofIVBCnk+bew2W0Gdia1wycz+qGpprCEjDQ8KFDiYaaeRErK14OA1Ph/kCcWoajcFAe5vR2spUVQZj6CWFW96aKVQTE7HRn5xmg9/MuyuFi0CAvnDEUrHe+VVceS9j1EZKdnIN+4NYZ/We74RQsxZ2gryGuah+rcv5yaxZk2/XUJqS2m7D2HbS7m8F07Gh1adcPso/G6pzJVIkeLN1vCDMUozH9Uo/xAO/YNtfvHYaCtS22nYO+5bXAx98Xa0R3QqttsHI2vnGMh6R5ic+QwqlOpNVVLTWJSSI3HP3kiiio2EthZS1GkzISmWetUMXWG4tQRWWkPUKB8qP6AQUtN0lvVsTXr1wzEZyUCku7FIkduhMesFkATe3pPr07b1HsyY4zVnpds8JGD018Mw+KMUfhx9Vh0bFzy5NH3QKgpA9eXvQpba1Okeh3CmYclx4vI8NqO/X+boVnTuoj03IELmWVXE2K8cCpEz5ztcnJOf4FhizMw6sfVGNuxcemnu4+fKwP5eFZkzdCyhQWE8CDcKJ0TLaKosAjS19rBqelTCsWc0/hi2GJkjPoRq8d2RMUqsoW1aSq8Dp1BWRVlwGv7fkRVeoeToVnLFrAQwhFUlmCIRYUokr6Gdk5Nn0rjkVo0Q9O6kfDccQFloSEgxusUdIaG1KKGsSSFRbOmqBvpiR0VT4DXqZBKaySqVKP7P2GcGahLCAkI+8cGrpsvIDL8BBa/FY+t7mtxXu/PtxKo3ItwcV4BxMat0eY1qxrkRwdD7T5KAGRyyHS8vBJVCjigirYuJIThHxtXbL4QifATi/FW/Fa4rz0P7SxLLK1QH/8gKOC+3sGYTC7TMcAkkFCzmJQ1a4kWFgLCg26ULYoWi1BYJMVr7ZxQ/WZtKE7D0dDWGqapXjhUVsgQM7ywfX8UqAbprUneqmQoPiuRwNKqPvBPEAL0/vsmMqirpVKw6K3HCmrUNhlj7H+n2o+GF4KYhXsxqciJj8L9nAIk+J7A1WQBeVnJuBUYBkCAIAAkiqXTPgRRBKjs7+onB5V9kK75f1EUqrh+AgZNHg2blL2Y/uEc/NfzD+zf8BlcPeXo5miBAZPHonnsdrj0GYdVv3riyB4PTP3KH2YOckAUIKgIYrmXASJNOkURWfdikJoTj6j7OShI8MWJq8kQ8rKQfCsQYTnqJKuKq3i4CAIEEERRrCIfYdpnAhAhiAQSS0pJhCCoQGK5lyp1gtXXBwAUoaiYUFRUqCnb+hg8awbaZh7Bxp1R6l+5ElNwzicB3WfNRE9jzWWgQoWsCCJEEEovW1JD5X7bntQVpP6Foax7iEnNQXzUfeQUJMD3xFUkC3nISr6FwISemDzaBil7p+PDOf+F5x/7seEzV3jKu8FRBkAUIFLZveoPnoUZbTNxZONORKkTjJRzPkjoPgszexpXUW+lyatIu67MBmDy2OaI3e6CPuNW4VfPI9jjMRVf+ZvBQQ4d5WhmOJZ03MNswGSMbR6L7S59MG7Vr/A8sgceU7+Cv5kD5FXlQWoCE2PgUXISHqYHwi9EUvX9S9Q4ziq2T4N1GRIFz/XbcTMPMLF/H4uXjoJ9XWOY6PtkV0xHXGyO5v+TcPx4CNrMmIl+JlWVZ+U+QxTUfYZ6MFPfQLuXQdbYGk2MEhFw9iZS0+7g1NbduJKhQnrCfTzILtC6vuG2HhLlifXbbyIPJrB/fzGWjrJHXWOTSh9mSxu/hw/7mCLw23GYufUMrt34C7t3/YXk0jdYGRpbN4FRYgDO3kxF2p1T2Lr7CjJU6Ui4/wDZsqpispz6gzFrRltkHtmInepGAjHlHHwSumPWzJ5QN2vtGFbTbuuG4rThoMkYbZOCvdM/xJz/euKP/Rvwmasn5N0cIauyDZVj8Njq9GtlDMZnWE7FPhdSNH7vQ/QxDcS342Zi65lruPHXbuz6K7lsYCFrDOsmRkgMOIubqWm4c2ordl/JgCo9AfcfZKNAE3tU/nlV4R5VxXLlvgFiBs6tdMHHay6WG4wxxtgz9nItOBco8egs6tzEnKxa9KKpWy/Sb652ZOkwmNZfTaHIk8vIuYmMZHbDae2xMMqJOE7LB1mTTO5AI9edoNC4W/TH6qFkK5OTwwgP+vP2fQryXEbvW8tI3nwEeXjdpft6r68kolyK2O9O/RSNyLy+NXUau4Eup5Us6MuliH3u1M/RioyNLMi2+zTaHZZLREoKObKY+jeWUR3FGNpwOpyiLu+kWd0sSVrXiab+4kcJCUdpVucmZG7VgnpN3UoXf3MlO0sHGvytN/keXETvNpWRzNqZlhwMoge61g/mR9LJZc7URCYju+Fr6ViY0kA5KbVOzqGIE8tpUDMZye2H09pTUaQMOUKL+zcmWR0FjdlwmsKjLtPOWd3IUlqXnKb+Qn5x0XThv7OoR0MpSRv3pS+3/x9d/UdFRMUUe3wJDe3oRH3GuNGnn0ygGT/4UqpAJGTcpIOL3qWmMhlZOy+hg0EPSMiJoOPLB5G1TE4OI9fRidA4uvXHahpqKyO5wwjy+PM23Q/ypGXvW5NM3pxGeHhRdH4iHZ3VmZqYW1GLXlNp68XfyNXOkhwGryd1FUXQfvd+pGhkTvWtO9HYDZcpTSCinAg6sXwQNZPJyX74WjoVpV5eXRx7nJYM7UhOfcaQ26ef0IQZP5BvqlCtekssXxdCBt3UV1e5EbTPvR85WhmTkYUtdZ+2m8Jyiag4Rk856oklA/fIjdhH7v0cycrYiCxsu9O03WGUW608qCh618eksGpIiuEbKCCb9N+/EkPtUTvO8iu1TxIM1GXaFVrcrQW1f9eVFqxYRQunTSOPCyULnCsqDl5K7YyaUpfRU+mzL+bSZ+NHkMvXJyiudA2xvvxUTlNOxAlaPqiZOt6+OU3qMDHU7h+R35oBZGthQdZOo2j9xdP0ZceW1HvSCtp3/Z9K1xcS9bT19Vcp7cpi6taiPb3ruoBWrFpI06Z50IUUXTkmUiWdpeVDWlOjehZk3/cL8vRaTp1MSxacE9EjP1ozwJYsLKzJadR6unj6S+rYsjdNWrGPrj8Q9MekLsWxdHzJUOro1IfGuH1Kn0yYQT/4pmp+1KFyDF8JvV65rWsupTtOS/btJ/d+CmpkXp+sO42lDZfTyuq7JunVc2yV/VqFBk2G4zNFu899REQqSjq7nIa0bkT1LOyp7xee5LW8E5mWLDgnokd+a2iArQVZWDvRqPUX6fSXHall70m0Yt91igsriT17Gr72FEUpdd1DTyzr6xtU0fTToFepyeBtFKNjTT1jjD1NJQvOJY6OjiRqPmEXBAHx8fHa4xPGGHthqW4tQ6euxzDE/wZWO2l/FP7vIESsQZdOhzDANxjfvP3vLIPnj4CINV3Q6dAA+AZ/A64WxtjLztbWFjKZ7CWbdsUYY/pUnjnDGGOMsVrGgw/G2EtN9fAhHglZyMjU/ufp/z1UDx4gS5UD5aMq1oaxWqTCgwdZUOUowdXCGPs34cEHY+ylVRh9DnsCreAy92M0DNqLCzH/vgGIkHgFBwMtMHLuGLwStBc+sdX67ST2TAlIvHIQgRYjMXfMKwja6wOuFsbYvwWv+WCMMcYYY4w9U7zmgzHGGGOMMVarePDBGGOMMcYYqxU8+GCMMcYYY4zVCh58MMYYY4wxxmoFDz4YY4wxxhhjtYIHH4wxxhhjjLFawYMPxhhjjDHGWK3gwQdjjDHGGGOsVvDggzHGGGOMMVYrePDBGGOMMcYYqxU8+GCMMcYYY4zVCh58MMYYY4wxxmoFDz4YY4wxxhhjtYIHH4wxxhhjjLFawYMPxhhjjDHGWK3gwQdjjDHGGGOsVvDggzHGGGOMMVYrePDBGGOMMcYYqxU8+GCMMcYYY4zVCh58MMYYY4wxxmoFDz6eulzEBd9GQoH29qqJWbEI8ruKsJTHOLmW5cYF4/bjZLK2FSQi9E4qRO3tT+Tx61iv3DgE307A07wkY4wxxtjz5uUafAixuLT3B3w+rBd69HwfH0+fgRkz1H/cJn2IgX3HY2uESvusp0qM/RkTu3aD256UGrzwCrjvuQAz1p3A1WNfw1nRFuP33tc+6PkhxuLniV3RzW0PUrQzWXgZS7q1Qq/53kjT3lebRCWC981Ff0dH9FnjhyLt/U/g8erYEBGxP09E125u2FOpQBljjDHGXh4SR0dHEkURoihCEATEx8drH/OCKYSPe2u8+0sb/Jp+HK7mZdvvbPoM+9v/hDW9jSueokVMv4Gbj9qjUwuZ9q5qyEVccDSkrdvBxkR7n25i6l581OF3DAo9BTfLDFxYOweHX1uCrZNf1z70uZEbF4xoaWu008pkkf+X6D7fGD94rUHP+hV21T4xAZvfbYkVTfcjaf9IVLM6qqHmdVyl3DgER0vRup3NU0iniPQbN/GofSc8VggzxhhjjD1ltra2kMlkL9k3HwAAGerVr6cjY8ZoNeFzjHhNrr1DSy4CNy3D7ruP+w2JGeycavZSWhRwHn65ZrAwASBtiP5L9z7XAw8AMLNzqjTwAATEx72GBQdW/u8HHgAgtYC5mUR761NQ8zqukpkdnJ7KwANAbiA2LduNxw5hxhhjjLFnpPI7+ssqLxQhqW3QsdxHwaLyHgJ9L+NWfBYykpKRK6YjYPMkjN9wDbG3zsL7YhjSNbNgVBl3EXjxAnyux0AplF1Wl4LEEESUmz6TGx+KqAwRKEpFuL8/ItJK3goLEX/tDM4G3EOW8AAR571wxj8a2SUnCpmICbqMSwGRSNOeN5QXj9DIdAgFSbh9LRIPBQDIQ0LIHaSKgKCMQZB/MOJzNccXpSLC3w+3k7RWFagycDfwIi74XEeMjowVpUXiqo8PAqMzUWFvQSJCIipPO2r4Tnc0ib+OyEoJzkV8aBTUxRAOf/8IlBaDXnlICr0Cn0s3EJdd/k4ilPcC4Xv5FuKzMpCUXJJJbVJIKo09VMi4G4iLF3xwPUZZMU/aRCXuBfri8q14ZGUkofxttOtYvTEZYVd84XcrDlklu8Rk3DrnDS8vb1yOVEKEgKQbZ+Dl5YUzAfeRV3YyEkMitKax6cu//rIU0wOwedJ4bLgWi1tnvXExLL2sjvKSEHrFB5duxKHC5bJjcCMsBVVWB2OMMcbYE/p3DD5UWbhzcBP23Sl7IS4K2QxX9wNIUBUgYuc4dPnoV8Q8SEKGqRXqiSIKc5VQZuVBBQEx+yahy8hNuP0gBf4ezlD0WImrZW+NpcTMYBxcMBCOLXph5aUCiOnXsGdOXzgqBsHj4A5Mc/4AYyd8gPZth2N7tACAUJSbBWVuMUDFyM1SQvmoAIIIKAP+A1eXhfAMjUfU8Xno+YYzVl1MhyimIWDnbPR1VGDAim1Y91EPdOv6Nsat2op57yrQsvcKeB5ZjnFjXPHJyK5o3WUevIP2YubgEZg8fRS6tO6J5ZrECzH7MKnLSGy6/QAp/h5wVvTAypKMienwWTsRrt+fR1xaCLYMVaCT+zEkqzIRfHABBjq2QK+Vl8oWSCsD8B9XFyz0DEV81HHM6/kGnFddRLooIv3aHszp6wjFIA8c3DENzh+MxYQP2qPt8O2I1vP2LyZ7Y7XbPGz3DcH1Q/PQQ9ELS85nQEQRQja7wv1AAlQFEdg5rgs++jW2ei/OQgz2TeqCkZtu40GKPzycFeix8mq5AUA5RSHY7OqOAwkqFETsxLguH+HXWFWlOi6RdXU9hg9ZjoBiY2Sd+gxdWr+NvgM/wMhvQvDKa6n4bdowuO2IgAoyNLBpjKjN4zB0rieSBBGZwQexYKAjWvRaiZJL6s5/OlINlqUIZVIGTK3qQRQLkatUIitPBUBEsvdquM3bDt+Q6zg0rwcUvZbgfIYIoAi+Xw9El84TsD1ReyjJGGOMMfaUOTo6koODA9nb25ONjQ29+Irp+pK2VEfenN6dMp2mT59O06eOpX4trWns/+Vqjikk//ltqP1XAZRPRCSk0P41Wyi8mEhI+pH6m1jT1NMF6kNVd+ibd+pSx5WhVExExdcWURuT9rQsuLjcPcsIyT9Rf2MLGn1IfS/Vve+ou5EFdZp9jGIKiUh5mMY1NqYe390jleac3N+GkYmlC3mWJC/zNE1XtKY5vvklR5DfvNZk1HQM/Z4iEAlxtLGPEZm2nU1n0zIp/Lw33c4opqQf+5Nx3S60yDeZVERUeHMpta9Tn7p+dZb+KSai4mBa2t6YHNwvUgGp6M4371DdjispVJ0xWtTGhNovC6ZiEij5gAs5Ov9EcQIRUTGFfdebGjSbREdziEhIpp/6G5PF6EOkTnImnZ6uoNZzfNXlSUS5fvOotVFTGvN7CgmkonvfdScji040+1gMqYthHDU27kHf3SsphXKEVDo4ri8tDCjU/D2ONvY2ojpOyyg415/mt2lPXwWo7ySk7Kc1W8JJd208ol1DTMhq7GHKJyLVnW/onbodaaU6w3RtURsyab+MdFVlof98atP+K1LfRqCU/WtoS7j6QO06puJQWv12Peq0Olxdp8U36eu3jKnFLB8qJCJSRdCazibUav4V9d+pkK7Mb0WmXb+lv1Xq6yf/1J+MLUbTodwq8l9cVVkKlPRjfzKxnkolISykHqRxfRdS2eU2Um+jOuS0LJiKiSgn9P9o47a/KFFQ72eMMcYYe9psbGzI3t6eXt5vPmRtMG7jNmzbtg3bftmPM4e+wFulyz3ksFbYIe6Hoeg16RscCa8DlyWf4w1dy0FkCszYcwn73e2R4LMT63YFIFMsRH6B7k+JpebmqFduqo+sXj2YyczR3tkZzY0AmCnQ0kaKLOVDUPkTy3l44hf8nuCIdk4lKwDq4h2X4VA8OIkDXkpAagpTIyksOvVHz0aWeKO/M95qIEc9s7qQGDVHh05NIANgpHCEnRyw6dAd1nIAcnvYNZMgKzMTBBkUM/bg0n532Cf4YOe6XQjIFFGYXwARmfA66A1jp05oIgUAOd6c74OMxN0YbgZAag7z8pl8eAK//J4Ax3ZOpWsW6r7jguGKBzh5wAtKyFCvnhlk5u3h7Nwc6mJoCRtpFpQPdZRCng+Oeifi7skN8PDwgMe6/ch3XoFVEzvCVG4NhV0cfhjaC5O+OYLwOi5Y8vkb0FV12mSKGdhzaT/c7RPgs3MddgVkQizMh66qlFsrYBf3A4b2moRvjoSjjssSfK4JEO06hioWMQlFkJbM8ZI3R3MbICk2FvnlDtNPCnPzeii9pKH817QsAeT5HIV34l2c3OABDw8PrNufD+cVqzCxoykAwKzNR5gzvS+avby9AWOMMcaeE/+a1w35W+MxsXvJq7EUtlP24tw2F5j7rsXoDq3QbfZRxOucAiSFPP8WNrvNwM6kdvhkRj80lep+yQMASCQV1xlIJGUvlQAgkUEmAUjUdw0BqfH/IE8sQlG55RlyeztYS4ugzHyknsNfaS0DINFe4CCRQlJhiCOBVAqQZpNUno9bm90wY2cS2n0yA/2aStVHCxlIe1AA5cNMPQMkSYV7Canx+CdPRFHFBMPOWooiZSYeiZXTJpHJIAFBVzGI2enIyDdG6+FfYtGiRaV/Fs4ZilZGtpiy9xy2uZjDd+1odGjVDbOPxhteu1FCKkf+rc1wm7ETSe0+wYx+TaGvKqW2U7D33Da4mPti7egOaNVtNo6WBIh2HRu9g8EDX0XUhTO4LwAovIPIOCv0H9Ib9codZoikXJwYzL+8ZmUJiMhOz0C+cWsM/7LsWosWLcScoa2qNWhjjDHGGHta/jWDD8heRdNGhPvHjyKwUEBC2D+wcd2MC5HhOLH4LcRvdcfa84XaZwE5p/HFsMXIGPUjVo/tiMYlb2s6X/SeBhmatWwBCyEcQTfKViOIRYUokr6Gdk5Nn1Kl5eD0F8OwOGMUflw9Fh3LZ0z2KmytTZHqdQhnHpYcLyLDazv2R1V+zZc1a4kWFgLCg26UrZ8Qi1BYJMVr7ZzQtIYJllo0Q9O6kfDccQGZpVsFxHidQkhhAsL+sYHr5guIDD+BxW/FY6v7WuiqOm05p7/AsMUZGPXjaozt2Lj0xVtXVQoJYfjHxhWbL0Qi/MRivBW/Fe5rz0PnbaSNMHzjVrgaX8B/Vm/Ehm+OwnSBF/ZOtYf65w1kkMt0DDiJdA6aDOa/WotbypPCollT1I30xI4LZVeDEAOvUyHVWyvDGGOMMfaU1PC18EUgQlWkAkGAoPVmVxi5AyvPFUFhLCDBcz2238wDTOzx/uKlGGVfF8YmEkhNTGCMR0hOeoj0QD/cSrmHmNQcxEfdR05BAnxPXEWykIes5FsIDMupeAMAEAWIRBA1U3lEQYCKxHIvngQCQRTF0l8hKioqBhUVoVCzof7gWZjRNhNHNu5EVBEAiEg554OE7rMws6fm3yghQFVc8dVREEWAyq6rfq2m0m86Sv5fFAVAzMK9mFTkxEfhfk4BEnxP4GqygLysZNwKTMCgyaNhk7IX0z+cg/96/oH9Gz6Dq6cc3RxlAEQIIoFKMll/MGbNaIvMIxuxU51giCnn4JPQHbNm9oQxRAiCCiSW+3SeSJ3WkmuUZzYAk8c2R+x2F/QZtwq/eh7BHo+p+MrfDA6SBHiu3w511b2PxUtHwb6uMUx0fBMETQyQKEKEiKx7MUjNiUfU/RwUJPjixNVkCHlZSL4VCO2qFBI8sX77TeTBBPbvL8bSUfaoa2yi/nZCq46BTJxetBwJI/6DtQvd8cXK9Vg5oT0sS3bLGsO6iRESA87iZmoa7pzait1XMqBKT8D9B9koACAKIqik7gzlX15VWUphYmIMPEpG0sN0BPqFQDJgMsY2j8V2lz4Yt+pXeB7ZA4+pX8HfzAFyCIg/Mh8fuW5BEP/z6owxxhh71l6qBeeqGPrrlxX0ocKYJFIraj9iinrB+fTpNGX8IHqzwSv00f4M9YLfxd2oRft3yXXBClq1cBpN87hAKQIRqaJp18cKsmqooOEbAihbSKSjszpTE3MratFrKm29+Bu52lmSw+D1dFWpdf+cCDqxfBA1k8nJfvhaOhUUREcW96fGsjqkGLOBTodH0eWds6ibpZTqOk2lX/ziKObCf2lWj4YklTamvl9up/+7+g+piKg49jgtGdqRnPqMIbdPP6EJM34g31SBSMigmwcX0btNZSSzdqYlB4PogUCUE3Gclg+yJpncgUauO0Ghcbfoj9VDyVYmJ4cRHvTn7fsU5LmM3reWkbz5CPLwukv3j86izk3MyapFL5q69SL95mpHlg6Daf1VJRHlUsR+d+qnaETm9a2p09gNdDlNIKIcijixnAY1k5HcfjitPRWlzntxLB1fMpQ6OvWhMW6f0icTZtAPvqkkEJEy5Agt7t+YZHUUNGbDaQqPukw7Z3UjS2ldcpr6C/npWumcG0H73PuRo5UxGVnYUvdpuyksl4gKr9Dibi2o/buutGDFKlo4bRp5XEihylfIp8iTy8i5iYxkdsNp7bEwEhKP0qzOTcjcqgX1mrqVLv7mSnaWDjR4/VXSrsrCK4upW4v29K7rAlqxaiFNm+ZBF1KEynUcVUAkJNKB8XZkLAEBEpJI65CJRWNq2XsG7b2jXuX9yG8NDbC1IAtrJxq1/iKd/rIjtew9iVbsu05xYSdo+aBmJJPb0/C1pyiqQH/+q1OWquhd9LHCihoqhtOGgGwiIsqN2Efu/RzJytiILGy707TdYZofCyim6ys7U0M7Vzr8oEIRMMYYY4w9NSULzl/Cf+GcsVomJuL4qu3I/tAVTuIDZGblIC8nE0m3D2FPshu8tgyA5vsqxhhjjLF/pZf4XzhnrDaJSNzrjjm3HfDeWw54o31ndO/dDwM+GIlRzp3w9psOvKibMcYYY0yDv/lg7ImISD32OfpN3I/CjkPwQVcFGpsKyEqIQeorw7Bs5UdowaMPxhhjjP3LlXzzwYMPxp6CwsRAnDzug9CkPMis7NBhwDC817ah5teuGGOMMcb+3XjwwRhjjDHGGKsVvOaDMcYYY4wxVqt48MEYY4wxxhirFTz4YIwxxhhjjNUKHnwwxhhjjDHGagUPPhhjjDHGGGO1ggcfjDHGGGOMsVrBgw/GGGOMMcZYreDBB2OMMcYYY6xW8OCDMcYYY4wxVit48MEYY4wxxhirFTz4YIwxxhhjjNUKHnwwxhhjjDHGagUPPhhjjDHGGGO1ggcfjDHGGGOMsVrBgw/GGGOMMcZYreDBB2OMMcYYY6xW8OCDMcYYY4wxVit48MEYY4wxxhirFTz4YIwxxhhjjNUKHnwwxhhjjDHGagUPPhhjjDHGGGO1ggcf7OkoSETonVSI2tufkoLEUNxJfVZX/7fIRVzwbSQUaG9nT+KFiM3cOATfTkCtVb12f1CN+4vZMQiNVj5WH/Ik5z4bIrJjQhGtfH5S9KyJWbEI8ruKsBRDtVyF3DiERKY/R/X4uB6//nPjQhCZXvPzAAGZd0NxP1d7+/MrNy4Yt5+nB5J2v/W0Pevrv0B48PEcEZMDcGjTHHzYuwd69ByCmd/vw+U4QbO3ENF/7cSaqe+hZ/9x+PqXC4gu1LrA/4KoRPC+uejv6Ig+a/xQVLI960982q41Bq0NQHbFM2pEVAZj39z+cHTsgzV+pVdnj0GM/RkTu3aD254U7vwAAFn489N2aD1oLQIeI0hfnNgUEfvzRHTt5oY9Kc+45nX2B1XcX0jAXxtc0bn5m3D5ORIq7f2GPMm5z4iQ8Bc2uHZG8zdd8HPk85CiZ03Afc8FmLHuBK4e+xrOirYYv/e+9kGGiWkI2OGO3o6tMHB9QNlz5CnIizqHX1dMxsAe3dGjV38MGTkSw4ePgtvSHbiS/PTr53HrX0wLwA733nBsNRDrA2pWAkLcX9gwsQOavzUF+0vfGZ5zYix+ntgV3dz2QFe3UKt09lt44mdEKb3X/xdzdHQkBwcHsre3JxsbG2L/Y6pwWvN2HZIr5pJfofZOovyTU6nD1JOUq73jf0mIp019jclq7GHK12zKPjqJ3nT+D4WUbHgCQvwm6mtsRWMPP4WLvcCEtCC6Hq3S3lwDORR78xbF/1uLUUijoOvRVFqC2Udp0pvO9J/yQap9TBVemNjMiaWbt+JL2+czpaM/qPL+hX40V2FMr395lXR0e4Y9ybnPSKHfXFIYv05fXn0aKRIoLeg6PVHTf4aElN9oRLP36ecMIhIe0PlV42nGzjvah1VNFU3ruxvTq5OP64+Tx5VzhMa9IqMG445QPhHl3z9OszqYkZHtR7T7GRTs49a/Kno9dTd+lSYfr3kJFPz1Gdkbd6LV4U8/P89KTuxNuvW8PJB09Vu6nhGPS9f1/4VsbGzI3t6e+JuP543kFTS0kkBibglLHbUjrW+F115pCLn2jv8lqQXMzSTlNhQhIqMDNu11R1uTcpsfk9TCHBUu/6+Ui8BNy7D7bvU/SavMDHZO7WDzFOrkRZQbuAnLdt8t/XS8KCIDHTbthXu5INU+piovTGya2cGpnQ1qpeor9QfVuL/MEpYWj1mQT3LuMyKztMRTS1JuIDYt240navrPUFHAefjlmsHCBIC0Ifov3Yutk1/XPqxqMvPKcfO0yC1Rv54EgPr6JvZDsHbph7D65yhWbfLTPvqJPW79y8wfvz+RmZnDTMc7w/PMzM4J7Z6XB5KOfkvXM+Kx6bj+v9kLFqrPiYJY+Oz+DitWrMPOv2KQp72/VuUiPjQKGSJQlBoOf/8IpGk9pFQZdxF48QJ8rsdAqfcbWRHZ98MRky1CyIxGwKVARFc6OA9JoVfgc+kG4rLLf08qhaRCmzJC5ynT8HpKFCpOhS9CWuRV+PgEIjpTACAi+dY5eHt5wftyJJQiICTdwBkvL3idCcD9koKVSjSPjPJUyLgbiIsXfHA9RgntlJYRobwXCN/LtxCflYGk5IoTYvOSQnHF5xJuxGUbnIpUlBaJqz4+CIzO1LqXgXTkxSM0Mh1CQRJuX4vEQ81Ow/WhXUYAxHQEbJ6E8RuuIfbWWXhfDEPplOC8JIRe8cGlG3GoUCV67l2QGIIIzXfcWXevqMu6wh9v+EUpNRcxkLfyxGzcD49BtiggMzoAlwKjK+dLyERM0GVcCohEmvZ3znrSWp6ovIdA38u4FZ+FjKRk5IrJuHXOG15e3rgcqYQIAUk3zsDLywtnAu5rtUkR6QGbMWn8BlyLvYWz3hcRli7CqPMUTHs9BVGpoo5jLuDiX2ceMzaryK8hufEIjcqAiCKkhvvDPyJNayBURZ0UpSHyqg98AqNREj5qBUgMiag0vUHIjEHQ5UsIiEyrNBUgNz4UUeqOBeH+/oio3LHgbuBFXPC5jpgKFa7dH0Dv/VUPo3HN9xKCE/Ir7oCh62t2GzrXADH7PsJjsiEKmYgOuITA6Oq1W0BAZkwQLl8KQKTOSlXhYfQ1+F4KRlmSqtnHATrbvpgegM2TxmPDtVjcOuuNi2Fl6yEM1V1efCgi0wUUJN3GtciHmvxVETsQkRHuA29NX3AmMFbdjvJiEXjGC17ePgjPKF+BhYi/dgZnA+4hS3iAiPNeOOMfXTbNVl/fBH1xKikXN0VICbtS8/ivAZPmzdFUJiIjNbkGdaTvGQg99V+eoXM1JOX6k6IUhF2pQbsrPZegSr+DgIBw6Fp+o++ZpztmAEDEwzuXSuPC2y8KWSKA7GhcOeMFL28/RGnWtuh/tuUhPjQS6UIBkm5fQ2TZAwkhERWnAeu/huFneckxVb/H6CuDyv1WxWdEGe33ATH5Fs55e8HL+zIi1QGEG2e84OV1BgFlD4tK18cT5/fFxYOPmsq9hm+cO6L/JwuwcuVCTBnQCQNW+SNH+7hnTkT6tT2Y09cRikEeOLhjGpw/GIsJH7RH2+HbES0AgICYfZPQZeQm3H6QAn8PZyh6rMRVrdGSkHAJW6Z2ht0bY7Fl/0oM7PAOBrzbFa0V/bDqSpb6bsneWO02D9t9Q3D90Dz0UPTCkvMZOl7YRWQGH8SCgY5o0XsNSqbCi+k+WDvRFd+fj0NayBYMVXSC+7FUWNq+htTfpmGY2w5EqABZAxs0jtqMcUPnwjOpcqcBABBisG9SF4zcdBsPUvzh4axAj5VXdQwCixCy2RXuBxKgKojAznFd8NGvseqHmZgM79VumLfdFyHXD2FeDwV6LTmPCs9WABDT4bN2Ily/P4+4tBBsGapAJ/djSBYNpENMQ8DO2ejrqMCAFduw7qMe6Na1MybvTTNYH7rLKBkqZRIyTK1QTxRRmKuEMisPKohI9l4Nt3nb4RtyHYfm9YCi1xKcT0/ReW/XbRdxcMFAOLbohZWXCgAU4c6etdgemIiHSiWUygcI2uaGoSMX4WSaTH/eKhSOgIRLWzC1sx3eGLsF+1cORId3BuDdrq2h6LcKmtCBMuA/cHVZCM/QeEQdn4eebzhj1cV0iHrLKaPCXYpCNsPV/QASVAWI2DkOXT76FbFiA9i+lorfpg2D244IqCBDA5vGiNo8DkPneqJC6IhKJGWYwqqeCLEwF0plFnIeBGvKo7d6vUalY7JRp8ljxKah/GofWJ6Yjmt75qCvowKDPA5ixzRnfDB2Aj5o3xbDt0erXwQM1omIdJ+1mOj6Pc7HpSFky1AoOrnjWLKqrD32WolLpS8jSgT8xxUuCz0RGh+F4/N64g3nVbiYLkJMv4Y9c/rCUTEIHgd3YJrzBxg74QO0bzsc29UdC4SYfZjUZSQ23X6AFH8POCt6YKV2xwJU7A8q3D8PoT9PgPPUHbiVGI0Ti92x/W5ZmRq+vuFz9RIScGnLVHS2ewNjt+zHyoEd8M6Ad9G1tQL9Vl1BlqF4VAbgP64uWOgZivio45jX8w04r7pY7kOAUPw8wRlTd9xCYvQJLHbfDnWSpGhQjT5Od9tPxMOkDJha1YMoFiJXqURWnspw3aUFYOfsvnBUDMCKbevwUY9u6Np5MvamGYqdElKY1svFuaWjMXjsVsQ2bqT+psqkIWRX1mDxyVxY1iv/ykAoys2CMrcYoGLkZimhfFQAQdTTN2WIBuK0XOsouo/fvxiNcTOmYZhTW4z45V414r+mRKRdv4lYoS46dH27enVk6Bmot/41dzN0rg5F93/HF6PHYca0YXBqOwK/3KtuuyOknnJHN6du6N+jLexbD8OmIM3biZ5nXnqKnpgp7YalMGtojMj/TsGQYWtx07KZ+huWuq+i3rWN2BAkR4O6pOfZJiItYCdm93WEYsAKbFv3EXp064rOrttw8eACDHRsgV4rL2l+iMLQ+4qBZ7lGdd5j9JVBpec+ADFT6xkB/e8DqZa2eC31N0wb5oYd6gCCTeMobB43FHM9k/QMkp8svy88XvNREwKl/DqYzCUgoOyPxGwg/fcfQfvgxyOk0taBRlSn4yoKK9beSVR4+UsaurBkbrOK7n3XnYwsOtHsYzFUSETKw+OosXEP+u6eikh1h755py51XBlKxURUfG0RtTFpT8uCK1+40H8+tarTlPot96Z/iolyI36hEdYyMuq4gm4XptLBcX1pYYBm/qoQRxt7G1Edp2WkvtQj2jXEpNxcRoGSf+pPxlZj6XA+EQnJdMDFkZx/iiOBiKg4jL7r3YCaTTpKOaSiiDWdyaTVfLqiuXzhlfnUyrQrffu3Zu7qo100xKRsXr3qzjf0Tt2OtDK0mIiK6dqiNmTSviQt5RT60/w27emrAE2qUvbTmi3hVEwCpR4cR30XBmjKUaC4jb3JqI6TVtkIlHzAhRydf6I4dcIp7Lve1KDZJDqaU0U6hDja2MeITNvOprNpmRR+3ptup4Xrrw+DZUQkJP1I/U2saerpAnXKUg/SuL4LqaxKNlJvozrktCyYinXdO0MgIfkn6m9sQaMP5arzcvIkRWqym+3/NXWsZ0k9vw2mgpqUMRWS//xWVKdpP1ru/Q8VUy5F/DKCrGVG1HHFbSrOPE3TFa1pjm/JLNdc8pvXmoyajqHfUwTd5ZRRvi0Vkv/8NtT+qwB1bAkptH/NFgovJiJVBK3pbEKt5l/R1GMhXZnfiky7fksloVNKSKIf+5uQ9dTTpC5B0pRHufUalY6peWxSVfk1RHWPvutuRBadZtOxmEIiUtLhcY3JuMd3pG7O+utESD5ALo7O9JM6UKk47Dvq3aAZTTqaU9YeLUbTIc1isczT00nReg6VJdOP5rU2oqZjfqcUgUh17zvqbmRBnWYfI3VSDtO4xsbU47t7pCIV3fnmHarbcSWpk3KNFrUxofbLgkkdHnr6g3L3z/X7kt5ymEzHMjX3zzlJU6zraNZtGL6+4XOrUOhP81vVoab9lpO3uqOjX0ZYk8yoI624XawnHjPo9HQFtZ7jWzpXO9dvHrU2akpjfk8hgXLJ78u3yGHyMSpL0hSyrlMy57+KODLY9gVK+rE/mVhPJU3Tr7LuhLiN1MfIlNrOPktpmeF03vs2pYXrjx1tub5zSGHcmr7019xQSKE9E8bQtnjd8Zv72zAysXQhT03dGuqbCg3GaRptczYh865LyDdNIKJs+nNSUzLp/QPFCobjv0oFF2imvZzMun5Be48epf0bptLbDevT62N+ptB8qkYdGXoGVlH/Bs/VnFAibRs5m5hT1yW+pC6CP2lSUxPq/UMsCVW0i+Jri6iNkTUN3XyNMlREOaG/0Cj7OmTcaRWFFBt+5umKmQrdMBEVh66mt02tafIxpXqDkES7PvuSvLKpincNgeI29iEj07Y0+2waZYafJ+/bGSQIyfRTf2OyGH1IvYbV0DX0PssrMvgeU0UZVO63tJ8RVbwPRKyhziataH5ZANH8VqbU9du/NWsIta7/FPL7IuI1H49FRHJcAgqo4lYqTEDsP09pTCqVQCKRACBo3UZNFABZSbXJUK+eGWTm7eHs3BxGAMwULWEjzYLyIQEyBWbsuYT97vZI8NmJdbsCkCkWIr+g8jBfamoKE1kjdBvWH9ZyoG5rV6x0aw8K9YVv7F846p2Iuyc3wMPDAx7r9iPfeQVWTewIU+0LAQCkMDevV/a1WqYXDnobw6lTE/U2+ZuY75OBxN3DYVbhvOqRKWZgz6X9cLdPgM/OddgVkAmxMB+VsiW3hsIuDj8M7YVJ3xxBeB0XLPn8DciRB5+j/8/eeYdFdaV//MvMSBUEW0SCIOIYrCDEXkHDurHgJorBqBhF2SRYosaW2JVV15hoEkUjahSN/NZ1LRGMGopIsYE0wSACI51hBukw976/P4YyDFNA0ai5n+fhefTee8pbzzkz59wJRvbDS9jj6wtf350IqHTFpi1z4dhEIAmCTgdDz8EJ3eQdR7+VoRBnH4ObkZZ+8AxgoMuDiZMLRncxRV8XVwzs8o56e7RSRxWh5xCc/RCX9vjC19cXOwMq4bppC+Y6GqhuuyMPPGNjtG/42leAfu+/jz4CgBUHY/X8f+PJ+F04utIeeq3RMXgwMNAHv8sITHOxgACGsPPcDC97QkJYGFLOH8YvIlsMcqjfM2uIoe5uEBZdwqkgqdq+NiKAhdAKmd9MxZh5O3A2qR3c13+Ovm1w6IlnbIwmH+S2AcUXtcirCX57tDfiw9jeFa49dQEYQdjbErwSKeThrN4mkqDTCNZzgJPcUSHotxKh4mwcczNqiMfGb/yLcfHwLxDZDkJjN4fC3U2IokunECQF+O3bw4hvDHtXV8i7IkRvSx5KpMUg8CH0Po7wAB9Yi0Lhv/MooiUsqiur1HySq9x+GYIPHEP6gHEYb1p3Sb8nrM35df/RVL+2slrgGcBAn48uI6bBRZ7o4LnZC/aUgLCwfLCq/BG/4vAvItgOcmg4s2I41B1uwiJcOhUEaVkwDhxLx4Bx49HYJWu0tEuti33ttuMZGECXZwInl9HoYtoXLq4D0eUd9b6jjOFIH3w+KhvHvzmLfBZgMgPxa7vpmGHZsmDRlJs0+6kcw3eGYkgXHgB99OjRFZBKIGE1+39L0bXoi4EWHfHWoDk4cDsTiae90L8l2/krQtWPgdrsr6msQhONGOKdoUMgV0EPyFUgAasxLurgm+Ndl8HoyAeM+n+CPV+Mgk5COG4UlWkc81T5TJM0DEDQdwG8J1TgnF8gslmAeXgaMW/NhHN7aJlr8GBgoAueiRNcRneBaV8XuA7sCB7PGMaNA5LmOtSO5U3ROI/J16wDVTQdIzTPB1pNG8j7OtOybMJRhwC2QxzRVWlQ4XV2xNA+uk0vPjMGMNTngSrKUa4iqbKlZYCRMeq7IF+oNKLD50MHBJYAgAdBZRz2eXnDP2cQPvF2hjlP5ZJGBQL06tcbRqhFZXEhxJV6sHNbhbVr1zb8rVk2FX3URINivxhxAYqqpCiWtLRtLfAEqIzbBy9vf+QM+gTezuZQKRavBxacuIqD7sYI2z4Tg/uMwNJzWWDYUhSKK6Fn54ZVCvKsXbMMUxUFYsQoKKqCtFiieiGorR/N9neqt0frdMSitFCMSj07uK1S6P/aNVg2tY88QTVru25PsPJ1NhuBPotwpHomfvBbgF71jqVNNk0IeqFfbyOgthI5WU9QwdagRmHvscDaCha8GkglT+WDpnKfmsBDjwUncPWgO4zDtmPm4D4YsfQcslR/j906FPdXtwkM8lsir1qU7aMDPl8HIFbuf2ptwkBcUIQqaTHUuY+OoqxMPrKeVICtqVH43Q0BrK0swKuRQvKUba4bHT7kXZE3wBNUIm6fF7z9czDoE284m/NUx0gdTdsXIeUPKcAXqB2A1NbfgrKtRdCrH3obAbXV1fI2lJyCyc/CkwoWNU2NCisLHmqkEkgyUyDv0rP1qFWx3xLbNRdBg++ogG+DuctnQP/Xb3AwoQpJJ0Pw1qzJ6Kj8nEo05SZblGjxU2X4PD7AyFCLVsqgBh29ThC+OwYuLmPg2LNDwziqDbZU/Rhom6vZ/prKqhs/G+FDroJaQFNcqISHLjY9YarDQFatfcxr5jPK8Mwx0/sDGIf44UhiOW798gj9ZztAPvNRP7bJUVV7/Qet9WioQ91YrlBaNY3zmOrKp1p10IwmeUvLfKDVvAh5Xx9URwuHWtr/fRsOLh2CTgId+eTAzBGfHfwX3Oo/8nhudNHTxhI62Q+R2uwgCYOM+Cfo2KdHy5Jm2WUsn7YO4hnfY6uHI7rWx5fayCGQwuyotqIKbFc7DOz9NswNUxB45DokDXcZpAf9ivgWfOHDf6sHLAzyEXTmCorrL7JiBPkFIJUB+AJ+4wSrAQKpibSyy8sxbZ0YM77fCg/Hrg2fBjQTixEh8YklPPddR0rSRawbmIUDPttxrdYE3c0NkRJ4BNcbBQKTHoRfFQXiv4UeFgbIDzqDK40dhzjIDwGpTMv7UY8Ge2jTUVN4MOluDsOUQBxpKgCCfo1vxb5QGVL9vLDkfyb450/f4gNzHsBKUCCWtV42IoWJdS0qqlh0tRuIQX16wYRJwp27jfuS2Zpq1PDexiAH8xYkIAaixCew9NyH6ylJuLhuILIO+GD7tWoAfMhdR6lXRG2WpFvnm3x07/288qpHvU34eKuHBQzyg3Cm0VHBioPgF5DaXBf87ujdywRM0h00dpNFTXUNeG8PgoO5tl6W4fLyaVgnnoHvt3rAUXtiaYpOR3TuKEBV4l3EKf1WEbGs5vq1lm0Z1DTRoYrtCrv+3VXmVX733uhlwiDpzt3G8wVsDapreHh7kAO6d+6MjoIqJN6NQ9MuEeq7pMmPWhX7z2g79b6jmg6uy7B44AMc/tcW/HCvHz4eb6j8iBo05aYkdGqNnyrRWhlaiyYb8Uy6qx0DE0w0219T2ZaMn41oiAs1VBQWobKHPQabm7ZszNNC+/e84SlMwtFvtuB0yVjMsqmLGA1jW4vRVIe6sVzlb52pnsf0f9vs+XSgZT4AvgD8hg9+GyHVg0Ubyvt6ojpTcaiHZ47JeyLxKDUaISFRSE2Pwb5pFm2oSF0MW7AYI3nXsG/HdeQ3+G0NckJ88eX1/vB8r/47PhYMIwOxCg5PBBALlmXBljxCen4ZslIfo6xKhLCLUchlKlCSG4eYxGYrG4AtRGZG/eG0HFy4EI/+3p/CudNEzPfoiQw/d4ybvQU/BZ7Fcd+FWB1pBBsBADBgGPngXx/zLMPKEzkLoMMkzJ9pibwTi/GPZT8i8L8B2POZJwIFI2DL56OrRTfoZkfjt3v5KHjwKw4cuwmxrBCix0UorQLAMGBAYFkWAIuSR+nIL8tC6uMyVInCcDEqF0xFCXLjYtBELEaEwF1+uFcB6Fv/Heu+ngFrQz3o6xhh4nwP9Mzwg/u42djyUyDOHvfFwtWRMJILVEcHTJo/E5Z5J7D4H8vwY+B/EbDnM3gGCjDCVkd7PwiQ1TYmNY32EI3WoCOAp68PPTxFbk4xCmMi8GjkfHj0zICf+zjM3vITAs8eh+/C1Yg0spEPykptyzvAgKXGCVHFnX/hk7U30WvNUWx3MZNflATh/PVS7bIpwRZmotF1LuBCfH94f+qMtyYvgfcACc7u9UdqDQCwyLsaCtHIJfh0tJ68gKq+NsBAFLgLfnIj4u/rvsYMa0Po6esA/K6w6KaL7OjfcC+/AA9+PYBjN8WQFYrwuKi06a9p8/Shrwc8zc1BcWEMIuIr5PoAga0fqZo9U91K3wQ6aJO34jb2z5uMj7Zckb+0QBGWASOT96dpOMvjWZNNRKPnY6ZlHk4s/geW/RiI/wbswWeegRCMsAW/Lh6J6uOzAyYv8cYAyVns9U+VvymJzcPVUBFGLvkUo/UAlmEgI1ZhYUegOjlZtgSP0vNRlpWKx2VVEIVdRFQug4qSXMTFJKrNBw3t87pgypzJ6Jx+BMvXXUJWDVCdeQ+JBQwk2ZnIk+Spr/92vuayJRWouL0f8yZ/hC1XcutaV4ZFYWZG3UtCWORcuID4/t741Llu/42yP3aYjCXeAyA5uxf+cqOCzbuKUNFILPl0NAy6TMGcyZ2RfmQ51l3KQg2qkXkvEQWMBNmZeSip0JLj9DTlRx705U6JnOJCxERkwlmL7eQiyNAogmbfURXPEPSF17LJqP2/b5E0/GM4KqZFJWpqakE1NaiuM7bRRPW5qdMkDX7KsmBZFR8mtMD/E8tYiK9uhvtH2xCiMLFspBo1tYTa6mo13z5qsRFf/Rhoa67F/jrqyzYZbgB5fKmYwLYs7gBQBUqkdTPUqgQcOfkIf/t6KYbrah/zmvqMGgQOWLBoNMSnzoKmTEanussax7bGwVDpgzEWDEsNHxporCM+Vc1Y3qRCOermMfradNA8bzUdIzTNB/jgd7VAN91sRP92D/kFD/DrgWO4KZahUPQYRfLBokn9bSbv6wp34PxVhKGim9/TogmDyM5+JLm8N5Fcxo6mCXN20G9ZjUeOpPFnaZ1LV+K3E9KsPZcpKfUG+S8ZQaY8Q3JYeJgiRCI6t2QIdTM2o15jFtKBkJ/J08qUbCbvoqi6M2P11MZ+TYN0zWnYzIX02fIv6LOPp5P7Vxcps/7gbnkynfRxJlszPdI16UEjFx2jxHIiokpKubSBXLvxiW/lRtvPJ1JZ8kXaOKk78QU9afqOy5RaJS8f4ONMwi7G1MHCiTz23JAfqCMiehpB2yb2IBMTC3KYsYtCLq8ix95jad6mk3T7STJd2uBK3fh8snLbTucTnxKTfY6WDOlGxma9aMzCAxTysydZmdrQ5F1R1ESs6pu0bkQvsp/gSV9u2kJrFi0i3+t58kOdVE7JJ33I2daM9HRNqMfIRXRMLpAS5ZQc4EPOwi5k3MGCnDz20I26jqvtx7+CKez0Wppgzie+hSutP32HihgiYrI120OTjmRpdPQjIZl1EpLbnmgqJaLy5JPk42xLZnq6ZNJjJC06lkjljJjuqWq7LJkubpxE3fkCsnbbTr8mhNLagfrEM3Ukj5WrafXq1bT6y2U0b8w79NHpcvWyKeuYain260Gkaz6MZi78jJZ/8Rl9PN2dvrqY2fBDfbUZF2j9VEdyGDeLvP75Cc3x/obC8hkidX1tQjXdXDeCetlPIM8vN9GWNYtoke91qj+7/TRiG03sYUImFg40Y1cIXV7lSL3HzqNNJ28r1SWjtKMfkdCsEwnd9lB0XqM+ek7fQZdTq5o/U9p63yRN8hIRk32Upnczpc5dR9KWBMXjg1KKP7uOXLryqZ1wFu25nESpN/xpyQhT4hk60MLDESQSabZJeXIA+TgLqYtxB7Jw8qA9NwpIbvr6eLQmt+2/yuORainjwnqa6uhA42Z50T8/mUPe34RRPkNE0ng6u86FuvLbkXDWHrqclEo3/JfQCFMeGTospMMRIso+t4SGdDMms15jaOGBEPrZ04pMbSbTrqg8DflAoX1GQrd+8KRhVmZkau1EUz7fRAuG9aThHl/R0ahsDfVLtZc9Op26mXamriO3KOi3jtpY+nqQLpkPm0kLP1tOX3z2MU13/4ouZso0+2NtBl1YP5UcHcbRLK9/0idzvOmbsPy6XELESG7RD57DyMrMlKydptDnmxbQsJ7DyeOroxSVy2j2oyJGY+zL0o7SR0Iz6iR0oz3RpRptx4jv0em1E8iczycL1/V0+k4RyVOPZt9RSVUYLXOcQoeymwVlHbWUfv1HWjKqE/F4XWn8Kj/6v6gnJFOXm+pKqfZTKd3/v9U0viuf2gndafelREoJP0JLR5oS38iRFvtHU45G/5dR2g+T6K1uk+lgetO3TZSnXCP/TVPJSqBD/G7OtOrgJUpQJXQLbKR6DGyB/TWUbUB6n/5v9Xh53LnvpkuJKRR+ZCmNNOWTkeNi8o/O0RwX5X/QhW0f09h3x9A0z89oidentPXiI4UftFM95qnzGbVI/ksLJm+h+4rpS+3Y9i8KDjtNayeYE59vQa7rT9Md+YBEyRc30qTufBJYu9H2X1M11LGLogo0jeWNaJ3HqNGBqnmM4pjZOEaonw8QPaWIbROph4kJWTjMoF0hl2mVY28aO28Tnbz9pHn9bSDv60j9gXMdW1tbkq+qWTAMg6ysLOX1CcdfAFncBjgNP48pkXex1UHDx1wcHE2QIW6DE4afn4LIu1vBuU5LqEHEuk9xd6EfltZvW+BoW2oisO7Tu9jx09Km12Vx2OA0HOenROLuVoc36gBnW8NmHYTn9i74zu8D1H0vysHxSsPNY159evToAT6f34a7hTjeDFR/J83BoRXOdVoCC3HkIVzq9DHmcguPFwMrRuShS+j08VzlOwpw3qoaBmXFElSxZYg8cBXmH7/PLTw4Xj+48H7l4RYfHAAAWXExnjIlEEuUfyuXg0MTMhQXPwVTIgbnOtphJQmIYydj04px3KTuhcBCkhAHdvImrBinQsOyYhQ/ZVAiljT7VXAOQBa/HePMu6Jrt3ewpHgulo9syXtoOTheDbh5zOsDv2PHjpuICPV/y5cvV36G4w2nOu0qjv9WgLcH90P74ixQ94GwMeM+leXQRjXSrh7HbwVvY3C/9ijOInQfaAPOddSjY9ANNj1Mue0+LwwdGHSzQQ9TFRquTsPV47+h4O3B6Ne+GFnUHQNtzFS+4eqvCq+TNaw6dULfD9bj36ud8Rb38STHawI3j3k92Lt3L3g8HrgzHxwcHBwcHBwcHBwcLxTuzAcHBwcHBwcHBwcHx0uFW3xwqKcqGwkP8tv07FZ5Zizui5r8AsMbR1V2Ah7kt6XW3gRYlKYnIE36LHp5nrIvF7YkA3ciopCY9xw+Xp6J+JTCNo27lsCWpiMhTdrQ7vPE6vOU5eDg4OB4s+EWHxzNYaWIPfkFXGxtMW5bRNsdzGQzcGjucIzwOo68lz2zahEl+N8/B8Fu0nZElyrf0w4rjcXJL1xgazsO2yLaTGuvPYzod+zxHIKe/dxxKEXbr1g15XnKvlwYPA78Et47LyLq/FdwFQ7AxyceKz+kGbYA0Ud8MNa2D97bFd12cacNRoTf93hiSM9+cD+UIv8hsOeJ1ecpy8HBwcHxxsMtPjiawzOFg8dyTBNSwy8ttwk8ayz6OQqRh+eh26vgeWwh7t55hIYfkS8Lwf9umMN71woMM1bzjAZ4pg7wWD4NQmpTrb328C2d4eM1Fp2eQS/PU/ZlwuafworlSXh3pQ98dgbi51XDYCyr+6XhlsLrimGeyzC5l/KNFwzfEs4+XhjbSSHeWxWrLArv3sGj+iBpVdk6WhFnHBwcHByvNy0dGjj+avBMYGyko3z1uTGycsAgy1fj9Y3lMd9hw7GH8k96AdQkizH4uxPwGdDYP+VntMEzMcYLUNtrD9/UFCbPqJfnKfuyqIm+hohyI5joA+B1gsvXJ3Bg/jvKj2mHb/xC4k4rfFOYKim5xbFaHoPvNhzDQ4UgaXHZOlobZxwcHBwcry/c4uMVpaYgBVGhoYhJkzT7NJCRpOPOjXBEpxQ025pRnpWAVDEL1OQjKTISyQXah/OKnATcDA3H3cxShX3mPOhonQNVQBT/APkswEjTcScyFlnldbdq8pEcGYH7OUr7vquyEZ+cp9AOC+mjGITdiENWiRg5ufUVPEPdAMBIkH7nBsKjU1CgrJwGWBRG78O8j/fgVkYcfgsOQWIhC90hC7DonTyk5rMqnrmOkN+vIDgoCME3UiBlASbnLq4EBSHoSjQeV9RVzdOBKrVpsplmWJQ+TkJ6KQtGkobo8BikSZU9Qp0NgYqsBKQUMqjKuY9bKcWNvtQiPdVRkYWElEIwVTm4fysFxY2VQJJ+BzfCo5GishIZitNuISw8FqJK5XuATPwQMSHXEXo7Hc1Fetay6vxJNer01vI4qkbWrSv4LfoRSpgiJF8LwpXINDTs2qvIQcLNUITfzUSp8hakmgKkRIUiNCYNkgYZdBTirgZ5iTcRmVzQbFLeVvLLitNwKywcsaqUrByrrBSPYsJwIy4LJeIc5JYDbGE09s37GHtuZSDut2CEJNadVVEui3JkJaRCrtIkREYmQ65S5TiTxyIAQCbGw5gQXA+9jXQlB2GljxATdgNxWSUQ5+RCs5QcHBwcHK8S3OLjVYMtROj2ufD89zVkFsRj/1QhnHzOI5cFACmiv/WE+5pAJGSl4sKK0ejrugUhhSzYwls4vmw8bIWT4Hv6CBa5vg+POe/DfoAb/NKazezksLkI3uqFFX5hiL99BitGCTFm/TWIlSdJzWBRfOckVkwQovfYTQg8uxGzZ3nikw+Gw27YCgTfOYFPJ0/H/MUzMMxuNDZGVQCsBLGnv8R7tr0wZnM45MuGGsTv84TPKRFkVcnwnz0MH/6UjoLW1l2HNPpbeLqvQWBCFlIvrMDovq7YEqLi4C4rRY7YAGbtWbDV5ZBKS1BWFIvTX74H215j5ec1mj1Tinbd3kb+z4swzesIkmUAv6Mluqbuw+ypXyAwR42ONdhMG4woHPsXDoFVXw/sD9iM9wYPxcQJw2EndMaWmyXyh9TYsDAvGv5Lx8NWOBGbDu7Eh6NGYPiQ+Tghbo2eChDtvxTjbYWYuOkgdn44CiOGD8F8eSX41tMdawITkJV6AStG94XrlhA0iFWRgENzXLHwSByy0y5inY8fHiosWtJPzsOwD77D/aI8RPq6QjhqMxpM+cxlVflTRrOJO6BBb/mtjSNCTXkJpOW1ANWivEQK6dMqMCyL3OCt8Frhh7D42zizYhSEY9bjmrhuYRu6HXM9/41rmQWI3z8VQicfnJcHuZyax/hl+UzM9l6EaQ4DMP1w/ZakNpIfFUg4NAeuC48gLjsNF9f5wK9eyapitSYe+zx9cEokQ1WyP2YP+xA/ZdRAmiOGgVl7sGw1yqVSlJQVKZVlUXjrOJaNt4Vwki9OH1kE1/c9MOd9ewxw80NarXKclaBCBjDpJzFv2Af47n4R8iJ94Sochc11DlITvw+ePqcgklUh2X82hn34EzJUC8nBwcHB8Spia2tLNjY2ZG1tTZaWlsTxZ8JQ7il3snX9gTIZIqJaStw9ljp2n0fnyogklxeT0G4ZhVXWPV4eQSvsdMl81i+UxxDJHu2mkbom5LT0PKVXE5H0PzS7qx6N2v2IZE0bIiKG8k/PpvFroqm67v+Ze8eSbjsH2hBbS0RP6egUfTLz+A/VN9cUhnK+dyE9w2G0NiyXZERUfe9rsm/XgYav/o2e1BJRbSx9ba9HNj4hVEVExOTSDy56ZDLzDJUTEVVH0sr+9rQ6Wt4CkxdA2/YnUe2z1C25TIuFdrSsUTkUscKOdM1n0S95TGO362Fy6HsXfbJYeFlenoiY3B/IRc+MPP5TV0ezZ2SUvG0I6fdZSTflSqPqmyupj8Fw+tcfdRp+epSm6DfWoc1m2qiOXEl92pmT88ZgelJLVJ58mKZb8EnXcRPdr9VsQyZzL43TNaABS3+jAkkSXQu+T2Jxa/WUSXvH6ZLBgKX0W4GEkq4F032xmC4vFpLdsrAG3yiPWEF2uuY065c8YqicIlYNJJv550lSd7/s0gKyaPcOrYqqJpI9oB1DDclxcwLVElHtrbXUX9++zu+eo6xaf1JGs95aF0dyyn+eRvqm7hRYLv8/k3+aZo9fQ9F1fsJk7qWxuu3IYUMsVeeeIndbV/pBHuRUm7ibxnbsTvPOlRFRAR101Sfj4esprIAholL63zxz0h/7DWUw1EbyE5VHrKKBNvPpfKOSaYFFO3pnVZRcJ0qxWh25kvrbryZ51QzlBWyj/Um1DXlA32IhXW4MpKZxTjJ6tHsk6Zo40dLz6SRX6WzqqjeKdj+SqYyzBzuGkqHjZkqQC0lr++uT/YZYqqVqilzZn+xXR8t9j8mjgG37KUmVkBwcHBwcrxSWlpZkbW1N3DcfrxQSBJ0Ohp6DU91BTQH6rQyFOPsY3IyKcfHwLxDZDoJD/VZqw6FwdxOi6NIpBEkBfvv2MOIbw97VFT11ARgJ0duShxJpsYqD4xUIPReM7IeXsMfXF76+OxFQ6YpNW+bC0UD5WVXw0N7IEDq6PTHYqRv4AHSFtrASAJaDR8JCAEBgDavuOiiRSOTt84xh3F5hU5LAAkKrTHwzdQzm7TiLpHbuWP95Xwieoe7ii4fxi8gWgxqVg6HubhAWXcKpIGljmxrgGRujfZtGhHabaYNnYAB9fheMmOYCCwFgaOeJzV72oIQwhOWXabQhz8AAujwTOLmMRhfTvnBxHQj82ko98QxgoMuDiZMLRncxRV8XVwzErzj8iwi2gxzQKJY73IRFuHQqCNKyYBw4lo4B48bDtO6+fk9rmNf/2CxfCO/j4QjwsYYo1B87j0ZDwlajsooFnqesWn9SRrPvty6OVFMReg7B2Q9xaY8vfH19sTOgEq6btmCuowEkQacRrOcAp7rT2IJ+KxEqzsYxN6OG8obvDMWQLjwA+ujRoysglUDCtpX8ZQg+cAzpA8ZhfKOSYd2g5OaxKrAQwirzG0wdMw87ziahnft6fN63ec1A87IAH+3bG4FvbA9X156Qq7Q3LHklkBar0igfQu/jCA/wgbUoFP47jyJawqK6sgosBLAQWiHzm6kYM28Hzia1g/v6z6GuKxwcHBwcrx5tOtXieE4YMQqKqiAtrpusN7mXj6wnFWBrauq2LAGAANZWFuDVSCF5ygI6SucNdPjg6wDENqsNYEtRKK6Enp0bVq1di7X1f2uWYWqflo3kOsqHQnR40GnScx3weEDji4p0mpbh9cCCE1dx0N0YYdtnYnCfEVh6LgtMq+tmkJ/1BBVsDWoUjoEIrK1gwauBVPK0+ZYiVSjr73lpic1ajQC9+vWGEWpRXflUqw2byvOMelJSCpOfhScVLGqaVgIrCx5qpBJIMlPwhxTgC9SlFx4ElXHY5+UN/5xB+MTbGeY8uW0Z0bOX1eRPTdDm+8p+oCmOVMKitFCMSj07uK1SqH/tGiybaouSgiJUSYshaWF1fB4fYGSoBdpGfkaEFLmSNQwATWOV12MBTlw9CHfjMGyfORh9RizFuaxmNdehFOcq4lmHz4cOCOpUyhNUIm6fF7z9czDoE284m/Pqop+HHgtO4OpBdxiHbcfMwX0wYuk5qO0KBwcHB8crh/qxh+Plw38LPSwMkB90BleK6y+yEAf5ISDtLfTuZQIm6Q7uNhxzYFFTXQPe24PgYN5KU/JM0N3cECmBR3Bd0niZSQ/Cr/EvaQM1I0LiE0t47ruOlKSLWDcwCwd8tuNaK99QCvDRvXcvmDBJuNOoHLA11ajhvY1BDuZt5uh8AR8gVmlxSCBVkx9+9zayGYEUVgW1FVVgu9qh/9tmrbRh2+iJ3703epkwSLpzF41i1aC6hoe3Bzmge+fO6CioQuLdODQ1JYFlAZRdxvJp6yCe8T22ejiia/1alwCdjs9etsX+9MJ9nweT7uYwTAnEkaYNIOjXJHTqYQGD/CCcaQxysOIg+AWkNl8oKNMW8ut0ROeOAlQl3kWc0j1iVS4/wYgS8cTSE/uupyDp4joMzDoAn+3XlGzUVpTh8vJpWCeege+3esCxqZAQJT6Bpec+XE9JwsV1A5F1wAfbmwnJwcHBwfGq0pK5BsdLowMmzZ8Jy7wTWPyPZfgx8L8I2PMZPAMFGGHbEZOXeGOA5Cz2+qfK35jE5uFqqAgjl3yK0XoAyzCQEavwCS2BQGBZVsUn2kaYON8DPTP84D5uNrb8FIizx32xcHUkjGwEABgwjHwy0rysHIZlAVK8T/I2G2bm8n+zbP2UigXDUuMEhxEhcJcf7lUA+tZ/x7qvZ8DaUA/6Oq2vu8PkJfAeIMHZvf5IlSsHeVdDIRq5BJ+O1muopQGePvT1gKe5OSgujEFEfAXAMmBBYOtn+s2eqUZXi27QzY7Gb/fyUfDgVxw4dhNiWSFEj4tQWgWAYcDU6RzooNVmFbf3Y97kj7DlSq5SBxVgC5GZUVb37xxcuBCP/t6fwllfmw0Bggy1CvPpVusJctXLmlaCJd4DIDm7F/7ySsDmXUWoaCSWfDoaBl2mYM7kzkg/shzrLmWhBtXIvJeIAkaC7Mw8SPIeIT2/DFmpj1FWJULYxSjkMhUoyY3D7XznZy4bE5+q1p+aollvrYsjOTU1taCaGlTXPWA0cT48embAz30cZm/5CYFnj8N34WpEGtmg06T5mGmZhxOL/4FlPwbivwF78JlnIAQjbMFnWchdX+krgbrrbEkbyM/rgilzJqNz+hEsX3cJWTVAdeY9JBYwkGRnIq+kolmsMqJA7PK7hwrow/rv6/D1DGsY6ulDBzzoy4MEOcWFiImIR4VynIMFw8hArMI3HUTy+GbZ5nEWl4dH6fkoy0rF47IqiMIuIiqXQUVJLuJi4iEK3AU/uZD4+7qvMcPaEHr6OgArxtXN7vhoWwgUlnwcHBwcHK8a3IHzV41ySg7wIWdhFzLuYEFOHnvoRkH9QeBayriwnqY6OtC4WV70z0/mkPc3YZTPEJE0ns6uc6Gu/HYknLWHLiel0g3/JTTClEeGDgvpcES2Ujskb+ukDznbmpGergn1GLmIjiWWE1ElpVzaQK7d+MS3cqPt5xOVC1JZ8gXaOMmC+AIb+mDnRUrIjKP/bp1KPfgCspnuS/+7/5juBG6gv1vwSdBzOvkGxVPcxY00qTufBNZutP3XVKLqm7RuRC+yn+BJX27aQmsWLSLf63n0tNV1p1E1EdVmXKD1Ux3JYdws8vrnJzTH+xsKy1dxiJqIiGSUdvQjEpp1IqHbHorOS6aLGydRd76Aek7fQZdTq5o/U0pETyNo28QeZGJiQQ4zdlHI5VXk2Hsszdt0km4/SaZLG1ypG59PVm7b6XziU802I4ayj06nbqadqevILcodJCKi2tivaZCuOQ2buZA+W/4FffbxdHL/6iJlNpx8Vm1DRnyPTq+dQOZ8Plm4rqfTd4qowYtaqidGTPdOr6UJ5nziW7jS+tN3qKixErqwfio5OoyjWV7/pE/meNM3YfkNbTCSW/SD5zCyMjMla6cp9PmmBTSs53Dy+OooRWWL6NySIdTN2Ix6jVlIB0J+Jk8rU7KZvIuipM9RtkC1P6mQTK3eWh9HtZR+/UdaMqoT8XhdafwqP/q/qCckI6Ly5JPk42xLZnq6ZNJjJC06llh3AJuoPDmAfJyF1MW4A1k4edCeGwXEkJTu/99qGt+VT+2E7rT7UiKlhB+hpSNNiW/kSIv9oymvNrtt5GckdOsHTxpmZUam1k405fNNtGBYTxru8RUdjXpEyUqxWn1zHY3oZU8TPL+kTVvW0KJFvnS97gUFsrSj9JHQjDoJ3WhPdF6zstL4s7TOpSvx2wlp1p7LlJR6g/yXjCBTniE5LDxMEdk1SnHGUPa5JTSkmzGZ9RpDCw+E0M+eVmRqM5l2RRXQzXUjqJf9BPL8chNtWbOIFvlel7+8QZZGP0x6i7pNPkjp6t4MwMHBwcHxp1F/4FzH1taWWFb+CRTDMMjKylJen3BwcLxIaiKw7tO72PHTUuU7kMVtgNPw85gSeRdbHVp2FoeDg4ODg4OD41WjR48e4PP53LYrDo4/FVaMyEOX0Onjucp3mqJuvw8HBwcHBwcHx2sEt/jg4PjTYCFJiAM7eRNWjDNTvgkAkBUX4ylTArFE1S+Ic3BwcHBwcHC8XnCLDw6OPw0ezAa5YJR1/a9lNKU67SqOx5jB/YuP0OnOCVxP5xYgHBwcHBwcHK833JkPDg4ODg4ODg4ODo4XCnfmg4ODg4ODg4ODg4PjpcItPjg4ODg4ODg4ODg4Xgrc4oPjlaQqOwEP8l/cK55edP1tB4vS9ASkSV+HvqqmPDMW90VVypdVU56J2PsitPDpV5ZWyfxXh5FCUvIn+TcjwcOExyhXvv468rJjpyobCQ/yG1/Ep7X958tlbGk6EtKkr+yL/9gSCaT1v6f7XFQhO+EBXovhSRtsKdIT0vCMJteMsv+9SXr7C8AtPl4lmAyEn/gGn08bg1Gj/46PFnvD21v+5zXvH3hv/Mc4kKzwS9NvIKw0Fie/cIGt7Thsi2g8YF3yv39ikN0kbI8ubfJ8a1FX/6sII/odezyHoGc/dxxKeU3tzmbg0NzhGOF1HHlaBwUWGYfmYvgILxzX/vCrS6tk/mtTnXYO3+y+iD9eunszyPx9D+YO7omBCwKQ2SaTxj+Tlxg7rBSxJ7+Ai60txm2LgDyLam7/uXIZI8LvezwxpGc/uB9KQStLvzyqEnBqw3acfVStfKeFsJDGnsQXLrawHbcNr/jwpAUGot/3wHNIT/RzP4TWmlwjzfzvTdLbXwdu8fEqwbfGmDmf4cMeTxB9WwDXfx/EwYPyv8PHT+M7N31kF772o6RGeKYO8Fg+DUIihatlCPnfDZh778KKYcYK11uP6vpfTfiWzvDxGotOr0FfG2FRePcOHtW7Kc8ai36OQuTheeimNdvwYL3oZ0RFHsY87Q+/urRK5pcIW4i7dx7hVckgTMYpfL7xIZyXzcGQTi9bUXxYOX+O+aPNgNcpvNTyEmOHZwoHj+WYJiQF1Wlu/7lyGd8Szj5eGNtJsb1XD95bY/DpqhG4veIznMl6lijjwdTBA8unCfEsanq14MPS2QdeYzu1vSzN/O9N0ttfh+ZZguNPho/2HdqrMIwe+sz5HNPffvN/5ZpnYgwjHYULNckQD/4OJ3wGQPVLaVtHs/pfYfimpjB5TfoKACiPwXcbjuGhwiddRlYOGGTZQssZWcFhkGWb2PnPpFUyvyTKY77DhmMPX41Pjpl0HPbZDXzkDfs/TU18GBkbqci1rykvM3Z4JjBWTqJa2n+uXMY3hekzF36JmI7Hlx9XY+vnR/D4WdYf4MHE2AivgaQtgA9TU5MXI0sz/3uT9PbX4I3Juy+VqgyEHtuNTZt2wv/3dFQo338RVCQgPr8/HHvxGy6VZyUgVcwCNflIioxEcoHqaQWbG4erwUEICr6BFCkLMDm4eyUIQUFXEP24sfda65OJ8TAmBNdDbyNdy+ZWtvQxktJLwTISpEWHIyZNquIT1wrkJNxEaPhdZJYqfFXP02maRHSHYMGid5CXqri/EwBqUJAShdDQGKRJGAAscuOuIjgoCME3UiAX9S6uBAUh6Eo0GkRVrh9tJBubi7irwQgKCsaNFClYMMi5ewVBQUG4Ev1YyU/UyA4AkKE47RbCwmMhqlS6BWgoW46shFTITZiEyMhkKJuwKSxKHychvZQFI0lDdHgM0pRl16SXiiwkpBSCqcrB/VspKMqLxr55H2PPrQzE/RaMkMRCub2qshGfnNfUdjUFSIkKRWhMGiRNqq1Cdnyywnal5+tjRVYCUgoZVOXcx62UYiUfZFH8IBzBQUEICgpCcEQqSlgApWm4eSUIQcERSK3brCwTP0RMyHWE3k5X2tddgayEFBQyVci5fwspxXU3VcnMSJB+5wbCo1NQoLw1gJXiUUwYbsRloUScg1xNhxA0yAuo0i2Lwuh9mPfxHtzKiMNvwSFILKzvGQNJ+h3cCI9GSrNOqZENQEVOAm6GhuNuZmkTGVnpI8SE3UBcVgnEOblqz1KUXduF3XGOcHPu0OS61hwEgJGk486NcESnFNRt+WmkQhQvP8vFSJF+JxKxWfU9qEF+ciQi7uc0OZOgo1OXCUiGwgfRiE7Ka3pmQcnHG1WgLga1o1XGVtu3HuXYgRb7as8X6v2eh3rVNaKqfc25TH39dfeL03ArLByxqgprQaMvVuQg4WYowu9mot58ZY8i5WNFUBCCQxNRWC3C7bpx8naWou406RToOOkDDL6zC7tD1Hk/AMggfhiDkOuhuJ3edGzkNVcsgCrkJt5EWEQcMhvOR7VwvGuBnTXLxEL6KAZhN+KQVSJGjsbkBEBWjLRbYQiPFUGl1VToXj3q4qy5/6nWWxvKpTbutOT2ChHiH+SDBQNp+h1ExmY1+GJNfjIiI+4jR8VBKU157k2AW3y0lvJb2OHqCJdPvsTmzWuwYKITJm6JRJnyc22JrAQPTn+Hkw/qdtcW3sLxZeNhK5wE39NHsMj1fXjMeR/2A9zgl6YcFQCvYw+8nf8zFk3zwpFkGcDvCMuuqdg3eyq+CMxBbQvqY9JPYt6wD/Dd/SLkRfrCVTgKm6NULLsYEcL3L8QQq77w2B+Aze8NxtCJEzDcTgjnLTdRUvcYmxuMrV4r4BcWj9tnVmCUcAzWXxM3P0zIShB7+ku8Z9sLYxv2FwNsYSi2z/XEv69loiB+P6YKneBzPh+mPd5G/s+LMM3rCOSiWqJr6j7MnvoFAnOa6wZtKRuvI3q8nY+fF02D15FkyMBHR8uuSN03G1O/CER98xplr0jAoTmuWHgkDtlpF7HOxw8PFbqtumwh8m8dx7LxthBO8sXpI4vg+r4H5rxvjwFuflDhEmBE4di/cAis+npgf8BmvDd4KCZOGA47oTO23JRbSa1e2AJE+y/FeFshJm46iJ0fjsKI4e9izqHHMDBrD5atRrlUipKyogbbjdkcXjepY1EYuh1zPf+Na5kFiN8/FUInH5zPlUESexpfvmeLXmM2I7zq+frIFkTDf+l42AonYtPBnfhw1AgMHzIfJ8SKWuDBqJMeUn5cgCnTtuOeaXcY8QAYvoX2t/Zizx0BOhoS0k/Ow7APvsP9ojxE+rpCOGozoipYFET7Y+l4WwgnbsLBnR9i1IjhGOJ5ECHNZAak0d/C030NAhOykHphBUb3dcWWkLrFWU089nn64JRIhqpkf8we9iF+ymg2OwA0yCtHjW6zi5EjNoBZexZsdTmk0hJUyABIo/GtpzvWBCYgK/UCVozuC9ctIShk1cg2/wTEbC6Ct3phhV8Y4m+fwYpRQoxZf00+sYnfB0+fUxDJqpDsPxvDPvwJqsUoxdWA/yG337t4t+5j8pblNCmiv/WE+5pAJGSl4sKK0ejrugUhhSzY4js4uWIChL3HYlPgWWycPQuen3yA4XbDsCL4Dk58OhnT5y/GjGF2GL0xqukHAZSPX31GwGGEC0YNsIbdtO9w56kqHx+C+SfEamJQRe5SoiUyPpN9VcQOoNm+hVrzBaPG7+ulUYRV3b7GXKat/gokHJoD14VHEJedhovrfOCnmAi1oN4XWeQGb4XXCj+Exd/GmRWjIByzHtfELAw6d4UsYgdmT56GjeEE43aGyAxYge0hVTAzq9txoFanCo0bOMLxnWycC7iuevHNpOPkvGH44Lv7KMqLhK+rEKM2K/mkIiVR2OU2BRuja6FX8is+G2aHd8e/h/c/2IH4zprGu9oW2FmbTDWI3+cJn1MiyKqS4T97GD78KUPtt6cVCYcwx3UhjsRlI+3iOvj4PVRYWKnXvSqeNc4aaDO51MWdvCdqcztbjDsnV2CCsDfGbgrE2Y2zMcvzE3ww3A7DVgTjzolPMXn6fCyeMQx2ozcq+L76PPdGYWtrSzY2NmRtbU2WlpbEoQmG8n6aTMY6IMh3ChMA0jF6j358wig//IzU0u31A6idoCdNWLCYFi9eTIsXepBzbwvy+L/yhqdkj3bTSF0Tclp6ntKriUj6H5rdVY9G7X5Esib11T2fvI2G6PehlTer5Reqb9LKPgY0/F9/kExrfTJ6sGMoGTpupoRaIqq9RWv765P9hliqVW6IiKg6klb2aUfmzhsp+EktUXkyHZ5uQXxdR9p0v5aIyafTs8fTmui6vjCZtHesLrVz2ECxtUT09ChN0Tcjj/9U1t3PpR9c9MjM4z9UWff/U+625PpDJjFERLWJtHtsR+o+7xyVkYyStw0h/T4rqVHUldTHYDj96486zTSpv41lkyXTtiH61GflTZI3X003V/Yhg+H/oj9kpEX2copYNZBs5p8nSV1zZZcWkEW7d2hVVLWWsjJ6tHsk6Zo40dLz6SQ34WzqqjeKdj9S5RFE1ZErqU87c3LeGExyUQ7TdAs+6Tpuovu1WvTCZNLecbpkMGAp/VYgoaRrwXRfXEs537uQvsVCulxV10id7UxmnqFyImJyT5G7rSv9kCmPl9rE3TS2Y3ead66MiBjK/cGF9Exm0pk6V3+ePjKZe2mcrgENWPobFUiS6FrwfRKrCNPahK30roEFzT8vlV9gcujoZ6soqJSIZA9ox1BDctycQPIm1lJ/fXvaEFtLRAxl7h1HugYDaOlvBSRJukbB98XEKMlMksu0WGhHy8Lq/JnKKWKFHemaz6Jf8hiqjlxJ/e1XU7TcuSkvYBvtT1LlfVrk1aRbJoe+d9Eni4WXSW4aCV1eLCS7ZWHymCKi8ogVZKdrTrN+ySNGpWyFlHt6No1fE13n2wxl7h1Luu0caENsOUWu7E/2q6PrYjSPArbtJ5ViVN+kFX3a0duLguv6IkdzDiKSXF5MQrtl1KjGCFphp0vms36hPIaIyfmeXPQMadjaMMqVEVH1Pfravh11GL6afntSS0S1FPu1PenZ+FBIFRFRLd1a2590LabSvltiklEZJRyeQdbt9MhpSzzVqvLxwlwNMaggjBo0y/gc9m0WO9rsqyVfaPR7IqKndHSKfmNObta+llympf7yiFU00GY+nW8sTAss2tE7q6LqfE8T1Wp9kck/TbPHr6FG8+2lsbrtyKE+r8kek79bN9Lt7U0XIvbQvE8DqXFo16bTeirp3JzO1O6dVRSporOyBztoqKEjbZYbmW6t7U/69o3+8/ToFNI38yD58FdLCVvfpfZOWylJJv//va8Gkl6vJRRaTURaxzstdtYmU3UkrexvT6vlyYmYvADatj9J9dhYHkGrBtrQ/Eaj0aUFFtTunVUkH7606F4RjWMdqfA/Zb21nVwa405LbpfnXT0yHLaWwuRJie59bU/tOgyn1b89kft+7Ndkr2dDPvKkpDXPve5YWlqStbU1cd98tAoWuZkiVCkdaqJqETKeqF4zPzP8/pi9t+7A+eEAXDmzHAMVjnvw27eHEd8Y9q6u6KkLwEiI3pY8lEiLn+lQnub6+BB6H0d4gA+sRaHw33kU0RIW1ZVVqj+F4BnAQJ+PLiOmwcVCABjawXOzF+wpAWFh+WArQnEuOBsPL+2Br68vfHcGoNJ1E7bMdYSBcl0AwDOGcXsFV5UE4XSwHhycusm/uhP0w8pQMbKPucFIoVjLaGPZlJ9XRpPsZcE4cCwdA8aNh2nd4/o9rWFev9NOU1nw0b69EfjG9nB17Qm5CXvDklcCabFqj+AZGECf3wUjprlALoonNnvZgxLCEJavo1kvPAMY6PJg4uSC0V1M0dfFFQM7qkgnPGMYt2/8OlwSdBrBeg5wqjuUKui3EqHibBxzMwLAg7Fx+yZb4p6njzwDA+jyTODkMhpdTPvCxXUgVHVR0HcBvCdU4JxfILJZgHl4GjFvzYRzewB8IbyPhyPAxxqiUH/sPBoNCVuNyioWAA8GBrrgmTjBZXQXmPZ1gevAjuApyVx88TB+EdlikEP9bnhDDHV3g7DoEk4FSSGwEMIq8xtMHTMPO84moZ37enzeV9XZLs2+qlm3ShRfxOFfRLAd5NCwR99wqDvchEW4dCoIUpWy6SP8XDCyH17CHl9f+PruREClKzZtmQtHAwEshFbI/GYqxszbgbNJ7eC+/nOoFEMmgigXaN+hQxNba85Bxbh4+BeIbAehUY1D4e4mRNGlUwiSArz2RjDU0UXPwU7oxgegK4StlQCwHIyRFgIAAlhbdYdOiQQShZDgm78Ll8EdwYcR+n+yB1+M0kFC+A0UQYWP64driEHtaJbxeeyrFDta7aslX2j0e1Uota8tl2msvwzBB44hfcA4jG8sDOuGwtpQ74sVoecQnP0Ql/b4wtfXFzsDKuG6aQvmOtZZj2+Neft2Y2r5EXh4peHDrTNgUZ8ztOq0Hh2YdjAG5WQgS8W0gC/0xvHwAPhYixDqvxNHoyVgqyuhWrUyZKSLUNOwVViAnj0tgZwMZKjc06SMFjtrk0lgAaFVJr6ZOgbzdpxFUjt3rP+8L1SFdVnwARxLH4BxjUZDT2tzNA5fWnSviMaxrgW0oVya4k5bbgevPYwMdaDbczCc5EkJQlsrCGCJwSMtIAAgsLZCd50SSCQEtCDPvSmoGIo51COA7RBHdFXKgbzOjhjaR7fpxTZGMPBjzB2pcJRPR+ncgg4ffB2AWNUTTa1oqY8nqETcPi94++dg0CfecDbntWqRI+jVD72NgNrqajClhRBX6sHObRXWrl3b8Ldm2VT0URX90Gmyv5MRF6CoSopixRnEc9CWsmkrx2qQ3TY3BX9IAb5AdVhqKttHoLB/vQ4dPh86ILTcJQTo1a83jFCL6mrSrhdVW2yboaPQLwbigiJUSYubTP4U0VH2w2a0ro+a66qDZ46Z3h/AOMQPRxLLceuXR+g/2wHyiOZBUBmHfV7e8M8ZhE+8nWHO09ZCU5nzs56ggq1BjcK+XoG1FSx4NZBKngI9FuDE1YNwNw7D9pmD0WfEUpxT87Yc9fJq160iTH4WnlSwqGnaKVhZ8FAjleApi+aysaUoFFdCz84NqxT8b+2aZZjaRxc9FpzA1YPuMA7bjpmD+2DE0nNQKQbVoraW6r44VkDZ9oo5iMlH1pMKsDU1CmcyBLC2sgCvRgrJU7Z5eeiAp9O0FR0eDxpficPrApueptBhZKiFKhVojkGtKPexxXlWu30VY6cl9tWcL7T5fXOatC/SnMs01s+IkCIv/IwTFJ4aX2RRWihGpZ4d3FYp+O/aNVg2tU/DxJNnMQmzXC3ApIfgt3uNs72W6FSODtrptgNYVvWHUTwBKuP2wcvbHzmDPoG3sznUq1YXQye/h7dSr+PKYwZANR6kZMLMZQrGtld+VjWa7KxVJvTAghNXcdDdGGHbZ2JwnxFYei5LxflNBqKUPyAFH6pN3jLdNzz9nHHWlnKpjzvtuZ1VmrsAgE7zpAQe6t7c1ZI894ag0k041NP+79twcOkQdBLoANAB38wRnx38F9zqF/svCv5bMO9CeHzhHGKe5TXifAH4KiaiRM3DrTlluLx8GtaJZ+D7rR5w7Fof/c2isQlECoFSW4Eqtivs+ndHO5PuMDdMQeCR65A0PMAgPehXxKv4pEgZ/ls9YGGQj6AzV1Bcf5EVI8gvAKkMwBfwAWKVekdQLWrbysYHH/LmmykaDACeBtkTTDqjo6AKiXfj0NTEBJbVXLYlelMNoakoVWC72qF/98pn0otm+HirhwUM8oNw5kqD5cCKg+AXkKoi8dfz4vvY/j1veAqTcPSbLThdMhazbOo+YSi7jOXT1kE843ts9XBE65vgo3vvXjBhknDnbuOubramGjW8tzHIwRwkSsQTS0/su56CpIvrMDDrAHy2X1PyAWjx1dbplt+9N3qZMEi6c7dxrzlbg+oaHt4e5ABzVSMDzwTdzQ2REngE1xsdEEx6EH6Nr4Yo8QksPffhekoSLq4biKwDPth+rbkUEHTDW511UF5a3go1dkfvXiZgku6gUY0saqprwHt7EBxUdvhZqEBhUSV62A/GWyqqfDExWM+fbF9FntPvdTpqzmUa69fpiM4dBahKvIs4JfchtiWTL0aNL9bCpLs5DFMCcaSpAyPo1/i6/f4ssv+zFVfePYFj7pU4/OkaBBXL22y5TgkV5RXQ6fRWsw8qAaDs8nJMWyfGjO+3wsOxa8PEW7VqeejithcHPPVw/dut2LtnB84ZfImgEwthXVd368a7pmiViURIfGIJz33XkZJ0EesGZuGAz3Y0D2sddOzcEYKqRNxtbjSw4LVA9408b5y1nVya4i4Nb2nJ7drCrBkvLc/9+bw5krwseOaYvCcSj1KjERIShdT0GOybZtGGimQhq5GBwIBRSh7VKUew+WoNhHoAyzCQEaswySUQCKyaT1v4XS3QTTcb0b/dQ37BA/x64BhuimUoFD1GUWmV5vrYEjxKz0dZVioel1VBFHYRUbkMKkpyEReTqNRSPSwKMzPqDuKzyLlwAfH9vfGpsz5gNBHzPXoiw88d42ZvwU+BZ3HcdyFWRxrBRgCAYcDUtV1fF8PKJ/QsAHSYhPkzLZF3YjH+sexHBP43AHs+80SgYARs+Xx0tegG3exo/HYvHwUPfsWBYzchlhVC9LgIpVVK9be1bPyusOimi+zo33AvvwAPfj2AYzfFkBWK8LioFFUaZLc1n4I5kzsj/chyrLuUhRpUI/NeIgoYCbIz81Cio76sjYAFw8jkOmowIckTv6YBmy1EZkbd6xLYHFy4EI/+3p/CWbcFeiFAVqs4EvCgr68HPM1FTnEhYiLiUQEWDEsNk4YOk+ZjpmUeTiz+B5b9GIj/BuzBZ56BEIywBR8Ay7AgUvLh5+gjQYYmXVSHwAELFo2G+NRZ0JTJ6FR3mS15hPT8MmSlPkZZlQhhF6OQy1SgJDcOMYll9UpQGjyVZJ68BN4DJDi71x+pNfL7eVdDIRq5BJ+O1gMjCsQuv3uogD6s/74OX8+whqGevvKH7lp9VaNuefqQmyYHxYUxiMh0xhLvAZCc3Qt/eafA5l1FqGgklnw6GnqACtmMMHG+B3pm+MF93Gxs+SkQZ4/7YuHqSBjZ6EAUuAt+9yoAfWv8fd3XmGFtCD39ZlIA7QbhXXt9FIka3/oCaMtpHTB5iTcGSM5ir3+q/MUTbB6uhoowcsmnGK0HgGHB1k9uG2oASOGbDiICWLbJZJ0qSiCtm3RUJRzByUd/w9dLh8u/+VL2cQ3xayMAKm7vx7zJH2HLldzGMgpolPF57KscOx0ma7Gv5nyh3e/l4xMpjDeK7fO6aM5lkjwN9ScbYMqcyeicfgTL111CVg1QnXkPiQUMJNmZyCspwu398zD5oy24UnfotymMWl80mjgfHj0z4Oc+DrO3/ITAs8fhu3A1Io1sIABQ88APG28Mx8bFo/Dhv7/FrJqj+GzlBfmvZmvVaT0VyM6RQH+gEwa2U+gWAIBFyaN05JdlIfVxGapEYbgYlQumogS5cTFILAMYuWIb/FhyeS02iqbj2+1r4LN8M3ZtngP7hg87tY13mu2sVSZGhMBdfpCr8u9Y9/UMWBvqoXlY89BlyhxM7pyOI8vX4ZLcaLiXWABGko3MvBLoaNF9E7TEmSr/a6K3NpNL85jVUUtuBxiwrNKiWZ6UGheLRCCwYBkALclzbwrcgfNXCFk6/X54E/1DqEc6PDOyn75AfuB88WJa8PEk6texM30YICaSxtPZdS7Uld+OhLP20OWkVLrhv4RGmPLI0GEhHY7IVq6ZiJ5SxLaJ1MPEhCwcZtCukMu0yrE3jZ23iU6GhGupT0TZ55bQkG7GZNZrDC08EEI/e1qRqc1k2hVVd0hXkdpY+nqQLpkPm0kLP1tOX3z2MU13/4ouZiocfC5PppM+zmRrpke6Jj1o5KJjlFhORJUpdGmDK3Xj88nKbTudT8yl5IsbaVJ3Pgl6Tqcdl1Mbygf4OJOwizF1sHAijz03qKD+MNbTCNo2sQeZmFiQw4xdFHJ5FTn2HkvzNp2k20+SleqXtrlsTyO20cQeJmRi4UAzdoXQ5VWO1HvsPNp08jYVMRpkJyJGcot+8BxGVmamZO00hT7ftICG9RxOHl8dpahcRm1ZafxZWufSlfjthDRrz2VKSr1B/ktGkCnPkBwWHqaI7OYn1Wpjv6ZBuuY0bOZC+mz5F/TZx9PJ/auLJBeFUa+Xm4/p3um1NMGcT3wLV1p/+o5cLiKSpR2lj4Rm1EnoRnui8xptZ+1G23+V2648OYB8nIXUxbgDWTh50J4bBcQQUVnyRdo4qTvxBdbktv1XSq169j7+KziMTq+dQOZ8Plm4rqfTd4oUDoSqQfJfWjB5C91XPHXIZNO5JUOom7EZ9RqzkA6E/EyeVqZkM/lfFBx2mtZOMCc+34Jc15+mO0UMEZWplLk24wKtn+pIDuNmkdc/P6E53t9QWL68R9U319GIXvY0wfNL2rRlDS1a5EvXVZ4sVC9vva+q0y2RjNKOfkRCs04kdNtD0aVEVJtBF9ZPJUeHcTTL65/0yRxv+iYsnxhiSHxPlWxEROWUfNKHnG3NSE/XhHqMXETHEsvlL1ZYN4J62U8gzy830ZY1i2iR73U1ByQZyj06jToLl1F4/YHcFuW0Wsq4sJ6mOjrQuFle9M9P5pD3N2GUL3ceurBxElnwBWTzwU66mJBJcf/dSlN78ElgM518/3efHt8JpA1/tyC+oCdN9w2itGqi8j8u0LaPx9K7Y6aR52dLyOvTrXTxUSURI1br4+pikIih7KPTqZtpZ+o6ckujuPVolVF7nlVnX1Wxo96+LcgXIpEav99FUdJKSrm0gVy78Ylv5UbbzyeqbF9jLsvWVD8RMRK69YMnDbMyI1NrJ5ry+SZaMKwnDff4io7ejKWj07uRaeeuNHJLgrKWtfpiefJJ8nG2JTM9XTLpMZIWHUukciIqiztMH9l1oSFfBFOWjIjJvk5rRpiQDq8LjV52kmIljEadNjYfQV8IO9G0o7kqcw6TfY6WDOlGxma9aMzCAxTysydZmdrQ5F1RlJdyiTa4diM+34rctp+nxKcMZZ/6mKz0dAgA6ejwqJ2+CXXtPZa8TzyQH77XMN6FhP+fZjtna5Gp+iatG9GL7Cd40pebttCaRYvI97ri4XpFGJLc+oE8h1mRmak1OU35nDYtGEY9h3vQV0ejSD58qda9StTGWXP/q2ymN83+3zq51McdacztZZR8YSNNsuCTwOYD2nkxgTLj/ktbp/YgvsCGpvv+j+4/vkOBG/5OFnwB9ZzuS0Fp1Zrz3BtA/YFzHVtbW5J/6sKCYRhkZWUpr084OFqHLA4bnIbj/JRI3N3q0PxTjdeZN0g2WdwGOA0/jymRd7HV4dWU5HXoI8czUHEDK4cvh/6RaGxzesPsWhOBdZ/exY6flirf4WhDaiLW4dO7C/HTUhvlW38qsrgNGD6vEnujdmOUofLd1sIi+8IW+JX+A54OLIokJSirKIMk5z7OHM+FV9B+THyTPg3neOPp0aMH+Hx+G+4W4uBohqqvxN8U3iDZXgdRXoc+crQcw9H4et97uLf/F4jeJNuyYkQeuoROH89VvsPRhrDiSBy61Akfz321Fh5gC3D+wD1M2PdVGyw8ADb7BHyW3YfN3wbCpq89howcC+eJ7+ODGa5werdf3RYkDo7XD27xwdH2yIpR/JRBiVjy5v0y5xskm6y4GE+ZEoglr64kr0MfOZ6NDmO34uCHGfj+x5tQ8ztjrxksJAlxYCdvwopxZso3OdoKVoKEOBaTN63AK6VmVoJbR/Yh9f0fsG1sB+W7z4bAFN0MfsfSoc74eOl6bNm+DRu/XIw5//wvbBYtRC8VB9o5OF4HuG1XHG1LdRquHvs/hGeUQCYwhfW4mZjvYlP32tLXnDdItuq0qzj2f+HIKJFBYGqNcTPnw8Xm1ZLkdegjx/NTnXULCXCEUw9uJsXx+sJk3cEd6o+hVgqvxG8LqrMRc+kCQhNyUME3g9XgiZj2twHoxIULx2tI/bYrbvHBwcHBwcHBwcHBwfFC4c58cHBwcHBwcHBwcHC8VLjFBwcHBwcHBwcHBwfHS4FbfHC8OpRnIva+CFXK15+R8sxY3Be1VW1AVXYCHuS/ESdjOTg4ODg4ODj+FLjFB8crAouMQ3MxfIQXjue1wQSfzcChucMxwus4nrc6VhqLk1+4wNZ2HLZFcG9d4uDg4ODg4OB4VrjFx5sEW4i7dx6BUb7+WsCD9aKfERV5GPO6tYFb8qyx6OcoRB6eh+etjmfqAI/l0yAkUr7FwcHBwcHBwcHRCp5zWsbxKlEe8x02HHsImfKN1wUjKzgMskRbvajQyMoBgyzbpjaeiTGMdJSvcnBwcHBwcHBwtAZu8fEqIhPjYUwIrofeRrq0+fcYNQUpiAoNRUyapO5bDhaF0fsw7+M9uJURh9+CQ5BYWL/XiIEk/Q5uhEcjpUB5y1AFshJSUMhUIef+LaQUN7ZVkZOAm6HhuJtZ2uTHpVnpI8SE3UBcVgnEObkoV7jXCIvSx0lIL2XBSNIQHR6DNCU5KrISkFLIoCrnPm6lFNfJUYXs+OQm26TKsxKQKmaBmnwkRUYiuaD50qq5PuqoykZ8cl5j/9lSPE5KRynLQJIWjfCYNCirVyZ+iJiQ6wi9nd70Hk8HqtYez6cnDg4ODg4ODo6/Ftzi4xWDST+JecM+wHf3i5AX6QtX4ShsjqqQ32QLEbp9Ljz/fQ2ZBfHYP1UIJ5/zyJVJkSM2gFl7Fmx1OaTSElTIAEij8a2nO9YEJiAr9QJWjO4L1y0hKGRZFET7Y+l4WwgnbsLBnR9i1IjhGDL/BMRsLoK3emGFXxjib5/BilFCjFl/DWIWqInfB0+fUxDJqpDsPxvDPvwJGUprAUYUjv0Lh8Cqrwf2B2zGe4OHYuKE4bATOmPLzRKwBdHwXzoetsKJ2HRwJz4cNQLDh3jiYMhpfPmeLXqN2YzwKoAtvIXjy8bDVjgJvqePYJHr+/CY8z7sB7jBL61uVaBWHxLEnv4S79n2wpjN4agCA1H4fiwcYoW+HvsRsPk9DB46EROG20HovAU3SwCAQfrJeRj2wXe4X5SHSF9XCEdtRr3qm/GceuLg4ODg4ODg+Etia2tLNjY2ZG1tTZaWlsTxZyKjBzuGkqHjZkqoJaLaW7S2vz7Zb4ilWmIo95Q72br+QJkMEVEtJe4eSx27z6NzZUTE5ND3LvpksfAyVRERkYQuLxaS3bIwqqyrvTxiBdnpmtOsX/KIIYYy944jXYMBtPS3ApIkXaPg+4WUe3o2jV8TTdVERMRQ5t6xpNvOgTbEllPkyv5kvzpaXh+TRwHb9lNSbUPnG6iOXEl92pmT88ZgelJLVJ58mKZb8EnXcRPdryViMvfSOF0DGrD0NyqQJNG14PskZhjK/cGF9Exm0plyeT2yR7tppK4JOS09T+nVRCT9D83uqkejdj8imVZ95NIPLnpkMvMMyaurpsiVfaiduTNtDH5CtVROyYenkwVflxw33ada2QPaMdSQHDcnkFz1a6m/vj1tiK0T8OlRmqJvRh7/qSQihvLbQE8cHBwcHBwcHH8VLC0tydramrhvPl4p+BB6H0d4gA+sRaHw33kU0RIW1ZVVYCFB0Olg6Dk41R2gFqDfylCIs4/BzUi5HgDFF3H4FxFsBzk0nKEwHOoON2ERLp0KghQ8GBjogmfiBJfRXWDa1wWuA/URfi4Y2Q8vYY+vL3x9dyKg0hWbtsyFo4EAFkIrZH4zFWPm7cDZpHZwX/85+gqU2gXAMzCAPr8LRkxzgYUAMLTzxGYve1BCGMLyWfAMDKDLM4GTy2h0Me0LF9eB6Mjjwdi4fZOtTfz27WHEN4a9qyt66gIwEqK3JQ8l0mKQNn3wjGHcXrE2HgwM9MHvMgLTXCwggCHsPDfDy56QEBaGfB0hvI+HI8DHGqJQf+w8Gg0JW43KKlWvyqpAaBvoiYODg4ODg4Pjrwa3+HjF4AkqEbfPC97+ORj0iTeczXkgAGDEKCiqgrRYIv+/Fpj8LDypYFFTo/A7FwJrWFnwUCOV4CkLQPkUA1uKQnEl9OzcsGrtWqyt/1uzDFP76KLHghO4etAdxmHbMXNwH4xYeg5ZzY+kqECAXv16wwi1qK6W917V+QkdHaVzFc3+zwdfByCWWqAPHejoqGpFAUEv9OttBNRWo5p4EFTGYZ+XN/xzBuETb2eY81TX/OL0xMHBwcHBwcHxZsMtPl4pynB5+TSsE8/A91s94Ni1/uNyAvhvoYeFAfKDzuBKcf3zLMRBfghIbT6z5XfvjV4mDJLu3EXDsQW2BtU1PLw9yAHmqizPM0F3c0OkBB7BdUnjZSY9CL/GV0OU+ASWnvtwPSUJF9cNRNYBH2y/Vq1YgwIEUvjSoLaiCmxXO/Tvzld86NlppT4aIFI4GF6LiioWXe36o3vlZSyftg7iGd9jq4cjFFXfjDbVEwcHBwcHBwfHXwdVU1COPwu2BI/S81GWlYrHZVUQhV1EVC6DipJcxMWIMGn+TFjmncDifyzDj4H/RcCez+AZKMAIWz7A04e+HvA0NwfFhTGIyHTGEu8BkJzdC/9U+Vuu2LyrCBWNxJJPR0MPkM+sZbUKr+Y1wsT5HuiZ4Qf3cbOx5adAnD3ui4WrI2FkowNR4C743asA9K3x93VfY4a1IfT01Xy7wBYiM6Os7t85uHAhHv29P4Vz3R4wggy1SoewWYYFEduwOGAZBjJi5d90APIFDQgsy4JFB836AAuGJRDbdNsUW5iJxm5dwIX4/vD+1Bm6JY+Qnl+GrNTHKKsSIexiFHKZCpTkxiEmsQxgGDB1bT+znlgxrm52x0fbQqCwZuHg4ODg4ODg+MvA79ix4yYiQv3f8uXLlZ/heFnotIdlhyKEnPwRe/2vobDPx3hf7zr+F5KDHv+YD5fxf8d7vUpw+9Jp/PzLb0gznoyte/6JQe11AOiiQ+0DXPjJD8cSrPHhAhcMm/A3DCi/iu/+dQQhd28hOPgJ3t28H0scjSCJPYNvvjuBGymZkLDdYTeoL7ob6kC351hMsHmKuKv/xanT53Ez723M37MNbm/zILr+LTZ9cxaxjx8jISwKkuFrsNHDFk2OVgBg80Jw6KdYlDIZiIsKw+WAU7jfex38vhoDU2ksznzzHU7cSEGmhEV3u0Ho290QFQ8u4d/fHEJoaj5qDYQY3KcK4fu+hX/4AxQwHWDbtxPyLx/EwdNRSCkmdO/vhBEubmr0UYEHl/6Nbw6FIjW/FgbCwRjd2wx5IYfwU2wpmIw4RIVdRsCp++i9zg9fjekIfntLdCgKwckf98L/WiH6fPw+9K7/DyE5PfCPj7rj/v498AtNQW6NAWwG2GPA0Imt1xPl4sruDfg5ZyBmuzvBjFv6c3BwcHBwcPxF2Lt3L3g8HnRsbW2JZVmwLAuGYZCVlaX8LAdHq5DFbYDT8POYEnkXWx1elZPWMsRtcMLw81MQeXcrXplucXBwcHBwcHD8BejRowf4fD637YrjBaLqRVGvAK9otzg4ODg4ODg43ni4xQdHmyMrLsZTpgRiifIvqv+ZyFBc/BRMiRivVLc4ODg4ODg4OP5CcIsPjjalOu0qjseYwf2Lj9DpzglcT38VZvrVSLt6HDFm7vjio064c+I6XolucXBwcHBwcHD8xeDOfHBwcHBwcHBwcHBwvFC4Mx8cHBwcHBwcHBwcHC8VbvHBwcHBwcHBwcHBwfFS4BYfHG1GVXYCHuS/uHdJvej6XzRsaToS0qQNb9sqz4zFfVGV0lPKlCMz9j60PqZIeSZi74ugvgiL0vQEpElfX10+L89mi1cYRgpJyZ9jT0byEAmPy5Uvv5a8XD+oQnbCAyimNK3ts6VIT0jDM4WuQlm2RAIpo/wABwcHx8uBW3y8QrC50Tjz3TL8Y+wojBo9BZ/++yRuZNaPENVI+90f2xb+DaNdZuOrw9eRVq1UwZ8EK43FyS9cYGs7DtsiGk9yl/zvnxhkNwnbo0ubPN9a1NX/p1ETiY2j+2DUskvIa8kkgBHh9z2eGNKzH9wPpch/UZ7NwKG5wzHC67jGOtiMQ5g7fAS8jue18BXBLDIOzcXwEV44rqJiRvQ79ngOQc9+7jiUovQT838FnsMWryrVaefwze6L+ONlm5PJxO975mJwz4FYEJCJ134u+9L8gIU09iS+cLGF7bhtaEhpGttnIPp9DzyH9EQ/90NoXeiqKFuVgFMbtuPso1dkEOHg4PhrYWtrSzY2NmRtbU2WlpbE8ScjS6Jt77YjgfALiqhWvklUeWkhDV54icqVb/zJMFnf0Xg9M/L4T2XdlVI6N68fuX4bT/VXnofm9b8MGCq4c5vSZE2vVkevpneHrqHQ4qbXNVIdQV8I9eidVVFUb9ayjHsUl6VNnjLKuBdHWh9TpCyD7sVlqdV7dcQXJNR7h1ZFqXCwvwLPbItnhym4Q7eVHakNkD0OoIUe/6LYF9d1zVT9Tp9Z65HT1iRqe+lePi/aDxphKOu78aRn5kGKKU1z+9UU8YWQ9N5ZRa0PXRVlJb/T6mkL6JfMN8FyHBwcrwOWlpZkbW1N3Dcfrxo6ndHJTAc6xqYwVWEdXgczvN25E161H+jmmRjDSEfhQk0yxIO/wwmfAdBXuPysNKv/ZVAeg+82HMPDJp8yMnjyuDtWnN6GsWaK17XAN4WpSVMBjKwcMMhSm3aMYOUwCFofU8TICg6DLNXqnW9qCqWu/LV4Zls8K+WI+W4DjjV1pOeHScdhn93AR96wf1Fd1wbfCMZGKhLVa8qL9QNFeDAxNoJyGGpunw9TU5NmZVqGirKm4/Hlx9XY+vkRPH7tv7bi4OB4nXhzRo2XSVUGQo/txqZNO+H/ezoqlO+/VMqRlZAKMQvU5CchMjIZBUpzHJn4IWJCriP0drrmfb5sKR4npaOUZSBJi0Z4TJqK5yuQk3AToeF3kVmqsDeAp9N0YNMdggWL3kFear7SdqEaFKREITQ0BmkSBgCL3LirCA4KQvCNFEhZgMm5iytBQQi6Eo3H9cpVrh8AZGI8jAnB9dDbSG/e0eZU5CDhZijC72ZCsetgpXgUE4YbcVkoEecgtxxgC6Oxb97H2HMrA3G/BSMksVAuh0wKWc8B6Jx5r0VtyorTcCssHLGiSuVbQFU24pMVtlNVZCEhpRBMVQ7u30pBcV31VdnxSFbeh1GVi8SbYYiIy0Tzrf5VyI5PVtq6IUNx2i2EhcdCVVfa1kcYSNLv4EZ4NFIKlLfJVSArIQWFTBVy7t9CSr2QdbC5cbgaHISg4BtIkTsD7l4JQlDQFUQ3OANQnpWAVLnTIykyEsnKTq+CtrCFWv+vo6YgBVGhoYhJk8i3IbGFiN43Dx/vuYWMuN8QHJKIwvpijATpd24gPDoFzdWkrv1Gyq7twu44R7g5d2hyvSW6YSTpuHMjHNEpBWjWtChefraKkSL9TiRis+rPc9QgPzkSEfdzFM4T6UCnLjBJVogH0dFIylM6s6BWFs261IRWGbXkhmZ2qkfZD6DFTuVZSEgVg0UN8pMiEZlcIN/K14AM4ocxCLkeitvp0iZt8eoVp4iq9mXFSLsVhvBYEZp7rvr65bc1lQU6TvoAg+/swu6QN+PMDgcHx+sBt/hoLeW3sMPVES6ffInNm9dgwUQnTNwSiTLl5144LApvHcey8bYQTvLF6SOL4Pq+B+a8b48Bbn5IYwCAQfrJeRj2wXe4X5SHSF9XCEdtRlSz1RIDUfh+LBxihb4e+xGw+T0MHjoRE4bbQei8BTdL5E+xucHY6rUCfmHxuH1mBUYJx2D9NXHzswisBLGnv8R7tr0wdltEw+SGLQzF9rme+Pe1TBTE78dUoRN8zufDtMfbyP95EaZ5HUGyDOB3tETX1H2YPfULBOY0G04BAEz6Scwb9gG+u1+EvEhfuApHYXNzwepgkRu8FV4r/BAWfxtnVoyCcMx6XBOzQE089nn64JRIhqpkf8we9iF+yqiBNEcMA7P2YNlqlEulKKmQtbLNCiQcmgPXhUcQl52Gi+t84PewThYF/YzZHI4qtgDR/ksx3laIiZsOYueHozBi+BB4HgzB6S/fg22vMdgc3jihK4naBbcpGxFdq4eSXz/DMLt3Mf699/HBtuvIjj2NL9+zRa8xm9FQpCIBh+a4YuGROGSnXcQ6Hz/Ud6WtfQTSaHzr6Y41gQnISr2AFaP7wnVLCApZFgXR/lg63hbCiZtwcOeHGDViOIbMPwGxQiu8jj3wdv7PWDTNC0fkzgDLrqnYN3sqvgjMQW3hLRxfNh62wknwPX0Ei1zfh8ec92E/wA1+cqdXwfPbYv4JsWb/ZwsRun0uPP99DZkF8dg/VQgnn/PILs6B2MAM7VkW1eVSSEsqIAMgjf4Wnu5rEJiQhdQLKzC6ryu2hBSC1dB+U0pxNeB/yO33Lt6t+6CcbZFupIj+1hPuawKRkJWKCytGo6/rFoQUsmCL7+DkigkQ9h6LTYFnsXH2LHh+8gGG2w3DiuA7OPHpZEyfvxgzhtlh9MaoJh+6UP6v8BnhgBEuozDA2g7TvruDMg2yaNSlBloio8Y4VWOnXJmSH9S1p95Ohbh1fBnG2woxyfc0jixyxfsec/C+/QC4+aXJFwFMOk7OG4YPvruPorxI+LoKMWpzU701oOyHdZcrEg5hjutCHInLRtrFdfDxe9i4wNBSv8ay9Rg4wvGdbJwLuA5u+cHBwfHS4M58tAaG8n6aTMY6IKDxT8foPfrxCaP88LPB5NOB93SpneMWSqxVvklUfWMVTV1Tv1ddRo92jyRdEydaej6dqolI+p/Z1FVvFO1+JCOSPaAdQw3JcXMC1RJR7a211F/fnjbEqqiYqilyZR9qZ+5MG4OfUC2VU/Lh6WTB1yXHTfeplsmn07PH05roug3DTCbtHatL7Rw2UGwtET09SlP0Fc5kMLn0g4semXn8R372gMmlU+625PpDJjFERLWJtHtsR+o+7xyVkYyStw0h/T4r6WZd9dU3V1Ifg+H0rz/q9iM3qV9GD3YMJUPHzZQgF4zW9tcn+w2xpEoyJv80zR6/hhq7vpfG6rYjhw2xVB65kvrbr6ZoeScpL2Ab7U+qJSKGcr53IX2LhXS5ilrdZnnEKhpoM5/OS+oulF2iBRbtGs8Z1OnHZOYZ+fkdJpP2jtMlgwFL6bcCCSVdC6b7YoaY3B/IRc+EZp6pO+VTm0Bb323fuMe+9h59NVCPei0JrfMJhnJ/cCE9k5kkL1JOEasGks3889TYlQVk0a7uzEdb+ghJ6PJiIdktC2s4b1IesYLsdM1p1i95xBBDmXvHka7BAFr6WwFJkq5R8H2x3B8UkCVvoyH6fWhlozPQyj4GNPxff5CMiGSPdtNIXRNyWnqe0uVOT7O76tGo3Y9UnjtoE1sU5mrwf4ZyT7mTresPlCl3bkrcPZY6dp9H58qImJzvyUXfghbKHYlIcpkWC+1oWViDlihihR3pms+iX/IY1e2LlbRUfZNW9GlHby8KprpaiVqgG8nlxSS0W0aNTUfQCjtdMp/1C+UxdX3VM6Rha8MoV0ZE1ffoa/t21GH4avrtSS0R1VLs1/akZ+NDIVX1caBLFlP30S2xjKgsgQ7PsKZ2ek60Jb5WtSwadakgjBo0y6gpTjXbqZkfaLOT7BHtHqlLJk5L6by8I/Sf2V1Jb9RukqffHTTU0JE2yztCt9b2J337RhmfHp1C+opnPpTbL4+gVQNtaH6j49KlBRbUru7chsb6tZRtpJLOzelM7d5ZRZFNrnNwcHC0PdyZj2eCRW6mCFXU9CpVi5DxpPnWhmeCpwMdHR0ABKVm5LAMwK83Gx/t2xuBb2wPV9ee0AVgJOwNS14JpMUE8IXwPh6OAB9riEL9sfNoNCRsNSqrVH2+yIOBgT74XUZgmosFBDCEnedmeNkTEsLCkF8WinPB2Xh4aQ98fX3huzMAla6bsGWuIwyUqwIAnjGM2yu4lyQIp4P14ODUTf51m6AfVoaKkX3MDUYKxVoGH0Lv4wgP8IG1KBT+O48iWsKiurJK5SenFaHnEJz9EJf2+MLX1xc7AyrhumkL5joaQGAhhFXmN5g6Zh52nE1CO/f1+LyvqhM1rWmzDMEHjiF9wDiMN627pN8T1ub8xkd4xjBur7DtgmcAA10eTJxcMLqLKfq6uGJgRx54xsZQfAyyDKSLahq3bAh6oqclkJORUbetggdj4/aNW9TKgnHgWDoGjBuPxq5Yo6ErbekjRRdx+BcRbAc5NJw3MRzqDjdhES6dCoIUPBgY6IJn4gSX0V1g2tcFrgM7tvrrV3779jDiG8Pe1RU95U6P3pY8lEiLVcRMG9lCP1yD/0sQdDoYeg5O6CZ3bvRbGQpx9jG4qXDu4ouH8YvIFoMcGrSEoe5uEBZdwqkgqer2OyppSSaCKBdo36FDk+2ImnVTjIuHf4HIdhAamx4Kdzchii6dQpAU4LU3gqGOLnoOdkI3PgBdIWytBIDlYIy0EAAQwNqqO3RKJJA0KJsP83ddMLgjHzDqj0/2fIFROgkIv1EEVpUsGnWpHc0yaopTLXZS8gOtduK3R3sjPoztXeEq7wiEvS3BK5FCnn69cTw8AD7WIoT678TRaAnY6kqoDC00b78s+ACOpQ/AuEbHRU9rczSGrvr6tZVtRAemHYxBORnIaqMhjIODg0MbrR33/+IIYDvEEV2VMjivsyOG9tFtevGZMYChPg9UUY5yFYMUW1oGGBk3DCLyhUojOnw+dEBgCQB4EFTGYZ+XN/xzBuETb2eY85pPz9Qi6IV+vY2A2mpUPi2EuFIPdm6rsHbt2oa/Ncumoo+qubrCXnAAYMQFKKqSorhxxvJc8ASViNvnBW//HAz6xBvO5jwVE08AYFFaKEalnh3cVjX2e+3aNVg2tQ90eyzAiasH4W4chu0zB6PPiKU4l9VscwLQmjYZEVL+kAJ8gYYAq19kNrnUHJ2meoTuUEx+7y2kXr8iPyRa/QApmWZwmTIW7RuKNJ6PYUQpkHdFXU/azkcq8rLwpIJFTY3Cnn+BNawseKiRSvCUhRohW4mCfPL/88HXAUju9E1pI1uwpRr8X0eMgqIqSIslqv2hCQzys56ggq1BUzVZwYJXA6nkqXwxq01NVIva2vovXxXQpBsmH1lPKsDW1Cic2RDA2soCvBopJE/Z5uWhA55O01Z0eDyA1EvK62KDnqY6YGS18gut0aXKXKKEch+V7K82ThltdlL0g5bYSSk2oQO+vCPy+nkCVMbtg5e3P3IGfQJvZ3NoDq2m7YtS/oAUfKgPXXX1t6BsAzpop9sOYFkVH6JwcHBwvBi0piaOprT/+zYcXDoEnQQ68sHGzBGfHfwX3Oo/YHpudNHTxhI62Q+R2uwgCYOM+Cfo2KeHik+wVFB2GcunrYN4xvfY6uGIrvUDu6YBkEhhEKpFRRWLrnb98bZZd5gbpiDwyHVIGu4zSA/6FfEt+MSM/1YPWBjkI+jMFRTXX2TFCPILQCoD8AX8xkG7AQKpXAeU4fLyaVgnnoHvt3rAUaNgPJh0N4dhSiCOXG/sOZh0BP0aj2pRIp5YemLf9RQkXVyHgVkH4LP9Gpq//b4Vbep0ROeOAlQl3kWcUkXEPucQz+sCt70H4Kl3Hd9u3Ys9O87B4MsgnFhordIndDp2RkdBFRLvxinJRGDZtvURS8ve6GXCIOnO3cZ97WwNqmt4eHuQA8xbmm34AvAbFtCNkGpn0Ewb2YJnosH/6S30sDBAftAZXGl0boiD/BCQqtxnPrr37gUTJgl37jbu/mdrqlHDexuDHMxblpQF3fBWZx2Ul5ZrNFUT+N3Ru5cJmKQ7aGyaRU11DXhvD4JDiw2khYpCFFX2gP3gt1TKolGXLcglmtEQp/yXa6eyy8sxbZ0YM77fCg/Hrg1vKGyZvXTQsXNHCKoScbe540Ieuurq115W4QIqyiug0+mtZh+qcXBwcLwotOVPDmV45pi8JxKPUqMREhKF1PQY7Jtm0YaK1MWwBYsxkncN+3ZcR37DmFiDnBBffHm9Pzzfq9/LwYJhZCBWYaJGJB9gWBZsySOk55chK/UxyqpECLsYhVymAiW5cYhJbLayAQCwhZnIqLvF5lzAhfj+8P7UGfpGEzHfoycy/NwxbvYW/BR4Fsd9F2J1pBFsBAAYBgwIbMOEjgXDyj+NZAGgwyTMn2mJvBOL8Y9lPyLwvwHY85knAgUjYMvno6tFN+hmR+O3e/koePArDhy7CbGsEKLHRSitUqqfLcGj9HyUZaXicVkVRGEXEZXLoKIkF3ExiQrSyDGaOB8ePTPg5z4Os7f8hMCzx+G7cDUijWygIwrELr97qIA+rP++Dl/PsIahnj50wIO+vh7wNBc5xYWICY/Cg5a2yeuCKXMmo3P6ESxfdwlZNUB15j0kFjCQZGcir6SiTj/UdAJMgKxWafbFMmCpbqEAAJDg8tqNEE3/FtvX+GD55l3YPMe+YUuVvAgLqptk8LpMwZzJnZF+ZDnWXcpCDaqReS8RBYwE2Zl5kOS1oY90mIwl3gMgObsX/qny1wyweVcRKhqJJZ+Ohh5QL6TSG4Gawu9qgW662Yj+7R7yCx7g1wPHcFMsQ6HoMYpKq8AyDGTEKnzTQaA632i2nGgrW2j0/w6YNH8mLPNOYPE/luHHwP8iYM9n8AwUYIQtHzx9fejhKXJzilEYE4FM5yXwHiDB2b3+kKuJRd7VUIhGLsGno+Vaata+Mu0G4V17fRSJspocFNasmw6YvMQbAyRnsdc/Vf4iCDYPV0NFGLnkU4zWA8CwYOsXpg01AKTwTQcRASyrcHiZUFEirVvcViHhyEk8+tvXWDq87ttgZVk06hKouL0f8yZ/hC1XchvLKKBRRo25QaTRTsp+0GGyFjuxDBgZgVX40ESefuX5t+RROvLLspD6uAxVojBcjMoFU1GC3LgYJJYBDMPU5eoGyRTa56HLlDmY3DkdR5avwyW54+JeYgEYSTYy8yTIU1v/beQ7aypbonDovQLZORLoD3TCwHYAK76Kze4fYVuIwgc1HBwcHG0Nd+D8VYShopvf06IJg8jOfiS5vDeRXMaOpglzdtBvWY0nMqXxZ2mdS1fitxPSrD2XKSn1BvkvGUGmPENyWHiYIkQiOrdkCHUzNqNeYxbSgZCfydPKlGwm76IoaZMG6w6SDiJd82E0c+FntPyLz+jj6e701cXMxkO85cl00seZbM30SNekB41cdIwSy4moMoUubXClbnw+Wbltp/OJuZR8cSNN6s4nQc/ptONyakP5AB9nEnYxpg4WTuSx5wYV1J+jfRpB2yb2IBMTC3KYsYtCLq8ix95jad6mk3T7SbJS/VLKPreEhnQzJrNeY2jhgRD62dOKTG0m067mghERUXnySfJxtiUzPV0y6TGSFh1LpHIiqr65jkb0sqcJnl/Spi1raNEiX7qeJ++ULO0ofSQ0o05CN9oTXdK6NhkJ3frBk4ZZmZGptRNN+XwTLRjWk4Z7fEVHox416sfajbZfjKF7p9fSBHM+8S1caf3pO1TEEFFZMl3cOIm68wVk7badfk2tImKy6dTHVqSnAwJ0SIfXjvRNulLvsd504kE1lSVfpI2TuhNfYE1u23+l1CoiRnKLfvAcRlZmpmTtNIU+37SAhvUcTh5fHaWo7Db2kdoMurB+Kjk6jKNZXv+kT+Z40zdh+cQQQ+J7p2ntBHPi8y3Idf1pulOkfNS8nqcUsW0i9TAxIQuHGbQr5DKtcuxNY+dtopMh4XR2nQt15bcj4aw9dDkplW74L6ERpjwydFhIhyOylStrG1uQBv+X36TkAB9yFnYh4w4W5OSxh27UO7csjY5+JCSzTkJy2xNNpURUm3GB1k91JIdxs8jrn5/QHO9vKCyfIWLE6ttvAkO5R6dRZ+EyCq8/KCyNb4Fuainjwnqa6uhA42Z50T8/mUPe34RRfp2/Xdg4iSz4ArL5YCddTMikuP9upak9+CSwmU6+/7tPj+8E0oa/WxBf0JOm+wZRWnU5/XFhG3089l0aM82TPlviRZ9uvUiPKkmzLGp1yVD20enUzbQzdR25pVHcerTKKNISp+rsVNbUD36V5yy1diIpxZ9dRy5d+dROOIv2XE6i1Bv+tGSEKfEMHWjh4QgSic7RkiHdyNisF41ZeIBCfvYkK1MbmrwrivJSLtEG127E51uR2/bzlPhUVfsMSW79QJ7DrMjM1JqcpnxOmxYMo57DPeiro1GUraF+qZayufV2qI6gL4SdaNrRXGKISJb2A016qxtNPpjeRO0cHBwcbUH9gXMdW1tbkn9ixIJhGGRlZSmvTzj+EsgQt8EJw89PQeTdrXBoyd5rjpcPm40LW/xQ+g9POLBFkJSUoaJMgpz7Z3A81wtB+yfWfcPwIuB85JWi4gZWDl8O/SPR2Ob0hhmjJgLrPr2LHT8tVb7D0YbI4jZg+LxK7I3ajVGGync5ODg42pYePXqAz+e34W4hjjeGZltXOF4RWGSf8MGy+zb420Ab9LUfgpFjnTHx/Q8ww9UJ7/azadj3/aLhfOQVwHA0vt73Hu7t/wWiN8kgrBiRhy6h08dzle9wtCVsAc4fuIcJ+77iFh4cHBwvFW7xwVGHDMXFT8GUiCFR/hVfjlcGgWk3GPy+FEOdP8bS9VuwfdtGfLl4Dv75XxssWthL5aHztoPzkVeNDmO34uCHGfj+x5sQvxELEBaShDiwkzdhxTgz5ZscbQUrwa0j+5D6/g/YNraD8l0ODg6OFwq37YoDQDXSrh7D/4VnoEQmgKn1OMyc7wKbtnp7MEebUp0dg0sXQpGQUwG+mRUGT5yGvw3o9IIXHpyPvMpUZ91CAhzh1OPFegHHmwGTdQd3qD+GWtX/hgkHBwfHi6d+2xW3+ODg4ODg4ODg4ODgeKFwZz44ODg4ODg4ODg4OF4q3OKDg4ODg4ODg4ODg+OlwC0+ODg4ODg4ODg4ODheCtzig+MZYVGanoA06Z/0ip2qbCQ8yH9xr3x90fU/B2xpOhLSpA19K8+MxX1RldJTryfKsnG0kPJMxN4X4U/xgj+zbQBAFbITHiD/VXQathTpCWloSJNqdcWiJOMOIqISkdf85p9IOTJj7+OZ04uy/Bx/OV5kTv/Tx75XeJ7wqsMtPl4lKlJx9chmfOI6CiNHjsKYCZPxgbs7PvjHB5i9eDX+fToaOa/AK04Z0e/Y4zkEPfu541CKTPn2i4WVIvbkF3CxtcW4bRFoVEcJ/vfPQbCbtB3RpU1KtA619b8CMCL8vscTQ3r2g/uhFMgAgM3AobnDMcLrOPJe5wyoSjaOFsIi49BcDB/hheMv3Qn+3LalsSfxhYstbMdtQ8SrFawQ/b4HnkN6op/7IcjTpBpdMY8R+KU3dl6MwvmvXCEc8DFOPGYU6vrzYDMOYe7wEfA6ntfKCZYq+TlaDZuJQzP6YNCsQ0h5pfy7BbzonK4w9r10XuV5wmsCt/h4lTDsg4kLVsHN/A/EJJnj0/9dwtkzZ3D21H58Prwa55eNQb/hn+G/mX/uwMS3dIaP11h0IlK+9eLhmcLBYzmmCQlNWi8Lwf9umMN71woMM1a80UrU1f8qwLeEs48XxnZS6BvPGot+jkLk4Xno9jpHsyrZOFoID9aLfkZU5GHMe+lO8Oe2berggeXThPgzUpFm+LB09oHX2E4KfVOlKxb5p1ZgedK7WOnjg52BP2PVMGPIqhtr+jPhWS/Cz1GRODyvWysnC6rk52gtbF4QLiQ7YfXOBXjndXut+YvO6Qpj30vnVZ4nvCa0Lp9wvAQEMO1gDB0dPvj11tHvjuGe3yL44ld45w8/fOL5HZL/3PUH+KamMNFRvvqS4JnA2Khp4zXJYgz+7gR8BrTBe+tV1P/KwDeFqZLijawcMMiyDeT+s1EhG0cLMbKCwyBL/Cle8Ge2DR5MjI3wanoNH6amJk371kxXNYi+FoFyIxPoA+B1csHXJw5g/juvyu+1GMHKYRCeLb2okJ+jVVQksXj/mB88rF4Vf2glLzin/6lj36s8T3gN4BYfz0JVBkKP7camTTvh/3s6KpTvvyCMhqzAJo+3UXbjW3x3TbHVCuQk3ERo+F1klrbky/EaFKREITQ0BmmSpqsYmfghYkKuI/R2OqTNFjgyFKfdQlh4LESVyve0lVWGRenjJKSXsmAkaYgOj0GaikIVOQm4GRqOu5mlCl/786CjFPO6QxZg0Tt5SFXa+F1TkIKo0FDEpEnAAGBz43A1OAhBwTeQImUBJgd3rwQhKOgKoh/X67R5/XgG+aSPYhB2Iw5ZJWLk5JY3uataLvXIitNwKywcsaoUX5WN+GSFbRGsFI9iwnAjLgsl4hw0NM2W4nFSOkpZBpK0aITHpKmQg4Ek/Q5uhEcjpUD5y+RyZCWkQswCNflJiIxMRkGz79Jb64taZGthfS2zK1CelYBUuQBIioxEcnMBwEjScedGOKJTClr8dXpLy7DFDxAeHISgoCAEBUcgtYQFUIq0m1cQFBSMiFSp/EGZGA9jQnA99DbSlYxUkZWAlEIGVTn3cSulGPK7VciOT2629U5Tv1jpI8SE3UBcVgnEOblo6qEqqMhBws1QhN/NRFNTVCOnWdvq7FYBUbz8fAYjTcedyFhk1Tdck4/kyAjcz2m6h5stfYyk9FKwjARp0eGISZPWySyHpyJY1cdqBbISUlDIVCHn/i2kFDfeVBeTrdaTrBhpt8IQHitCc49WsFN1Fm5d+Q3Rj0rAFCXjWtAVRKY17hlV1x/V9tdgn/IsJKSKwaIG+UmRiEwuULEFRv2YUJUdj2RF42rwTfl9TfIDYCRIv3MD4dEpUE4xrdG1Nr8ANLelyRfqacu8ooy6MoptPnnXG/8c/FRlmxWieDyQBxLS70QitjGQkJ8ciYj7Oc3PFqnzEbW60DQeqEdzTlfv2+pQ+3x1DuKT8xSvtGHu0TZHUTVPkEH8MAYh10NxO13ZH9XpuBFWnITQ+vHhSgwyKuTlMmLk40Nokli5yGsLt/hoLeW3sMPVES6ffInNm9dgwUQnTNwSiTLl514IRhg1cQQ6UC4iQhIBAGxuMLZ6rYBfWDxun1mBUcIxWH9NrDag2cJQbJ/riX9fy0RB/H5MFTrB53wuWDBIPzkPwz74DveL8hDp6wrhqM2Iqs91FQk4NMcVC4/EITvtItb5+OFhQ+xoKasEIwrH/oVDYNXXA/sDNuO9wUMxccJw2AmdseVmifwhNhfBW72wwi8M8bfPYMUoIcasvwaxCsFYSSxOf/kebHuNxbb6jd9sIUK3z4Xnv68hsyAe+6cK4eRzHvmmPfB2/s9YNM0LR5JlAL8jLLumYt/sqfgiMKf54AW0Wj6gBvH7POFzSgRZVTL8Zw/Dhz9l1J3RaLlcciqQcGgOXBceQVx2Gi6u84FfveJZCWJPf4n3bHthzOZw+UBTE499nj44JZKhKtkfs4d9iJ8yqiEK34+FQ6zQ12M/Aja/h8FDJ2LCcDsInbegXuWQRuNbT3esCUxAVuoFrBjdF65bQlDIsii8dRzLxttCOMkXp48sguv7Hpjzvj0GuPkhrb47rfRFjbK1sj5eR812rS28hePLxsNWOAm+p49gkev78JjzPuwHuMGvXgBIEf2tJ9zXBCIhKxUXVoxGX9ctCClU1WI9rSvDM+oEvZQfsWDKNGy/Z4ruRjwAhnir/S3s3XMHgo6GYNJPYt6wD/Dd/SLkRfrCVTgKm6MqwBZEw3/peNgKJ2LTwZ34cNQIDB/iiYMhp/Hle7boNWYzwhvGTs39qonfB0+fUxDJqpDsPxvDPvwJGWrnSyxyg7fCa4UfwuJv48yKURCOWY9rYhbS+2ew+m+90WvE1/i9rm3VditE0Z2TWDFBiN5jNyHw7EbMnuWJTz4YDrthKxB85wQ+nTwd8xfPwDC70dgYVQEwIoTvX4ghVn3hsT8Am98bjKETJ2C4nRDOW26i3m2boi5WWRRE+2PpeFsIJ27CwZ0fYtSI4Rgy/wTEGmKydXoCKhIOYY7rQhyJy0baxXXw8XtYl1NYSGKV7EQ1KC+RorwWoNpylEileFrFgFXTn8I8VfafjxNiNfYpzMet48sw3laISb6ncWSRK973mIP37QfAzS+tIdepGxNkDXl1DDbXOZY639Quvxxp9LfwdF+DwIQspF5YgdF9XbElpBBsa3yyhX6hvi0NvqDUVNvklaawWspobbP4Dk6umABh77HYFHgWG2fPgucnH2C43TCsCL6DE59OxvT5izFjmB1Gb4yq+3BUjY+IZep1oXY8UJZIEc05vdXjn9rnpbh/ZjX+1rsXRnz9u8LjbZN7WjRHUYZJx8l5w/DBd/dRlBcJX1chRm2OQkVr/M2gPcqvfo2Zkz1wIKMruugDgD468W9i27pLKDdtr1TiNcbW1pZsbGzI2tqaLC0tiUMTDOX9NJmMdUBA45+O0Xv04xNG+eFnpJrClvQigak7BZYr3yOqDl9GvQU8Ml9wiYjJp9Ozx9Oa6Gr5TSaT9o7VpXYOGyi2VrkkETG5dMrdllx/yCSGiKg2kXaP7Ujd552jMtkD2jHUkBw3J1AtEdXeWkv99e1pQ2wtEZVTxKqBZDP/PEnqqiq7tIAs2r1Dq6KqiTSWVU115Erq086cnDcG05NaovLkwzTdgk+6jpvofi1D+adn0/g10SSXjKHMvWNJt51DXZ1P6egUfTLz+A9V1tXH5P5ALnpm5PGfSiJiKPeUO9m6/kCZckEpcfdY6th9Hp0rI5Ilb6Mh+n1o5c06vVXfpJV9DGj4v/4gGVHz+lsrX3UkrexvT6uj5b1j8gJo2/4kqiVtcjWnPGIVDbSZT+cbFU8LLNrRO6ui5HUwufSDix6ZzDxD5XV67W+/muRNM5QXsI32J9USUTVFruxD7cydaWPwE6qlcko+PJ0s+LrkuOk+1ZKELi8Wkt2ysAadlkesIDtdc5r1Sx4xJKNHu0eSrokTLT2fTtVEJP3PbOqqN4p2P5K13he1yfYM9Wmzq+zRbhqpa0JOS89TulwAmt1Vj0btfkQyIpJcXkxCu2UU1qgAWmGnS+azfqE8NeH9LGWoNoG2vmtAFvPPk5SIiBjKOfoZrQoqJSIZPdgxlAwdN1OC3NlobX99st8QS7VExGTupXG6BjRg6W9UIEmia8H3ScwwlPuDC+mZzKQzdTlDc7+qKXJlf7JfHS23NZNHAdv2U5IavTL5p2n2+DXUaIq9NFa3HTnU9anI72+kZ/QPCignLX7AUM73LqRnOIzWhuWSjIiq731N9u060PDVv9GTWiKqjaWv7fXIxieEqqgulvq0I3PnjRQsTxR0eLoF8XUdadN9eYefHp1C+mYe9J9KbbHKUObecaRrMICW/lZAkqRrFHy/kHLVxmR5q/RE5RG0aqANzW90aLq0wILavbOKouTB2sxOROX08zR9MnUPJPklzTlClf0LczXYR/aIdo/UJROnpXRe7vT0n9ldSW/UbnokI81jAtXnVROaeaZcq29qlV9ymRYL7WhZo1NSxAo70jWfRb/kVbZO19r8QmNbjBpfEMt1oMTz5hVVaCujrU0m53ty0TOkYWvDKFceSPS1fTvqMHw1/SYPJIr92p70bHwopEpbDKvSRTpd0jgeqEZjTtfi283R9nwR+f1Nj4z+EVD3eNvmHs1zFGo2T5A92EFDDR1pszw46Nba/qRvXz9eqdKxan+j8jBaJtQju1WR8hxIDOUdn0OzDmapfv41w9LSkqytrYn75qNVsMjNFKFK6YQRVYuQ8UTVRzRtD0LHnb0AAOxPSURBVJWVoYJ4MDY1AypCcS44Gw8v7YGvry98dwag0nUTtsx1hIFyQQCQBOF0sB4cnOoODwr6YWWoGNnH3GDEF8L7eDgCfKwhCvXHzqPRkLDVqKxigbJgHDiWjgHjxsO0rir9ntYwr9+GqqmsGngGBtDnd8GIaS6wEACGdp7Y7GUPSghDWH4ZQs8FI/vhJezx9YWv704EVLpi05a5cFQpGMAzNkb7Bm+WIOh0MPQcnOoOYQvQb2UoxNnH4GbUpFjLaK18AgsIrTLxzdQxmLfjLJLauWP9530hQEUr5SpD8IFjSB8wDuMbFQ/rBsUD4BnDuH3jd78CCyGsMr/B1DHzsONsEtq5r8fnfQUAeDAw0Ae/ywhMc7GAAIaw89wML3tCQlgY8osu4vAvItgOcmjYj2441B1uwiJcOhUEKfho394IfGN7uLr2hC4AI2FvWPJKIC2m1vuiNtlaXZ92+O3bw4hvDHtXV/SUC4DeljyUSItBKMbFw79AZDsIDo0KgLubEEWXTiGobjdUU56lDABBXyzwnoCKc34IzGYB5iFOx7yFmc7tAfAh9D6O8AAfWItC4b/zKKIlLKorq8DWxY0uzwROLqPRxbQvXFwHoiOPB2Pj9gp767X1SwALoRUyv5mKMfN24GxSO7iv/xx9BQ0VNKEi9ByCsx/i0h5f+Pr6YmdAJVw3bcHcOqc1aG+IhqIa7cZDeyND6Oj2xGCnbuAD0BXawkoAWA4eCQsBAIE1rLrroEQikR/k5BnAQJ+PLiOmwUWeKOC52Qv2lICwMBWvuNQYqzwYGOiCZ+IEl9FdYNrXBa4D9RGuNiZbp6ey4AM4lj4A4xodGj2tzdEYrcp2UoXmHKHK/vrhGuzDb4/2RnwY27vCVe70EPa2BK9EimLSMibU59WGDmv2TW3yF188jF9EthjU6JQY6u4GYdElnAoqa5WutflFkca2pGp8oeMzbQXRnFdU8yxlFOG1N4Khji56DnZCN3kgwVYeSBgpDyRYW3WHTokEEtIWwyp08XYEjmgcD1ShJadr8e3maHveAO0NFRykjXOP5jlKs8wDvtAbx8MD4GMtQqj/ThyNloCtroR8mqBCx+r8zXAkfD4fhezj3+BsPgswmQj8tR2mz7BU/fxrypsky0tAANshjuiqdPaL19kRQ/u8jFdRyJB2JxYFZAan4QPAlhZCXKkHO7dVWLt2bcPfmmVT0UdF0mbEBSiqkqJYoiq98SCojMM+L2/45wzCJ97OMOfJn2NEKfhDCvAF6txFfdmWI0Cvfr1hhFpUVz5FobgSenZuWKUg19o1yzBVlWAAoKPTOKgzYhQUVUFaXDeBeW5aKR+vBxacuIqD7sYI2z4Tg/uMwNJzWWDY0tbJxYiQIle8hkDVgY7CxlNejwU4cfUg3I3DsH3mYPQZsRTnslR//Q9BL/TrbQTUVqMiLwtPKljU1CjseRVYw8qChxqpBE9ZNGkHAHT4fOiAwBJa7YvaZGt1fS1B0UcAQIcPvg5ALAFMPrKeVICtqVHYJy2AtZUFeDVSSJ42H2yeqQwAgAfzmd74wDgEfkcSUX7rFzzqPxsOdSmEJ6hE3D4vePvnYNAn3nA25zXxY1WTV50m/q+tX0CPBSdw9aA7jMO2Y+bgPhix9BxUuwmL0kIxKvXs4LZKwWfXrsGyqX3kiw6FtrXZTdmHoMOD/Ivkhgvg8aDxDUmCXv0gd9tqFfGtLVaV2tcYk7qt0BMDUcofkIIPtWlS2U6q0NgfueM3La/NPjpK+9J1wJc7PUjrmFBnW4Xy6n1Tm/wM8rOeoIKtQdMUYwULXg2kkjK83WJdq6bRLyqQp7Gtp3WLVo2WaDnKNlXMK+p4ljKKKJeHDng68q0YDVcaAkmbj8jLK8Lkax8PmqElp7fEt1v7vGI+efG5R2GOUq3iIZ4AlXH74OXtj5xBn8Db2RxNpwkt9Tc+bOYuxwz9X/HNwQRUJZ1EyFuzMLmj8nOvNyp9hEM97f++DQeXDkEngY48kZs54rOD/4Jb/Ur/BcKKr+DbY/fB778An79vDJ5Jd5gbpiDwyHVIGp5ikB70K+JVfBHDf6sHLAzyEXTmCorrL7JiBPkFILXkMpZPWwfxjO+x1cMRXetzAQE6HTujo6AKiXfj0PQNkASWBVCmvqxmCKSQxGorqsB2tUP/t83Q3dwQKYFHcL1RMDDpQfhVlWDK8N9CDwsD5AedwZVGQSEO8kNAKgPwBeDXTZoVIVIz0rVWPkaExCeW8Px/9u47PorifeD4Z6+kAikQSmih9yZIVUCqICI2QFFAmgiCKAICFoqIDVQsiBRBKYoiUmygIii9CoROIEE6qSQhl9zu8/vjkpCEhKIY/X193r7uFbzbMjM7ezvPzczutJ84EL6CMbWjmD5kEj+mFbqxfBnBFAl2kLJ3O7ty3HpTrNy+/cE8sZc/Svdm2k8HCF8xhtpR0xky6cfLx00ky6/FaSSnWBStVpPSpStRoZBJ+Lbtl2+gYKXiSrVRqk49Slzjm+JG6+K18nbD24MbP65Z2UOpVKEQZvg2tl8uAFJdqdhK1aFebgXwZ9bJUKAdA3tXJvzjqUxYFE+L7uXTfyFO5Nun72FM9IO8N/Fh6l+zsuXimukSTuz9g9K9p/HTgXBWjKlN1PQhTPoxt/u72igUWgK/A4uZnb3S8t03u6+YuPynjtt1kOxfFKRYRalWMzRLr0K6Gz1XbVc7J103UE4GwUWCcaTsZfuVFfrKHpq8XDU9uRXgjR2fnK56TbjitLla3bxW/u2EVqpAITOcbZcrJVaqi1RbKerUK8rJ6y7ry3KvF6UpfdV9lbixhs9f+V75s27qPm+8jthD/8T14Brf6Tdct29w+b/nuyePNkroFd88JH77NPeMiebB9ybycP2imb3BeX31XFVAe4Y9Xpv9M19lwvs7qPHIHfjlXOb/udyqkLoaWwk6TdnA0YObWLNmIwcjNjPtnpI3sSCF1NQr7yrhPr2GSd378WlKG16Z+wJNfAD/tjz2cDmOz+hGyx4TmLV4CfMm92PUBn/K5/JDAgEdeKxrac58+jj3DfuAxV8tYMrg3ix2NKV84lEiziYSdfAYiSknWLtiI6fNZOJP72Lr2VY82qkIEbOfZszKKFJxEbljL+fMWE5GniH2TN7rbt57lan41nkij6d/bp1i+fLd1Bw4iFY+/rR97GHKHZ9Bt5Y9mDBrMUvmTabfqA34l3cAJqbp+ULL/F6wTCwESywggA6PdaX0mU95/L5hfLD4KxZMGUzvxQ6aVrRjL1qS4l4n2bRqB2fP7eeb6XNZH+3m/IljXLiYcsX2rfgbzJ95gsWvz2BHMviEdWTMCw8S5ueNj3GtfOVgC+HuRztRJGI2T49ZSVQquCJ3sPecSezJSM7EJwMWpiWZwYh5YjGvz9hBMj6EdRzDCw+G4eftc/mX6fORXC7y5SzfXZOBg1rhE9CJoQNrEbvkLeYc9NQ/68xqfjnRjKGDbscbC9N0I1aWC6KIp2FhWTdeF6+VN3ezG9seXPO4WqaJW6wsvy4KgmBZFhYBdBo6kFqxS3hrzkHPnaGsM6z+5QTNhg7idu/s+/L4M+tkcFCv7wBuj17IErmbToXT37biORpxlsSogxxLTOHE2hVsPG2SHH+aXZs9N5kQ3KTluJhapoVkNnKvlS6TE4tfZ4angtJxzAs8GOaHt0/uv8z5t32Mh8sdZ0a3lvSYMIvFS+Yxud8oNviXvzzc6vLCVz1upmXlaIyL5zhkXqE9/7asrI0si/ORx9Nv6mFxavlydtccyKBWngEhpudkxbKu51wVcKdlaXBd7Zw0bqCcbITc/SidikQw++kxrPRUaHbsPYcZe5LIM/EkX3GcAFJJTRNSU13p710tPZ7Sznn8r3p8LBPT7flezH7aesrrateEivb071VJ/5HpqnVz3zXz7+w0lIG1Ylny1hw8XzEWZ1b/wolmQxl0u+MGyjpD3vUi4Kr7yjgxc9aF3P2175XcXWuda+0T0/Jc77LsQADJ8rO9eE4kzGvVkYy1s5bFNa8HubjWd3q8cc26nd21z4Xsi/8N3z15tlHI0U6wiD8awdnEKA4eSyTlxFpWbDyNmRzP6V2b8TQTrq++eTio3n8YndK+4O3wJjxSP5f8/n+nE87/RZIOyI9zxkvnsg4xnCWkfueH5LF+faV3t07Soukd0m3ER/LbqRwTs5L2yfwhraRikLd4FSojzQbMlb25TFTPlLRPFgxpJZVDCkpAyQby8JRf5ZwpIuZJWTq0oRQvGCQVmveT6Ws+kd5lA6V8p9dlY5yIGbtF3u/dWMoGBUpYg7vlyXF9pXG5JvLw8x/LxpMnrrpubtJ2viB1vEpI4679ZPDTz8jgR+6Vbs+vkMjMGXpJsm/+EGlVMUi8vQpJmWYDZO7eJBG5JAdWvijti9vFXraLTFq2VyRxn6x4qYOE2h1S7t5X5NuDKZ71FwyRVpVDpGBASWnw8BT59VzGdK0E+e3ltlKmUCEpWe9BeX3NtzKifiVp0WuczN/6x5Xbv0bZXMG1XsY0rSB12/SWkeMmyHMDBsjknzIm6eWVrzyYsbLl/d7SuGyQBIY1kLufHCd9G5eTJg8/Lx9vPCr7VrwkHULt4gjrIpO+OSiu9WOkaYW60qb3SBk34TkZMGCy/HTGTJ+AWEe8SjSWrv0Gy9PPDJZH7u0mz6+IvDwpMu24LB/bWerXaynd+z8hfR4dKFPXnhVTROJ2L5ExrYuK3VlZuk/5VsIP/ipzhjaVQJuf1Os3U347ad54Xbxq3k7f+PaudlzXrJMlY1pLUbtTKnefIt+GH5Rf5wyVpoE28avXT2b+dlJE0uT48rHSuX49adm9vzzR51EZOHWtnL3qLL8/s06GWPmqbyeZkD5x2sOUk0uHSsPiBSWoQnPpN32NfNK7rASW7ySvfr9WFo1uIyXsdinZfqws2nZBTBFJ3LdCXuoQKnZHmHSZ9I0cTJFrpMsl68c0lQp120jvkeNkwnMDZMDkn/KeIC8iSfvmy5BWFSXI20sKlWkmA+buTZ8gLZK08H4pUCB9wrln4VyPW+K+5fJSh5Jid5SX+19bIXsid8lXEztLGbtDyt87Wb7+/ZhsW/yidCxpF0e5e2Xyd0fElbZTXqjjJSUad5V+g5+WZwY/Ivd2e15WpH9RXDqwUl5sX1zs9rLSZdIy2RuX17n6qny/dpGMblNC7PaS0n7sItl2ISPDeZ2TN1pOpsRueV96Ny4rQYFh0uDuJ2Vc38ZSrsnD8vzHG+Xo3hzHKTFCfvpgqNxW2Ca2onfIiBlfyMY/3Hmmx4zekevxlzyPT5zsXjJGWhe1i7Nyd5nybbgc/HWODG0aKDa/etJv5m9y0rzKNSHL92pYl0nyzcHkPOvm6xvjrpn/06ZI2vHlMrZzfanXsrv0f6KPPDpwqqw9a954WV+jXohcbV+mRO/Iqy7k5q9+r+QQt/s61rnKPtdtkOUvdZCSdoeUv/81WbEnUnZ9NVE6l7GLo/y9Mvnr3+XYtsXyYseSYneUk3snfydHXHnVkauUxVWuB3m61nd6HnU7b1dbPkkW3l9ACmRMOJeb+92TdNU2ypXtEPPkUhnasLgUDKogzftNlzWf9JaygeWl0+vr5VheZXxVKbJ2WH25+6OTVy/z/2cyJpwbFStWFMvy/HppmiZRUVE54xOlbjr3rhdp0GQZd2/YzsR6/4NR/b+Om10vNqDJsrvZsH0iWuTqZkle9ADFh/gy749PufdmP+/LvYsXGzRh2d0b2D6x3pU9Leq/SeuFIplFDxRniO88Lnx6b84P/7J/vI1iRfFh70mEvDOD+4Nyfvj/V5kyZbDb7TdxtJBSf0Ze/dLqb6NFrm4mK82NrUpNajhzfnIzaa1VudF68d9lkea2UaVmjZwf3Fz5XMXMxBhiUywSN0xndYlHuOt/KPDISoMP9Y9wx8SQYMYTHXvl/Bb1d3ATE5OAGR+NFrn6q9zhb9CyVE16TFvJ15tT6fpsL88cgZvNHUNMgkl8dOwVT2hX/2FaL/6j3IS/0ZJSNXswbeXXbE7tyrO9KuZc6Kb4R9oo7t1MalmCokWLU3VoDD2fbpZ5q+P/Nfbg4OBxIkLG6+mnn865jFI3levIauatOkepW2pQICYKCa1N+aC/o+WiPFwcWT2PVedKcUuNAsRECaG1y6NFrv4sW3BpyhRwkxCdTGi3FxnRqtiVd576q1xHWD1vFedK3UKNAjFESSi1ywfd/P2o/1+0XvyH2QguXYYC7gSik0Pp9uIIWhW7+Uf+H2uj2AoTVrYwhavfz9g3R9Gq2P9e/8Bbb72FzWZD53wopZRSSiml/lY650MppZRSSimVrzT4UH+fpEh2/n4iy1OWbx7rYgR7jsTl91wwhcXFiD0cibtZJX+zt/dfkkTkzt858XecYEoppdTfRIMP9TexOP5RT5o07c+8MzexYWme4OcpvWlYrgbdPjpwnQ/sUTeDeeJnpvRuSLka3fjowF8v+Zu9vf8a6/hH9GzSlP7zzuQIwl38OrYpVZo/y/fnbuK5p5RSSt0EGnyoPFic376No1kfNHxDbIQN+ISNG2bSq/hNrGb20rQa0p8WhSXzib3qxljnt7PtTxxYe+lWDOnfgsJZnqL7V9zs7f3X2MIG8MnGDczsVTz7F3nqdpavggcnvcCdRW/iuaeUUkrdBHplUrlL2sw7L87l0F/5Qdq/LPXqlL75t4qzBxJYyMj5rrouSWx+50Xm/skDaw8M5GYW/c3e3n+LP2Xr1aF0jhPMjIqk1MiFjL89IPsHSiml1L+A3mr3Xyr13AG2bN3LKXcAJYJ9L0eJ7mgObd3MriMXILA4QT5Z4sfkKPYcTaVIgXj27DiJV/Ei+NrcRB/ayuZdR7hAIMWDfHJEnKmcO7CFrXtP4Q4oQbCvDev8Jt7t9wgTNjipUjMYd1oAZYv6YwDJp/awZftBzhvBFA/0JrPdmOu+Uzi5+xDJISEUMCD+0HrWbgnn8JEjHMl8HeWsVYQyRXyunjfAHXOEbVv2cs4wOPTFx+wp15sn2pbKvMWiGRvBjm17iLrkS9Ei/tluvWjFHWXL5nAu2AJxJsUiBQvileXzzOUuHmPfSQdFCiVzdMtWDqcEUCI4R5mZsUTs2MaeqEv4Fi2Cf9Yd5VoOWT4HwCLu6BY2h1/AFugkKVbwT9zHj+t3cujIGcwipSniPM321b/x++EIoh2hlArK+wlueR2TK/Lsn8KOd/vxyIQNOKvUJNidRkDZovgb4I4+xNbNu/AUfRDZi95NzJFtbNl7DsM4xBcf76Fc7ydoWyqz5ImN2MG2PVFc8i1KkWwFkptrbS+ZU3u2sP3geYzg4gR6Xy06ubL+Xna1dCURtecY7pAiOM6Fs3n3BbxLhOCfufqVx6hgwcs1Jq8yz3b8t4Vz7PBe9h44nF7PQyhVxIfEI+v5ZXM4R85aFClVBB/jxs/RDCknd3MoOYSQApfLSAx/nMkn+COX8yApag/H3CEUcZwjfPNuLniXIORyppVSSqm/TcatdvWq829jneeXST3p/eaPRJ7bzbudK9NgyDJOW2BGzKdX4/t55/cLnNkwmfaVb2P8xmSwzrFpzlPcUbEybcd9yGsP3EbTJg15bN525vdqzP3v/M6FMxuY3L4yt43fSHLmrn5hUs/evPljJOd2v0vnyg0YsuwkMaei8Q0qgGW5SIqLIz7ZDdZpvp/Yn+Ez1rJ76+cMv60yzcf+SLQ7t33fSo+XP2Jku4pUaD6edSkAqeyfN4kZm08SExdHXNwFtn3Yn873j2blOXveeQMgmT0fPUr7frPZdfIIK8YMYcahrMOG4tj0dm+6PbeYPVEHWT78dqq3n8Ca857x7qm7p9F7yEJOuFPYN6cHjR+YxfGcP/ybJ1j3bj8alq3Ow+8uYHy7W2jUtg1NqlWm1YT1xKcvFrfpbXp3e47Fe6I4uHw4t1dvz4Q157HyOgafRufYUSq7p/VmyMITuFP2MadHYx6YdRwruAylzn7CgHv6M3ufG+zBlC56kGk9OvPM4lPkOkgqr2Ni5Z7niAuniPYNooBl4UqKIy4+GTcmEfN70fj+d/j9whk2TG5P5dvGc7no9/DRo+3pN3sXJ4+sYMyQGWQv+k283bsbzy3eQ9TB5Qy/vTrtJ6whveivdI3tWae/Z2L/4cxYu5utnw/ntsrNGftjdK43Fsi9/p72LJtnuizOb5nHsDsqUrnDZBbNHkD7ux7m0bvqUqvLDI6Y5HmM3FylzHM7D5q1ZfzP2/mg793cM2kHgaH+2AC/YgXY8tYUtjmC8ZOIP3GOnsYdu5NFI9tRsUJzxntOsKueB9b5LcwbdgcVK3dg8qLZDGh/Fw8/ehd1a3VhhifTSimlVP6oWLGilC9fXsLCwqR06dKi/kmmnF7YTSq2f18iTRGRNNn7RgsJDu0lSxPdsv+VRuJXf7zsSRORtC0yuqaP1H1xp6SJiJiR8lZLL/Gt9ZSsOhcr4T9+Lzs2viyN/OrLeM8KsmV0TfGp+6LsTBMR87Qs7FZR2r8fKZ5d7ZU3WgRLaK+lkiimnHqvtfiU7CffpnjSdXZRD7njuU3iSk9n5FstxMtZT17cmZbrvn+PTpPT77cW70Jd5fOk9LysXCkH0jw5vbjhealfIFBuf3WnpMjV85b02wipXf4xWRabXkyJK6VvSadUHbFRXCIS++3jUrnaMFl7Kf3zpN9keDUvKdH9MzljumTDszWl7qhNcklExDwjC15+V8LT05GNa4M8W8UpJVq9JN//kSaStE9m3ltS7F71ZdzvaSKx38rjlavJsMs7kt+GVxOvEt3lszNmHuVgXrmPmnVl1CbPNswzC+Tld8MlTUTc+16Whj5V5Nn1nlIW13p5toqvNHn1sLizb+UaxyQpzzybp96T1j4lpZ/nwIq498srjfyk/vg94in60VLTp67nuEqS/DaitpR/bJlcLvq+UtJZVUZsdIlIrHz7eGWpNmytZz8ikvTbcKnmVUK6f3bGU6+yucb2zLOyqMcd8tym9PybkfJWCy9x1kuvs1ldtf5eK11uOfpGM/Eq1ECeWhYhLhGJ+7KHFPW+Td446r7KMbpamed1Hrhkz8RbxbfkY7IsLj3ppz6WwSO+k4si4t7/yp88R0XM0+9La+9C0tVzgl3jPBBxH31DmnkVkgZPLZMIT6alR1Fvue2No7nUL6WUUurmKl26tISFhYn2fPyrxPLdou/xrtcAzxxtBzWe/YXok3Pp4m+n8sB5rFswhLATvzDntY/ZFGvhupTi+aXX5ouvl41CDVpze0gg1Vu3p17DQcxbt4AhYSf4Zc5rfLwpFst1iRQLiP2ORd97U69B+mRVRw2e/SWak3O74J8zWSTzy9LvOXloJVMmT2by5NdYcKk94yb0pL5v7vuuHeygYMECl4ej4KDGXXdRxQFW9PeMeuxN/rjjdT5+ti7eXC1viXw/fS4RtVpyR2D6pnzKEVYiYzBJDCtmfsaJinWolzH23a8R3bpU5sLKhXwX56Bk5bJETu1M816vsCTcSbexT1Ldkb5sVjZffH3shDS9h9YlHeBXjd7j+1NX9rB27VkurJjJZycqUufyjmjUrQuVL6xk4XdxeZRDjlPMUZLKZSOZ2rk5vV5ZQrizG2OfrE5uybm6qx2TG8izvTID561jwZAwTvwyh9c+3kSs5eJSigWJ3zN9bgS1Wt7B5aIP43LRr2DmZyeoWKde5rwev0bd6FL5AisXfkdc+nuZrrW95F9Y+v1JDq2cwuTJk5n82gIutR/HhJ718c2yGbhG/b1muuwUKOCPvWBd2rcvhxfgX7kSpW3xxMXIVY7R1co8r/PAi+p9B9ImeSkzFp/EwuTQos0U69qKAoC98sA/fY7aChbk8mira50HYC9QAH97Qeq2b085T6apVNpGfFyM3rxBKaVUvtHg49/EjObchRTiYmJzbQzYHJfYNa0/A+ecok6fgbQqYcu+XM6h8TYHl3ZNo//AOZyq04eBrUpgS1/BjD7HhZQ4YmJz21MO1kXOR1/Cu1oXRowezeiM13PD6FwlvUWbc9+AYRhXvm2dZPGQAcx2deX9GX2pkN7wzDNv5gkOHI4DuyP3ymqeJeqPZKzU1CzPE3EQVrYkttQ4YhOgTN9PWf1hNwqunUTXW6rQ9KmlRF3nSBNHhRpU8oc0VzJnov4g2UolNctzFRxhZSlpSyUuNsETBF6R4RxsZej76Wo+7FaQtZO6ckuVpjy1NCr3YVVXc9Vj4nUDebbhuLSLaf0HMudUHfoMbEWJ9EpinjiAp+hzLXnMs1H8kWyRmr1AKFvSRmpcLAk5xkpda3vWxfNEX/KmWpcRl/MzejTPDetMRjXLcLX6ez3pMozsB8qw2zEQLLnKMbpqmed9HthKdGXg/QVZM2M2e5O28NnRmvSolz5/5K+co4ZBZjaueR5YnuUzPwMMO3YDxMpj+0oppdTfIPdWgPpn2ItRpqQvZ7/7nB9iMt60iP5uBgsOxvPt0/cwJvpB3pv4MPWLZrTG8m44JH77NPeMiebB9ybycP2imb+uC2AvVoaSvmf57vMfuLyraL6bsYCDORuptkKElvDjwOLZ/BR7+W0z4ju+2Z1z8sTVuDk4oz9Dvy7EE7Pe5v4SNrBiORcdl3fejGCKBDtI2budXa7sWxPLAnsolSoUwgzfxvaMgfJYpLpSsZWqQ70Swom9f1C69zR+OhDOijG1iZo+hEk/5thYFiJZWs1pyaRYRalWszSlK1WgkBnOtss7wkp1kWorRZ16Ja7vZDJPsPeP0vSe9hMHwlcwpnYU04dM4kcXYHdgz2gAZyGS84Bc65i4rj/Pid/y9D1jiH7wPSY+XJ/sRV+EYEcKe7fvIvuagqfoK1GhkEn4tu2ZcxSwUnGl2ihVpx4lchTItbZnKxRKCb8DLJ79E5ezZBLx3TfkrGZXq79Hit1Yuq6Q1zFKu1qZX+08KEC7gb2pHP4xUycsIr5Fd8qnB9037Ry95nlwrUwrpZRS+UOvSP8qAXR4rCulz3zK4/cN44PFX7FgymB6L3bQtHwiRyPOkhh1kGOJKZxYu4KNp02S40+za/Nez+oC7rSMRpBF/NEIziZGcfBYIikn1rJi42nM5HhO79rMXnsHHutamjOfPs59wz5g8VcLmDK4N4sdTalot+Hj4w0JpzkVc57Nvx2l2WMPU+74DLq17MGEWYtZMm8y/UZtwL98enMp277TU2BaiFiZk4WTt71Kn9HrqfDcx0xqHeR5M/Y7lq0+nXfetp7l7kc7USRiNk+PWUlUKrgid7D3nEnsyUjOxDvpNHQgtWKX8Nacg6QCWGdY/csJmg0dxO3eJicWv86MHcngE0bHMS/wYJgf3j65/EQNgMX5yOMkpv/71PLl7K45kEGtfAjoNJSBtWJZ8tYcDnp2xJnVv3Ci2VAG3e7tWT2XcsjGPMHi12fgSU5HxrzwIGF+3vgYYC9akuJeJ9m0agdnz+3nm+lzWR/t5vyJY1y4mPMx1v60zfOYGHnm2ebjgzcJnD4Vw/nNv7HrzFEiziYSdfAYiSknWLtiI6fNZOJP72Lr2VY82qkIEbOfZszKKFJxEbljL+fMWE5GniHe2YmhA2sRu+Qt5ngKBOvMan450Yyhg24nvUQy2ULuvvr2jLY89nA5js/oRsseE5i1eAnzJvdj1AZ/MqpZpoCr1N/ga6XLwjTdiJUl0BMBsbAs6yrH6Gplnvd5AOCo15cBt0ezcIlwd6fC6e/+lXMUsEws8QRuEHCN8wAs08QtVpaeDkEQLMtzjlrRqxnf7SFeXpMlslJKKaVuNp1w/m+TJPsWDJFWlUOkYEBJafDwFPn1nCkippxcOlQaFi8oQRWaS7/pa+ST3mUlsHwneX39MdmxaLS0KWEXe8n2MnbRNrlgipgnl8rQhsWlYFAFad5vuqz5pLeUDSwvnV7fKHEiIkn7ZMGQVlI5pKAElGwgD0/5Vc6lzxJ2H/lYHqocJIUrd5Epmy560jV/iLSqGCTeXoWkTLMBMndvkogZneu+E/etkJc6hIrdESZdJn0jB+M3yOjaPmILrC8PPztKRo0aJaNGDpNezavKQ4su5p23jXEiZqxseb+3NC4bJIFhDeTuJ8dJ38blpMnDz8vHG0+LSJocXz5WOtevJy2795cn+jwqA6eulbOmiIhL1o9pKhXqtpHeI8fJhOcGyIDJP8mZK2dDi6TtlBfqeEmJxl2l3+Cn5ZnBj8i93Z6XFZGXp+OmHV8uYzvXl3otu0v/J/rIowOnytqzZp7lcAXXehnTtILUbdNbRo6bIM8NGCCTf8qYnJ0gv73cVsoUKiQl6z0or6/5VkbUryQteo2T+Vsv5NxS3sfkanl2H5GPH6osQYUrS5cpm+SieVKWDm0oxQsGSYXm/WT6mk+kd9lAKd/pdfEU/RZ5v3djKRsUKGEN7pYnx/WVxuWayMPPfywbT5siacdl+djOUr9eS+ne/wnp8+hAmbr2bC6TzT2uub2kfTJ/SCupGOQtXoXKSLMBc2WvZz71la5Sf6+WrrjdS2RM66Jid1aW7lO+lfCDv8qcoU0l0OYn9frNlN+O/XqVY5RHmV/H8Y/9qq90mvC75wYR6f70OZq4T1a81EFC7Q4J6zJJvjmYcvXzIG63LBnTWoranVK5+xT5Nvyg/DpnqDQNtIlfvX4y87eT4j7yvnQoVlw6fRiRJYVKKaXUzZEx4dyoWLGiWJbnFz/TNImKisoZnyj13+DexYsNmrDs7g1sn1jvT0wCV0oppZRSuSlTpgx2u12HXSl1pdyeKqGUUkoppf4qDT6UyuCOISbBJD461jNmXimllFJK3VQafCgF4DrC6nmbCer2DA8V3sanP0VoAKKUUkopdZPpnA+llFJKKaXU30rnfCillFJKKaXylQYfSimllFJKqXyhwYdSSimllFIqX2jwoZRSSimllMoXGnwopZRSSiml8oUGH0oppZRSSql8ocGHUkoppZRSKl9o8KGUUkoppZTKFxp8KKWUUkoppfKFBh9KKaWUUkqpfKHBh1JKKaWUUipfaPChlFJKKaWUyhcafCillFJKKaXyhQYfSimllFJKqXxhVKxYUSzLwrIsTNMkKioq5zJKKaWUUkr9z1q0aFHOt/51HnrooZxv/b9SpkwZ7Ha79nwopZRSSiml8ocGH0oppZRSSql8ocOulFJKKaX+oqzDdnIbHvPu9PeYNm0abtOd4xMrx/97iAGWISACgGFL/71YwDANDMPAsixsGe9DntvKm4ElYBgGNsPASt+XZZrYbTYwDBDAyLpO7vuwDE+aDfH8sm0Tz4qWgGkY2Gw2LBEMwwDLQgywp+/vSkbmTiXbMgI2wcCTLsHzb0ssDOyebecgItgMGw6ng8GDB/PUoKE5F4Ecx69Fu1uyffZPWrtqR+a/c6tX/59kDLvS4EMppZRS6i+6VvBRsVolnn32WQIDAwFPg98j98a8pAcgGOnxR5ZGuNPmREQwTfMvBR8igmHYs72XEdCISObf7HLfR9bgwxBP8CGWYAFityMCNpsnYDIMGwZgy2NbeQcfYBiSnm4D0zQxDE8gZrM5rliW9PwAJCQkMHXKVA6GH8i5CGjwkS90zodSSimlVD4xMAgICMDhcOB0Oq/9cjhx2p3YsGHDwGFz4LA5sBv2zADhinVu+OWFzTDAEi6cP8+JyCiijkdy+uQpkpOTAbDb7deXZocTp8MLp8MLh90B2EhOvsTpU6eJjDjGyRMniI2OwRBw2u3Y/0T6HXY7KZdSOHv6LJHHIjl54iTnz53HdJuZwVJuafXy8iIgIADTMnMeFvUP0J4PpZRSSqm/6Fo9HxWqVmTy5MmZPRUZPR8i2RvEGcOpkpMvsW/ffg4fOszpM6dJvJiIzW7D18eXokWLUrFSRapXr05QUFBmMGJZniFdGdvObRiSYRi43W7sdjtJF5P46cef2Lp1K2fOnCE5ORnLsnA6nQQEBVGxUkVatWpFzZo1s6x/uXfB04vh6XkwBbDZcLtS2bVrF2t+/IkTkVEkJF4kxeXC4XRQoEABSpUsxe3Nb6dJkyb4+Hilp9vTO3G5TMAwLve6iAjHjh3jpx9/ZN+ecGLj4khNdWEYBr6+vhQrVoyatWvTrn07goODM7d1eXuC2+1m7NixHD1wJDP9WWnPx99Ph10ppZRSSt0kfzb4sCwTm80gLS0NLy8vzp8/z6ofVrFmzS8kXfQEA2QZfmSz2TDFxLAZ+Pv707BhQ+666y5KliyJZ5pG9uFIOYl4hi3t3LmTeXPnEXs+hsKFC1O1alWqVq2Kw+Hg/IUL7N0fzuHDh3G73TRp2pRHHnmEwMDAbMFHRqAkImDY+OP0WT6Z8zHhe/fi5+tHtapVqVKlMkWKFObixYvs27eP/fsPkJAQT+nSpek7oC8VK1bE4XBkBjKeNF4OGi5dusSK5ctZsXIlNmyElS5L7dq1KVGiBCLC0aNHCd+/jz9OnqBgoUI88OADtGrVCsMwcDguD8UyTZPRo0dr8PEP0uBDKaWUUuom+bPBh4hnyJBhGGzevJlFCz/j7LmzYIGX05sSJUpQq1YtQkJCMAyDmNgYDhw6wLGIY6RcuoQYEBwYxP0PPMAdrVpgGAZ2uz1zmzmJCL/++iuzZ83Gho0nHh9Ir169qFChQra5HnGJF9m0aROvvjqZLVu2Uq5cOUY9N4qCBQtgs2UETpcnvEdG/cHb097l7KnTtG7dmudGjqJO7dr4+flhGJ60pKamcvDAQd6Z9g6ff74YX38fBg0aRJ26dXKk1ZOOS5cuMfOjmWzetIlyFcoz5rkx3Nm2PcHBwZlpNQyDqBMn+OKrxbw5ZQqxMbHce28X7n/gAWw2W+Z2Nfj45+mcD6WUUkqpfGNle4l4XobYEBNWLv+GD96bzplTp/H38afHw4/ww/ff8/vOXXz+2Wd8+MF0pn8wnYXzF7Jlw2Z+XbuOp596mpDgEOJi4pg752PmzplHWqqJWAAG4tkTlucNRITwPeHMnTOPwIJBzP90AZMmvULlylWw2ey89trr3Hff/ezevYfAQgHc2bY9K5d/Q69HexJ1LJJ335pGyqWU9LnvRvrQKIiNjeOD997n3KkzjBo5is8WLKJJ48b4+/uDCPM/XUBU5Am8nN7UqlWLGdNnMP2DD7DcFh+8N53jEccR09MjA57J9qZpsWjhZ2zZtJmWLVqy+vtVPNStO8GFC4MBqWlpuE3PkLWSpUoybMhTrFy2gmpVq7F82QpWr1qNiKe0JctL/fM0+FBKKaWUymeGkfGy8ePqn/jyiyW4UlKpWKESixd/wQfvv0/TJk3x9fXFYXdgs9mwGQYOux2nw0ntmrWZ9PIkVi5fQfPbm4MFv6xZy2cLP8OyPDehFQPEdrm1l5SYxKeffIq4Ld6a+hYd7uyAzWbHMGycPHmK6dM/5IcfVvHZZ5+nT3M3KFSgIFPemELnuzuzf9/+zEa9aXruWiUCS5d+zfFjx+nTuzdjRj2Ht7dX5rCvFJeLSS9PInxvOO40N2KB3e6gx8OPMHnSq7guuVg4fyFutxuRy4HSrp2/8/NPP1OnTl1mfTSL4kWLAwZ/nPyDN958k8FPDmbo0CHMmPkR0dHRIAa1a9bm49kfExxcmCVffsWpU6c9ZXBlB5D6B2nwoZRSSimVjwzDyJx7sXfvXhYtXEhKSgq33HILS776iua3N8fhcECWW8XmXD9jyFOdOnVYuHAhXbp0wbIsVq9ezc8//5zZiwB4ghER1q9fT1RkFH369qVz586ZQ6YAihYtyr333kudOnXo2LFj5rwREcHPz4+pU6dSpEgRVqxYQUpKSuZnp06dYu3atdjtdk6fOsVv638jOSkZ022yYMEC2rZpy+nTpxk6dCi9e/dm//79mWnr2bMnd911F+Hh4ezevRu73XPbX7fbzVdLlmC323n77bcpUaIEAFu2bKZ169a89NJLfPrJJ3zy6acMefJJ2rdrz86dO7HZbNSoUYMXX3iBpKQkvv/++1zLT/2zNPhQSimllMpnbrebixcvMm/eXFypqZQuXZq5c+dSuVJlHE4HNtvleRsZgUrWhrTd7nmonmEYBAcH88EHH9CsWTNM0+TLL7/k5MmTkD7UKmNC+/r1GygUUIhBTzyRuT7AiRMneP7553G73dSsWZMvv/yS2bNnY6YPawIICQmhV69eJCYmsmPHjszAZeuWrVy6dInAoEBWfvMN9917L127deXNKW/y9NNPc+DAfu644w6Cg4PZtm0bycnJmen29vZm2LBhYBhsWL8xM7+RUVEcj4ykTZs2NKjfABEhOTmZUaNGERUVRdWqVZn0yiu8MukV6tSty7594fTv35+LFy9is9vo2rUr5cqVY+tWT9pylp36Z2nwoZRSSimVz7y8vFi3dh0nok7g5eXFa6+9RqVKlbL1RmTOgUgPPjIa0VknZ9tsNux2O4GBgbz11luEhIQQFxvHd999h2V5ei/AIPlSMseORVC3bl3Kl6+QGQBYlsWBAweYNm0ac+bMYeHChcyYMYM5c+aQlpaWuR/DMOjQoQN2u51DBw9mpiV8Xzg+Pj58s/Ibpk6dSqXKldm8eTPjx48nIT6eOnXq8Oabb7Jq1Sp++OEH6tevny0QqFWrFmXLlOHw4UOYpollCYcOHiQtNZX77r03M6+//vorW7duy+wNefrppxkyZAhz587Fx9eXAwcOsGzZMgzDoGDBQrRs2ZLYmBjOnTuHZaX3AuXyEEKV/zT4UEoppZTKZ5cuXeLnNT8D0KpVKzp16oSBJxgAsEyT5ORk3G535p2dSA9ELMsiMTERl8uV+T5AtarVePSRRwHYtHEjycnJnknXlsXFhIukpqZSrVr1jIeHZw7dyhnQkOVuXIZheOab2GyUKFGCQoUCOHvuHKT3vpw9c5ayZctSpXIVBg0axDcrv2H69Om0aNECXz8/Nm7cRJcuXXjnnXdwuVzZnspuGAZeXl5UqlSJxMSk9F4ROH/+PF5eXlSuUgXSJ4qvW7cOgICAgMw0W2JRtUpVqlSugqQPK7PSb/1bvUYNDMPg7Nmz6XNrdOLHv4UGH0oppZRS+ezYsWOcPXMWAQY9MQiHw4Fh8wyx+vbbb+nxSA86dOzAffffz9y5c0lKTgLg6NGjjBo1invuuYcOHTp4Hpx39CgANruNPn0ew8/Pl6TEJHb/vgexLOx2e/rwIwgMCID0IMZIH9KVtbclq6yBDYCPjw9eXk5SXa7MwMXlcuHr6+sJkCwhJCSErg8+yJIvl/DVkq+47777iIuL47XXXqNt27Y89dRTbNmyhZSUFEgPYPz8/DEtE5fLhWHYSElJwcvbGy8vz8R1RBg5ciT9+/fn3XffpVHDRpk9QQDBhT0PFoyOjsYARCz8/PyQ9IcL2mw2zxCyvzsAsc6z/r2R3NOgERVC63Nrh7Es2ncp51L/ebnXNqWUUkopdRNl3HbK8zp69BipaW6KFilK40aNcNjsYAlLvvySXo/2ZMWKFZw9d44tW7fwxOBBvPHmm5w4+Qddu3Xlvffe4/Dhw5w4cYK33nqLnj17cv78eWwYVKxQkYrlK2IDDh88hB1P493Pzw8DiImNQdKHIWX0ovj5+VG0aNHMxryPjw9FihTJ7C3IWC41NZXU1FR80oMNy7Lw9vEmPi7eM8QLEMsCgQL+/rRs0YJ5c+eybNkyunXrxoULF5g7dy533XUXvXr14tvvvyH+YhwJiQkYdhvePn6YGPgXKEjKpUtcunQpc+K70+lk8KBB3Fq/AXabDYfNjsNmx2YYnD19BhGhSJEimXmIjY0FDHy8vSE9yPl7h10lsuXDD1nj3YJ+wx+hRWgqp7YuYewzn3I4+0Ps//M0+FBKKaWUymeRkZEAVKtW1fM8DCAhIYHJkyeTlJTEwIED2bhxI1999RUdO3akfv36zJw5kwMHDlK9enXWrFnD+vXr6dGjB/fccw/e3t6ZDe/69W9BBKKiojIDiICAAPz8/NixYweWeIYmZQynatCgAbNnz87sIWjYsCGffPIJXl5emT0kNpuNoxFHiYuLo2TJkpnzRUqVKkVUVBQXzl/Its24uDjeeOMNwsPDqVixIu3bt8dut1O4cGFKlCjBt99+S7du3enUqRM7d+4gMCAQXz8/AIoXL44AO3bszNz3+vXrad68OY0aNeLQoUMApKWlsXHjRo4cOYJhGLRo0QIjvRdn3759GAYUL+55EvrfPuzKTCKk4zM83/8u7n5oCG+PbU2AAe6EBC5q8JGNBh9KKaWUUvlIREhKSsIwjMyGvIgQFRXF8ePHMQyDnj17EhAQQKOGjViwYAHt27Vnw4YNWJZJp06dCAsLo0iRIrz77rs888wzFChQILOBXby459a0yclJmXNIfP18qVylMvv378+8rW3GZ97e3gSkD8ey2+3Y7XYCAgIw0ielZ1ixYiViCdWqVct8r06dOpimm8VfLM7sISH9ieEvv/wyd955Jy1atOCZZ57BsiyeeeYZvv/+e95++23q1KnNrp27iImJpXrNGtjtnmZplSpVcDocLF36VeZzP+rVq0fx4sWJiYlh8ODBfPTRR8yaNYtBgwaRmppKjRo16NSpE2JZXLhwgZ9//pmixYpRuEhhyDLM7G9jL0a5ME8QCRZJsRdJ86vAg6Mepo5XjmX/4zT4UEoppZTKRyICIhjp8zQyGvlpaWmkpqYC4HSmz3cAnA4ngpCWmophGPj4+ED6na58fHwyg5eMng+n05E5ydqyrMz5Gc1bNCclxcU777xDSkpK5vI5Zb0NL+m3BT548CALFy6gWPFi1KhRA9Lz0aBBA4KCg5k1axZRUVGZ6ejatStTp07l9ttvJzIykipVqjBt2jQGDBhAiRIl6Nu3LwsXLKRcuXJ4eXnRpEmTzLtSFS9enJq1arH+t9/47tvvsCyLkJAQ3njjDcqUKcPGjRsZPnw4zz77LIcPH6Z+/frMmDGDAgUKAAZz5nzMmVOnaNKkSXpZpQ8fy8zR3yg1mvAV7/L01E2k+gUQqIHHFTT4UEoppZTKRzabDW8fHwSIjYnN7C0oUqQIwcGeydM7d+wAICUlhZmzZnLs2DHKlCmDAFu3bsU0TUzTZNWqVfz444+Zt8U1DIO4uHhIDyIcDs/T0QFuvfVWqlSpzNKlS5kxY0bmXa6yDq3KCEiy9nqcO3eOp556iqTEJO67//7MIV52u50iRYpw5513EhkVxTPPPENiYiJG+rNH+vXrx6JFiwgNDeWFF16gT58++KUPrUpLS+ODDz7gaEQE9Rs0oGrVqpAe0NhsNrp06YKPry+jnhvFnr17ME2TNm3asHz5cp577jnuvfdeHn74Yd544w2WLFmSeQvfVatW8fbbbxEQGEiHDh0wMPL1blfmucNs3hTOyYsW7vM7mDFoLJ8c03FXWWnwoZRSSimVj0TEM69BhGPHjpGWloaIEBoayp133ollWbz44osMHz6cxx7rzYhnn+X111/noYcfxs/Pj9WrV9O/f3+GDx9O//79GTx4MGfOnMkMJA4ePAiGQfFinuFXIoJYgreXN3369CEwMJCJEyfyzjvvEB8fnxksPPjgg3Tv3p2WLVtC+q149+/fz2OPPca6deu47bbbaNKkCYZhZPaOWCJ07NiRunXrsmrVKgYNGkRkZGS2gGbGjBnUqVMnM7CJiYnhpXEv8f4H71OiRHF69nwUm82WeTMqm2GjUqWKPPDgA0RFRvLII4+wfft2TNOkatWqvPjii8ycOZMPP/yQgQMHUqxYMVJcKSxevJhBgwaRlpbGY336ZA4ly58uDw97qcb0mfQR3ywZTIOCBnJxOz+u8wSDykODD6WUUkqpfFYurBw2m42Dhw8RdSIKDAOb3c7LkybRrXs3UlwuZs+axa/rfqVt27Y8P2Ysd7Zrz/iXxhEWFsayZcuYN28ewcHBvPrqq4SFhSEICYkX2b13DwKULVcWC8HAEywIQmipUAYPHYRfQV9eGvcivXv34rvvvqVgwQJ8+OF0Zs+exYAB/Tl4cD9Tp06hS5d7+PXXdTRp0pjej/XC7mXHNCzSxI0bE7GD3dvBwCcep27dOnz11RLuu+9eZs36iIiII1y6lESTJo3x9fXm5MkTfPnlYu67717efvstSpQMZchTQwgMCsRuM0AsHIaBWGkYNmjXrg1d7u9C5IlI7r2/C8+/MJbff99FQkI8drsNyzKJiYlm7bpfGPTkIAY9OYjE5ER69+lNg1vre3o8Mgdd5a9CDQYw5uGy2JG//xa//88YFStWlIzxgKZpEhUVlXMZpZRSSil1FYsWLcr890MPPZTtM4AKVSsyefLkzCFQsbGxPDfqORLiExg5YiQvvvgiDrsDgKSkJCIjI4mNicHf359KlSp5bpWbPofj1KlTnDhxAsMwMieeO51OTMviiy+/oE/fPpiWm1fffI1SZUphx4aR5dd/EeHkyVPM/3Q+e3bvxWG3Ubp0aYoWLYrTy4vExMTMO1gFBgbSoeOd3HnnnXh5eeG2CdiubEzbTLiUmMyKFSv4cfVqUlJcFC5SmLJlyuDr50dqqouTJ09x6uQpnE4H9W65hYd6dCckJCQzTVmHRmX8f1paGps2bWLJkq84d/YcBf0LEFauHEFBQZimyYXz54mMiiIl1UWFChXo2rVr5pyUjLIGME2T0aNHc/TAkcz3ssp6/Fq0uyXbZ9fDiv2dJYuOEPbAvdxa1AZYnJ/Tl1vHJDDkp88ZXsNzbG/U2lWe4XfkUa/+PylTpoynx0yDj3+GO/4cCd5FCfbMGft/ISX2DHEuG75BRQnw3Db7PyoVV6oX3jd5EtkN1YmUWM7EurD5BVM04CYnRCml1A27keDDsiycTifTp0/n59U/EVoilO9/+IEqVTxP6gY8cxWyrJ8xP4MsTx/POj8DIDYujrs7382WrVuoULECL0+eCHYbmCa29MEuWed5pKW52RMezubNmzl65ChJSUlYYuHt9KJwkSLUqVuHWxvcSsmSJfE8LkQ8Y2aujD0QCxyGnbS0NP744w/Wb9jAgf37iYmJwe12YxgGgYGBVKlalUaNGlG5UiW8nJfvuEWWfJBl7kdGHs+fP8/2HTvZsWMnZ86cwZWaioiFv68fpcuUoeGtt1KvXj38/f0z18m6zb83+LA4/3F/Go1Yj1G+LcNfH0n3Kmf4eMAQvigzgeXvtqPonxxrpMHH/2tuTu9cyayXhvPOb3F41biPoZ0rYSWe5vcflvJbqfHs+bIXnmlef7OYxTxcvQfLy09g07rR1PxzwfA1JUdtZdW8iQx/5zdibeW4b9IURjzQnCpBf+IMSF3P8FqtWFB2Mt8sfYb6GXeTu4rEiPUse2ckw+fvxx3cmEd63YrsXs8eqUv3Z0bQt0kx7DlXypB6nOXPdKXfwkiqjfiRn0bX4q8Wk/vUJt4d1otJPyXSYfphPu3qmfR2o1K3vEivlZ2YN6Ehl5v9qRxf/gxd+y0kstoIfvxpNLVuJME3VCdc/Pp0LVp/Vp7Xv1vCsLrXcTCUUkr9ra4VfJSvUoHJkyd7HnaX3ig+fvw4E16agMvlolOnTsz9eC4+vj4gnsa3PceTx7P2DmT8O2swMWHiBF599VUMu40hw4Zya6MGiCE4DM8DDHMSwDI8wVBKSoon+LAsvL298fX1vfyE8fT0evYluY4iEgwQzyR1EcmcEJ+YmEhaWhpOpxM/Pz+cTmfmA//s15iMkbHPjCDEFCHN9KQ14wnpvr6++Pr44u3wXDizBh4Z28hIz5gxY/6m4APc++bxyANv8Os5t+cNr6Lc+sizvD6uM5X/XHMD/keDjz/RCv3/ykGJep3oXC+AhNhYEku0YeiIkYwZ/xaffz+b7qFu8u1eBAWq0erujnTq2JASf+MR8CtzK5263EJgQixxyWG06tHyzwUeQOrWr9lY8gWWfnF9gQdAgfLNuL91ZSQulniqcP/I8bzz6TvcHTObJ+64jb6Lo7j8e0cOXmG0bhhKQmws8ZduzpFxhDageRUfEmJjSPTcyfBPiGXFu7NYMucDvovL+r4XYa0bEpoQS2z8pRuvSzdSJ1ybWbqxDOO//kIDD6WU+n/CluN2uCJC6dKlue+++7AsixXLlzN+wniSkpIyPyfLL/c2my1zkndG4CHpz9VIS0tjxowZvPPOOwjQpEkTGtSvj91uwzA8Dw7MjQHYBBw2GwX8/CgWEkKJYsUIDgzE19sbu2FkPpPdELn8/5LLy7q8nA1w2u34eHlRJDiYEsWKUSQ4GD8fH5zpjc9rXerIEmBllIXNMPB2OgkoWJBiISEUCwmhUIECOO32bGX7T3BU78XCLav4YfnHfL7iSzbuX8PXr/+1wON/1X+o5wPAze5xjWgwfic+Dy7izOJu2H/7ng21WlHkwB7KN6iDt2mBzY7NYZAQsZcLgTWoGOz5lSI19jgHDp3Hp2IdKhf2/OZtut14VrHhcJ9n/4F4itaoTOEsv1ynnA7n90g3JWrWokwBG5bpxm1a2OwOHHYb4CbmyC4irPLUKmySHBSCJ0ZI4XT470S6S1CzVhkKZJypViIn9u7jrFdZalYtxtVG6bj3jKdx/XHs8L6fBWe/5KGMkyA1miMHTuNdvjqlMzbsjuHIrgis8rUobCYTFBKAuC1My8KKP0O0V3GK+ZJePp4vD3fMEXZFWJSvVRgzOYiQHMFNyoo+hHX5mOjyw/g5/C1u94KklX2p3GUOZ0v05et9s+hUMCNJRzhw2pvy1UtTwAbJn3YhuOe3VH1hC9sm1MUBJJ8OZ+8fQvGKFSnub8tShkBqLMcPHOK8T0XqVC6cpVfCTczRPRyTUKx57Wg26RB3fRLN0kc8hWElnmDvvrN4la1J1WJXK00wI97lzluG8VNCAdq+v5vvnih7+Qs0+VO6BPfk26ovsGXbBGqRpW6knWf//vMEVKlJqJ8nHwfji1KjaghecEWdyFavjAQi9l4gsEZFgu1gxe1h9W9xlLn1VqplpDd9fc+xcXN+/wHii9agctaKqJRS6m9zrZ6PwCKBNGzUKHPYVa1atWjUqBHuVDfvv/c+W7Zswel00qNHD1555RUCChby/Eqc3vuRtccja0M7MTGRd999l7feeouEiwmULVuWEaNGElQkmN9372TL9m3YhFx7PgAMuZ4w4DIx8vrZ0MCQXLpE8iAI2SaiXKfc0ivkPhSMLD0fIsKWLVuIOx+bcxG4CT0ff5f/xZ4PKlasKOXLl5ewsDApXbq0/G9Lk99fukWcGFLwwc8kyf2HLOzZV2Zd8HyasOdt6VDYJragB2XyW3dLSadNArt/IUkp4TLr0bby2LTlsmjYrVIg4BYZ+VOsiBkrOya1lIKGTYKaPipDetwmpZwOKXHfXIk0RUQSZMPk9nLLva/IhwNqiE9oB3l3b5IcX/64VHcizjovyM60NAl/p51U6TBRlix6We6/5VFZlCQiCRtkcvtb5N5XPpQBNXwktMO7sjdNxLzwo4xtVkaaDP9MPht+m1RqM0HWxpg58nlZ2u5xUt+JGAXul4VJnvfiNr4pnRvdL68vmiAda7aRyRsuiqSFyzvtqkiHiUtk0cv3yy2PLpIk84JsHNtIfAy7lB+yRi7seUvuDLaJEdhNFieJpIW/I+2qdJCJSxbJy/ffIo8uSt9BFpeWPybFbIij4jBZ5/K8Z556T1p7IdhDpe+3KSISJxvf7CyN7n9dFk3oKDXbTJYNF0WSPrlHvHFKnRd2SpoZLT+/2EJCS7aXl794T7qVdYizZBPp/upPkiApEj7rUWn72DRZvmiY3FogQG4Z+ZPEioiYp2XF0HpSpFZ/+XjJh/JU8+JiN3yky6dJImLKhR/HSrMyTWT4Z5/J8NsqSZsJayXv4kyRDS8/K5NevEMKGIY46zwv29KyfJz0idzjnXFcE2TPlHYSaDPEv9690q97K6lSyCb+tfvJ+Bf7yv1NSovTXljufP+wuMWVo04kyJ63O0hhm02CHpwsb91dUpy2QOn+xcU80mtK7I5J0rKgIbagpvLokB5yWymnOErcJ3M9FVEppdTfbOHChZmv3Ni9HWL3sovdxyE2p01CShSV9z58T75esUxmz50jjZs1EYeXU+xOhzRq0li+WPKlxMXFiWmaYlqWWJYlpmWJaZriNk1JSLwoq1avknbt2oqPr484vZxSqXIleXvaO7Lk66/k4/lzJbRsqBjehti8DbF5ZX8ZXojD2y4Op+fldDrE6XSk/zvLy+vyMg6n/YrtZLzsTptnXS+HOL0828nYlsNpF4cjy77SP8+5jTxf3obYvW1icxrilXXbXo7M7du88nrZxHB6XjYve87Dkinr8Tt54cC/5nWtevX/SenSpSUsLCyX8PE/Iu3oCsb16MgTi09mDv0pWLkRNUNsSOIW9gS9wMevPsng+26BX99l/MK1hCdUoPM9jSma+DuffbENly2Q6g2rEWQT3AWbMmL2m/SoBGd+/oEtKeDe/gaDxm2mUvehPPbYPVSK3cKve1yUbdWUShklbx5l+aI1RIRvJTJsAFOfbUlB0832NwYxbnMlug99jMfuqUTsll/Zc9HFxsmDeX1LCHf2vp/7e7Wh0NqJPPHq5iw5u4bULbzWfwwbqzzK4K796FjsVyaNn8+Jw8tZtCaC8K2RhA2YyrMtC2LaClP31ioUSP81oUDlhtQIyUw4R5cvYk1EOFsjwxgw9VlaFsy9WzcnW0AghRwGmNGcPZNK6pbX6D9mI1UeHUzXfh0p9uskxs8/lW1IlnlsDi++to7oOg8y6IG+dLutEGaML00faklB16+8O34ha8MTqND5HhoXTeT3z75gmwtSN03h2Q/2UqLzAB657zEeqF/w8o8jro1MHvw6W0LupPf999OrTSHWTnyCVzfnMSYregXLUlozZOhA7g4xSNs7l+nfX8y5VLqCVG5YgxAbGCU6MHHBMsbc4U1y+CqiGk7hs5n9qWOLYe0P60nEK3udoCCVG9UkxCYkbtlD0Asf8+qTg7mvxo480usmsHpDqgXZEHdBmo6YzZueisgPWzxjYpVSSv2zjPQnmhuWYDNsxEZH88ncT4hPiCMgKIABAwfQ/I7mePk42b5zO4/1eYx2d7Zn9JgxfPnll/y05md+WfsLXy1byoRXJnBX57t4sHtX1qz7BROL2rfU4amnn6JMmVKkpbpY+Ol8zp0+h80ywARb+n+GGBiWgdPmxNvLB6eXNz6+fhh2OxgGvn7+2J1eiGHg9PbG6eV1+X61xuXt5PwPDGx2B17ePp6b+9rs2B1OHF7e2O0ObA4H/gUKEhAQiN3uwLDZr9hG7v/ZsePAx8uHoiHFcHh5YwnY7A4EA/8CBbE7HJlDua58GdgNz+s/2+j9l/nPHgdnhbsZ99k6vh5S7cpJz47atL3nVto+8w4vP1gev6ZP8d7bUxjZ+Cgz528mTgSXKyVLN5+Bf8nShNi9cDoMcKWQgsnR1asJT7PjdNrxajyJHXGnWNQ9KPv9nu2laHBLGTixnOF3NOapszW5ze8oq1eHk2Z34rR70XjSDuJOLaJ7wUP8+EsEaUYhgoJtGP7++JLG4V/WXN5enjx3zTCjfmHtQTdph79l2pR5HC/ZhhahQmxoAzzJGM4djZ/ibM3bSB8Nla0n8/K/7ZRqcAtlOMHy4XfQ+Kmz1LwtY41rSEnmkilgC6JoiI2oX9Zy0J3G4W+nMWXecUq2aUGoXMgWfBgOL5w2MGy29CI3wLDjsAPeTXnqvbeZMrIxR2fOZ3OcIC4XKWJyYv1GItwQGFQYAxv+/r6ZeXAf+pFfItIwCgURbDPw9/eFtMP8siYiy54zmBz69HvMW8tzPr4Wne4MxW6e5Mvpn3Eyrx7o9FJ3BgYTaLPhdNjBKEhIiC+GtxdOBPNSMilWen5y4ajdlntubcsz77zMve41V0mvZ33DvySlQ+x4OR0YuEifj6eUUupfRMRCBHbu3MH8+QtwuVwUKlSI/v37M/CJJyhdujRpaWls27aNqW9NpWfPR7mnc2fuvvtuHn7oISZOmMjGDRtJTEwkpGgIvXr3YtiwYRQrVhTTNPnyyy9Zu3Yt5Jg3ksHusFO4cGFWrVrFunXr+Omnn/jkk0+oUrUq33//Pe3atcPpdDJ16hTGjx9/xfq5MQwDt9vNhvUbeOaZZxARBg4cyLhx47A7HIwcOZLNmzezYeNGXn311cwnnV+LiEXjxo354fsfWLF8BcuWLaNChQoAtG3bll9/+40mTZrmXE39i/1ngw+PAJo+/AA1c9w21vApSMGsQ/99AvGP+Y6xI5YT2rZh+nyMq4xTFAGEVFcaWAkcPfQHJuDw8sqlwP1p88YyZvapTaHUCJaN7MnE35LwrHqUQ3+YgAMvL5tnhKQApDe6LcvTQM/5nZC0lff7P8Twz49mTnw2vHzwtgGpqaQiuAIb0GfEc7wxbyUr5zxB7YA2vLFsJn1qFyI1Yhkje05kfWrejWIA/zZvsGxmH2oXSiVi2Uh6TlxPHn0G2aTu289RE2xFW9OxmQ+pqakgLgIb9GHEc28wb+VK5jxRO9vdrWxl+zJlysNUOTCfyR+8ysc7SvHQ1DfoVdIG+BDoH8N3Y0ewPLQtDdPnnQjgcrkgy99sRDxH0e7AU5yeKCLXHKdsZNGBUOq6fmf79r0477iXW3wh4ccPmbkn/c4Wf8ZVqhEY+BQseHlOz42kFzJG1CqllPqXybiNrojwyy+/MGf2HC5evIjdbqdZs2aMfX4sTwx6gsZNGxNcJBjsBmniJtVMxbDbCA4Opn79+vQf0J+Xxo2jXbt2+Pr64k5zM3/+fFYsX4HpNjGtK0ckGIaBaVo4HA4qVKjApEmTePLJJ2nfrj1BQUGs+uEHXnzxRdq1a0eHDh34/PPPs90ONy8igt1up2LFijz99NNUrFiRoKAgihQuQrt27ejbpy9PDBxIr169aN2mDU2bXl/AICL079+PoxFHeeTRRzh69CgNGzZEROjRowdBgUHZ5kL8k5PO1fW5si38vy6jUqb/9arblIYFMj9M/8hCspxnF5eNpMf41RR56Dk6BrtJ88QWWVdJ/0fWk9NBpdsbU8ruZtvCWWxJAqxYIiKisbKdGLGsWLyfdjPWs+7tuyhmneWPc2Hc3rgUdvc2Fs7agmfVCCLiK9GqeRgOSSIhXpCLF0nESfnbWmTZHriPrGT2vMV88s0eUtwmbsBetjwVHGAPq0+9YjZS1i9iwYFUwMWB9Zs5E72CxfvbMWP9Ot6+qxjW2T845QbDzxdfA9xuE1wxxCZJZp5jVyxmf7sZrF/3NncVszj7xymubIbnLKhYVs9dyjGjJJ1fHsc9QXbC6tejmC2F9YsW4EnSAdZvPoOZ7fvDgZfDh4aDJ/BYu97M2rqL+Y/XwQ/g4jJG9hjP6iIP8VzHYNyZByh923aTY3v3cNFK4szZeM9REnBUaUXzMAeSlEC8CBcvJoKzPLe1KJ91x577d3+9gOg2w+nx4IM8+OCDPNhzDE+0DYDU3/n4/dUkkqVuZZHbO0LWqpL+/znX9byJWJK56NXTe3n9nDVRKaXUv4xx+Zcj03Tz888/89qrr3L48GEAChYsSNNmTRny1FDenDqFd96bxquvvcrk117l7Wnv8Nbbb/HM8Gdo1aoVwcHBGOm37Z0yZQorV67EbbrBIPPuWDl7LgwjvTdEoF+/fowZM4aY2BiOHTvG+x98gM1m4+OP5zD/0/ns3r0n27p5ybgtriUWv/76Ky+//DLe3t4Iwu23386WrVvYsHEjO3bs4LbbbvP0zFwHm83GmjVraNmyJTNmzCAmJobffv2V4sWK0bRpU1544XnatGlNSEjRHE9GUf9W/6Hgw82Z3d/x9cYTmAiXwlfzxa9Hic/SSos/uInd5yxI2sean4+T+Vu53YHD5mbnvPF8cMhGMW8hZsMyvj9xgT2b9hFrCfH7t7Fj1xZ2nTER8yib1p/Cp+VY3nnyFvzDp3JP0w48PPh99ogvUT9v4IgF5ukdrA1PJuGX1xj68lcc9w0htG4/+rcNpuXYd3jyFn/Cp95D0w4PM/j9PUiAL7eNeZ/hDU6z/MNFLJq7moSmo5k+usnlTACOmn14rnc9ahVJYfVXv3IyqBFPThjoeXaEXztGv/YIlc21jGrVlLseGsb37vIU9U3kl9eG8vJXx/ENCaVuv/609QNnvY60L+fg1JJR9BjxNccESD7Mpq1n8U78hdeGvsxXx30JCa1Lv/5tPcFAusTjm1n+4x7iBcwz65j5ysuMffwxpp5qwyvLf+OzvhXxJGk0rz1SGXPtKFo1vYuHhn2Pu9Ql1m44goXJ6R1rCT/zM9MmfMLy+W8ycdzzPDOwH0NenMX6s5anJ8hhw71zHuM/OIStmDcSs4Fl35/Eu91zvNK1HIlfPcOdnfsya58JBhz99VuOyG2MeX84DU4v58NFi5i7OoGmo6czuknWh/ZZRG/9kMHPf862Dd+x7bTnV6SkqAgu+QZgw+TEwud5buk+DqzJelyj2Ld5LxcsIfHARjaFb2ZrhAusc/y+fhe7fttKlAVW5FY2nEjmeLY6Ecn+TbvxVMU1/Hw8vSZ655VeB7F7NrEv1kLi97Ntxy627DqDKSZHN63nlEYiSin17yWeYVAHDx3itddeY9asWZw5cwbBwu408PZ1ElwkiNJlS1M2rAwhRQvj5+eXedesc+fOsXDBAl555RV27fr9qv3hOQnC/Pnzeeutt4iNiaVz587ExsYy/YMPSE1N5YPpH1x3T4KkPxTQsizee+89ypcvT+vWrbHZbKSlpuHv53n4n2EYPPjgg9StWzfnJnJls9k4cOAAjz76KJ9+8ikdOnRg+LPPcmeHDvj5+VGrdm2KFAnhjjta5lxV/Uv9x261+2e5OX9oH7FBVakc4iD+2B4i7RWoWabAdURvJvGR4RyOD6BSjbIEXDHBxCIuNoGCzgT2HUkhtHpl0u/iC2Y8keGHiQ+oRI2yAVnmpiRxKnw/p4xSVK9ePFuD/zLPfg9d8KJ0taoUz7GQOyaCvccuUbRKNUIL2MCKIzahIM6EfRxJCaV6llvVWhcj2XvMokyNcgRmSb8VF0tCQScJ+46QElo98/bDf46bmIi9HLtUlCrVQi/fVjiDdZZlA5vTbdYhXJnfgzaKPPQ5EQsfwPf8IfbFBlG1cgiO+GPsibRToWbG7YlTOLM/nAuFqlLOfo5o75KUCcqS1qRThO8/hVGqOtVzFtS/0f+39Cql1H/AtW616/TO/dbnYhiYlunpDDE8Q6y9vX2oWq0qNevVpEL5CgQEBuLj7Q0GpKakcjHuIsePH2fv3r3s2b2blBSXJ0gwLQzb5Qf95ezxyCo0NJRtW7fz5pQpnD1zhrHPP8+706Yx46OP6NihA6+//hqNGjXiYmIiIpefrp43T09KfHwCzZo1pUzZsixcsJAvv/ySDz54n6+XLePtt98mOSmJ0WPGcN9997F9+9acG7mSwFdffUVcfBwffzyXZ54ZztkzZwgrV46IiAh+//13br/tNoKCAunYsSNk9OrkIc115RgN9Fa7+eI/+IRz9f+ZFTWH+5p/RvNvPmNAWSfuS9H8PqUrvS68RPisu9BH7SmllPon3UjwkTUw8Ay+NdIHzV6eC5IxNMtut+Pl7e0JPoC0NDcpyZdwmyaGAWJdfhDf1RrdGSzL00MRFBTISy+9RMGCBbFMi73he5k1axbJycnUq3cLDz3UneeffyH9SeLX3raBgQCzZs1iwoQJnD51mpGjRnL69CnmzfuE1q1b07dvH5xOL+bP/5Svv16GlcuclJwMDMqULcvIkSMoU7oMBw8dYs7s2Tw55EkmTXqFP078QY2a1RkyZAjDnhqGKzWXOZ7pRAR3au771ODj76fBh/r/xbWfhWMnscqsRLVSAfg6LS5eLETrgX1oXDhnN4lSSimVv64VfHj5OCH9ZiHXasjnJDme3p3x4ME/QwRsNs/8DE/A4Nm2zWZHLCtLHOT5h0iWOSJXYVmC0+nA7TYxDCN9CJaZmXa7zTN0wrIsbHYbliVXu6dNJk+2PQGTYdjIuPlKxnYznhxv2GwYhicdWedBZmVZFmZa7mORNfj4+2UEH3++9iqVn7yr8fCb85n71kuMGj6MoUOfYezYfhp4KKWU+n/B6XRmCyBuVMbE8WsFAdeSHlN4+hQye0w8w73sdk+AYLPbPJ9Zgs12ffuz2TzLewiWaaZvF2yGDQywxEoPSq6/HDxBh2fblmVl3scxYyiYld5LJNcR1Pl4Z72Vqfqn/E/1fGSNWpVSSimllPpfoT0fSimllFJKKXUDNPhQSimllFJK5Yv/qWFXSimllFJKqX8fHXallFJKKaWUylcafCillFJKKaXyhQYfSimllFJKqXyhwYdSSimllFIqX2jwoZRSSimllMoXGnwopZRSSiml8oUGH0oppZRSSql8ocGHUkoppZRSKl9o8KGUUkoppZTKFxp8KKWUUkoppfKFBh9KKaWUUkqpfKHBh1JKKaWUUipfaPChlFJKKaWUyhcafCillFJKKaXyhQYfSimllFJKqXyhwYdSSimllFIqX2jwoZRSSimllMoXGnwopZRSSiml8oUGH0oppZRSSql8ocGHUkoppZRSKl9o8KGUUkoppZTKFxp8KKWUUkoppfKFBh9KKaWUUkqpfKHBh1JKKaWUUipfaPChlFJKKaWUyhcafCillFJKKaXyhQYfSimllFJKqXyhwYdSSimllFIqX2jwoZRSSimllMoXGnwopZRSSiml8oUGH0oppZRSSql8ocGHUkoppZRSKl9o8KGUUkoppZTKFxp8KKWUUkoppfKFBh9KKaWUUkqpfKHBh1JKKaWUUipfaPChlFJKKaWUyhcafCillFJKKaXyhQYfSimllFJKqXyhwYdSSimllFIqX2jwoZRSSimllMoXGnwopZRSSiml8oUGH0oppZRSSql8ocGHUkoppZRSKl9o8KGUUkoppZTKFxp8KKWUUkoppfKFBh9KKaWUUkqpfKHBh1JKKaWUUipfGBUrVhTLssjtpZRSSimllFJ/ls1my/bKFnyISOZfEQHI/KuUUkoppZRS18MwjMy/hmF4Ag/DwKhUqVK24CPrSymllFJKKaX+rIzgI/NVqVIlya3HQymllFJKKaVuhszgo3LlyqI9HkoppZRSSqm/S2bwUaVKlczgA53joZRSSimllLrJMueAVK1aVTTwUEoppZRSSv2dDMPwBB85P1BKKaWUUkqpm00fMqiUUkoppZTKFxp8KKWUUkoppfKFBh9KKaWUUkqpfKETzpVSSimllFJ/O73VrlJKKaWUUupvl3mrXX3IoFJKKaWUUurvlPmQwUqVKomIYFkWIkJERETOZZVSSimllFLqTytfvjyGYXgmnGuvh1JKKaWUUurvkhFr2HTIlVJKKaWUUurvlBl85HxTKaWUUkoppW6mjDhDgw+llFJKKaXU3yrX4EMppZRSSiml/i4afCillFJKKaXyhQYfSimllFJKqXyhwYdSSimllFIqX2jwoZRSSimllMoXGnwopZRSSiml8oUGH0oppZRSSql8ocGHUkoppZRSKl9o8KGUUkoppZTKFxp8KKWUUkoppfKFBh9KKaWUUkqpfKHBh1JKKaWUUipfaPChlFJKKaWUyhcafCillFJKKaXyhQYfSimllFJKqXyhwYdSSimllFIqX2jwoZRSSimllMoXGnwopZRSSiml8oUGH0oppZRSSql8ocGHUkoppZRSKl9o8KGUUkoppZTKFxp8KKWUUkoppfKFBh9KKaWUUkqpfKHBh1JKKaWUUipfaPChlFJKKaWUyhcafCillFJKKaXyhQYfSimllFJKqXyhwYdSSimllFIqX2jwoZRSSimllMoXGnwopZRSSiml8oUGH0oppZRSSql8ocGHUkoppZRSKl9o8KGUUkoppZTKFxp8KKWUUkoppfKFBh9KKaWUUkqpfKHBh1JKKaVugJv4czGk5Hw7JZYzp89wLj415yd/iZl4nugkK+fbf1EeecjJHc+5mGsudQPcXDx3jotmzvfBSonm9NlE3Dk/yEfui+c4l3viiD59lsR/MnH/q8yLXEzK+eb/tv9Q8JHKyW1f8uKdZSkcXIQKdw5h3IgeNK9RnSb3v8DyY//cGeU+tYm3ulahSOGSPLo4OefH18HNqU1v0bVKEQqXfJTr20Qip07FcbO/zpVSSv2dUojavJjRrUtROLgIlTo+w6uvPM+Ajg1p0KY3r64+SS5Nx0ypx5fzZMOiBBdrweQ9f+66F7O4J1VKlqHV5L1ZGsoufh3diDK39GbhsbRsy/8lrh8ZWqskJRuPzfnJX5J7HnKKYXHPKpQs04rJe/Ne6npZ0WsY3/Eunl34MYNa3cn4Nec912ArhnWTO1GpcAihJYpRqdMbbLqYc22TM7uWMLZNKQoHF6Zk69F8seEoFy2T09sW80KHWrQfs5jtRw6zfsFTNCtemOAileg47GVeeqorbVo9yLMfbeRsXpXDimbN+I7c9exCPh7UijvHr+G8J3HErJtMp0qFCQktQbFKnXjjysRdk+vkNpa8eCdlCwcTXLg0988+ma394d4zmZbFChMcHEKNHtP4Yedutn31EneVK0Jw4VLc8cSrvPHaJF4YdDd1SlWg//IUUqI2s3h0a0oVDqZIpY488+orPD+gIw0btKH3q6s5mVde/w6JpzgVd4MtqsRDfPfOk9xZvRK9l15Xw+1/R8WKFaV8+fISFhYmpUuXlv9tLtk0spo4sEu5J3+WFDHl2LutpYBhSIHb35D97pzL55c02fZ8bXEaPtLl06ScH16ftG3yfG2nGD5d5Ho2EfPjM3Lf2I3iyvmBUkqpfzmXrB1aQRw4pOKwdeISEfPMJ3JvsE2MAs3lzatezBJl3j3egrOOvLAzLeeH18W1e6b069xNJv54QcyMN1PWytONWssrmxKyL/xXuY/KoqfulftHL8/5yV+Sax6u4JLdM/tJ524T5ccLeS91fS7K94+HiVfVEbLBlSLf9A0VZ7knZHWiyKV1E+SRga/K+289I61LOsUwfKTZawfkyqOYIj8NChM7din1+CpJyXzfLYenDpPXwtPXuLRMehe1CY6KMmydS0RSZO/UVhJo85aKvT6XyFyycvH7xyXMq6qM2OCSlG/6SqiznDzhSZxMeGSgvPr+W/JM65LiNAzxafaaHLgycdfk2jRWmpcIEhuGeDd6RTKSK5Ii65+/V26p7BTwktbvn/YcE9dmGVXdIdgKy6NLL6Uv65bjsx6VJ5d4GjqutUOlggNxVBwm6zwngnxyb7DYjALS/M39uZTh3yFGfnzmPhm78QZaVJciZO2iadKnjo8Yf6Xt9/9M6dKlJSwsTP5DPR8ehi1rlm2UqFKRIJuQHL6LfZk/1qQSe3w3m7ceIjpr77E7hiPbtnEoxkX0+dgsUXsq0Ud2s/dE4uX38lw2KzcxR3ey/Uh07p+nRnNk915OJOb6qYc7hqM7t3MkOvdlUmOPs3vzVg5lyUjizmk82vM99qWYpLkzfhqwSDyxmy3bDnA2Ww+zm5gj29h2KAZX9Hlic9+NUkqpfGTYjGz/bytckxql7UjSLrb87rr8wRXXEYPsa3rkdq3wSOF0+GY2/R6FZxMW9mo9ef+L+Yy+o3Dm8AnrUhDtn3+JLmHOy6uabtypqbjdJhYuzu7/nUPRV+tBuPJaalGGB17/jM8mdMy+ZPQRdu89kZ6mnPuyiIvYzZGYyz99p5wOZ/Om34lKtPLMwxV5texU6/k+X8wfzR2FM3P6566VyWv47OsoxL8ABW0GAQEFkKiVLNl4CVfpR5j6/igGDXuDBS+1wRc3Z06ezbUHK+O4G0aO429zcLl5Y5D9Y29qDHia+4q7OTJ/OBO+zdlzkcyaz74mSvwpUNCGERBAAYli5ZKNWK7SPDL1fUYNGsYbC16ijS+4z5zMuwflagxvbnusJ1Wd4Nr+CR9vTq9riT+zIrEl95S8Mm/Z8uH6jZU/xFG621B6VPJKX8CWvT7bClOzRmnsksSuLb+T5UzwsEzcqamkuk0sK5lTe7cTfjrnsLrc2oAmbncqqW43pgVWXAS7j8RgksjOaY/S8719pJhpuM2MA39lXc7GpxzNuw+ge+Mi/6UhSJn+i3m+zDrLT1+u4bQEUK9/H+7wAde+2fRsN5D5e/bx2eD6VGgyip/jAPc+pt3VlKHfR7Fjeg/aDf/BM1Y0fhNT7mnO40v3sXRgE9q/upHEvJbNtu8zrHyqIVXunc6e3V+zYN25bBU0ftMU7mn+OEv3LWVgk/a8ujExy6ce1pmVPNWwCvdO38Purxew7lyWLbj2MbtnOwbO38O+zwZTv0ITRv0cB0nb+XTiNFaddnNm1SsMHDITrGh+er45Nbp9wrGjs3igdlsmrovFws2+aXfRdOj3RO2YTo92w/nhiowopZT6p1mnt7Ej0sQW3Jy2jbzhOq8jeV4rAC5u5NU7mzF4+S4+7lGFKp3eIzz5BN8+WY8C3n7UH7cLNxbRPz1P8zqPszrpFLMfqE3bieuItSzidr9O2yI+eBdtTu+hfXmg3a3UqNWNeVG5NMdyu5ZicX7zeFoG+eBTaWjGgmyacg/NH1/KvqUDadL+VTYmwsX979M51Bfvog/x+ttdqFm1HrcOXkoyF9n46p00G7ycXR/3oEqVTry361iOPOSe113HvuXJegXw9qvPuF3uv3StNKP2sj/GArsDuwE2mw3Ms+zfe56AsHKE2ABseHt5YdiKclurOqQ3r28O3/rcUs0O5mm++/q37J+ZUezdH4OFHYcncdgwObt/L7aAMMp5EofN2wsvw0bR21pR508mzlFrAAOb+2O4D7No9g9cBKK/XYvXXR0JzLlwNhaxPy5i2bFUKNCAxrUcORfwsE6zbUckpi2Y5m0b4TkTLnNFreCJOv54+1bgju69eLz/vdSvVJc+n0dhcpU24MX9vN85FF/vojz0+tt0qVmVercOZtH6T5k4bRWn3WdY9cpAhszckUddzl3OIPI/47827GrzczXEgU0KNx8go3o1lVDvAKne/U1Z84ena3L1wNJi92ooL4cnyZoh5cVuLyMDV6eI+8Bkaex0SpnOU2XjuUhZOHulJIhLNo+uKV4hPeXrJFNOvddavAu0l/fXTspl2RwpWf+sVHE4pdbYrZImLvn16UriyOh6c22W0TW9JKTn15JknpL3WntLgfbT5WS2rlKXrH+2ijictWTs1jQR16/ydCVH5rCrlNUDpbTdSxq+HC5Ja4ZIebtdygxcLSkikvR5VylkOKTqCM+wq5TfhksVp1Pqj98jaWm7ZVx9pzirj5QNyQdkcmOnOMt0lqkbz0nkwtmyMmdGlFJK5TOXrBtWURzYJKRlfxne/365LayAhNw2TBb+Hpe+SF7XkST5JMuwq7yvFWmy7YW64h3YTT5PdMnGMbXEt3BXWRQjkjjvHvHGKXVe2ClpKb/J8CpOcdYfL3vS0mT3uPridFaXkRtcIimr5YkydjEKtpfpUSmyaVR1cRiB8tAXOYeY5H4tnX7SFLm0XB4rZhN72KD0bI2Wml4h0vPrJDFPvSetvQtI++knxXRtlBFVHWI4y8rDc7fIqilDZezio5Ky7QWp6x0o3T5PFNfGMVLLt7B0XRSTPQ955jX7ELW/cq10bRol1R2Is/ErcsDtkg0jqooDp9QftzvLUrHy1aOhUqTdu3kMa0qRn58sJ3bsUjr9eu7hlqNvPytvZqyUXmaXh12JiCTJ/Hv9xADx7jQnc00REXFt8gxvcjaWVw64xbVhhFR1IM7647ItFvvVoxJapJ28m3virsm1eYK8+HmixHz1qITaEVtQF5l7KlJmj31Tfnf9IdPu8BLwkjYfnMkcdvVcDYdgFJAGPR6XO0r6Sev3TmUbJudaN0wqOhBbSEvpP7y/3H9bmBQIuU2GLfxd0s+EHOJk9l3egr2s9P82Qcy4z6V7YVv6sK2824AiLtk4oqo4DKeUfXiubFk1RYaOXSxH3UnyeddCYjiqyoiNrqvX5Suk70+HXf1XGBSq3Z3xc39l+8IuJH8xgra3dufj4w6aPvUeb08ZSeOjM5m/OQ4RF64UwV6qAbeUgRPLh3NH46c4W/M2CppR/LL2IO60w3w7bQrzjpekTYtQDK/6Vy6bbf8mJ9ZvJMINgUGFMbDh7++b2XVoRv3C2oNu0g5/y7Qp8zhesg0tQoULWX8sMk+wfmMEbgIJKmyAzR9/38sRtHfTp3jv7SmMbHyUmfM3EyeCy5WCZNmEh5tDP/5CRJpBoaBgbIY//r6QdvgX1kSWoIEnIwy/ozFPna3JbdkzopRS6h9jI6BOV+4LjWJnZCIxx85gK+L5kr6u68jVrhXmUVavDifN7sRp96LxpB3EnVpE96DsQ2Hch37kl4g0jEJBBNsM/D0XEH5ZEwHpVzXDvySlQ+x4OR0YuEjJ2YOex7VUciYWk6hf1nLQncbhb6cxZd5xSrZpQahcuDxywFGbtvfcSttn3uHlB8tyfPVqwtPsOJ12vBpPYkfcKRZ1D8o+nCfPvGYdovbXrpX2ggXwN8gsEyt9eI5fgQKZy6Rsf4cpO9vw/qxBVLFnvn1dLMuOI8uItyulkHzJRLARVDQk+0f2ghTwJM6TOsv0lKff5bSRsp13puykzfuzGJRL4lK3zmLEsGEMGzaMYcOe5Z010TkXSWcQdNeT9KruROJ+YNbkD4ks/yA18+jIAM9wrWoPTGXFwiFUy2M5W0Adut4XStTOSBJjjnHGViRHu+sywwBsRShZyhebfxUql7bjjtzG5j/ybgNe5qB223u4te0zvPPyg5TPWRTXXZf/2/6jwUcGG8U7PsAdRQzcZ75j6S+J+AT6E/PdWEYsD6VtwyBPAQng34Y3ls2kT+1CpEYsY2TPiaxPTSU1FcQVSIM+I3jujXmsXDmHJxq3z2XZ7Ht2uTwjETP+ZpOaSiqCK7ABfUY8xxvzVrJyzhPUznbSufCsmvE3B59A/GO+Y+yI5YS2bUhQZkauJOJ53+6wAxaWRfpXkD9t3ljGzD61KZQawbKRPZmYMyNKKaX+OYY39UfPYHTjglgnv2D4059x0rre68hVrhWSiisNrISjHPrDBBx4eeXSZBDxXFnsDuyA5bmA5DqvxCN9+WzyuJZekVhI9SxIYIM+jHjuDeatXMmcJ2qTsaThU5CCPhlLC6meTHD00B+YgMPL68qGz3Xm9a9cK+1la1AlwAZuN2ZG8GELoXK1UM8CiRt45aU9dF8wg66lbSSG7+HoFfMqDLx9vDAAy531jmJCfJJBQEDOlnAWqfvYf9QEW1Fad2yW/TN7WWpUCcCGG7cncVjYCKlcLX2BRDa88hJ7ui9gRtfS2BLD2ZMjcVZcJHt272b37t3s3r2Ho+dya5ik82rA4wNbUoAUNn55gtr3lrnymFzBhn/j7nSt5YsNk2Orv8/xuYF3/dHMGN2YgtZJvhj+NJ+dvI4Gv+HEywkZ82TybANmLu9DwcsVLBfXX5f/y659vP/HZHx5ZIyzM08e4miCYHjX4JY6FstG9mD86iI89FxHgt1pSEa9i13B4v3tmLF+HW/fVQzr7B+ckjDq1yuGLWU9ixYcIBVwHVjP5gPLrlw22xw7O2H161HMbnJs7x4uWkmcORvv+aVBwB5Wn3rFbKSsX8SCA6mAiwPrN3Mm63lk9+zbbh5j756LWElnOBvvWUCAi8tG0mP8aoo89Bwdg92kZWYEbOljTi3Lwh13kSqtmhPmEJIS4hG5yMVEcJa/jRblE1ixeD/tZqxn3dt3Ucw6yx/ZM6KUUuofkH4pAxEM73qM+HAstwUIJ5c8y1MLTmDkeR3J3vjP81rhqMTtjUthd29j4awtJAFWbAQR0dblfQOOKq1oHuZAkhKIF+Gi5wLCbS3KZ2u1CeQ+8ZbL17MrrqXZLnpcvnbaUli/aAGebB1g/eYzWOn7ErGQy90gVLq9MaXsbrYtnMUWTyaIiIjGzFoIeebVzJIDx1+7Vvq3pEv7onAxnnhTSElxYZS4ky63e4N1hmXD+jDnZBI/j3uY+7q0o+WIFWT7wR0AL6o1qEugzSL+3FkyHw1hnWJXUjB1Ay4vmVk90v/Grp7L0mMGJTu/zLh7gi4vCIA/Lbu0pygXiY83kZQUXEYJ7uxyO2BxZtkw+sw5SdLP43j4vi60azmCFTkS59N2It///DM///wzP//8A9O6pQdVubJR9uHB3B/qoEK3AdwVBGQewWyVO/2f4gn0vOpye9NAzBNfMmHBkSuXNbypN+JDxt4WgJxcwrNPLeBEziqUkxlDdLzgKFufhiWT824DZvwVwbpcwQAbdocdAwvLchOXUPg667KH27Q828ycqP4f8d+Z8+GSUzu/ludbBooNQ3xrdJXRYwZJl/oVpHKzh2TCyuOSJgmy7LGS4jD8pMajr8t7g24VP8MplfsulT8SFkqvBg/IuHnLZGbvW6T+sz9KrIi4IxZIryr+YnOWkPodu8vAt36RcxdzXzYb91H55KEK4utdShrddb/c16yU2G0+Uqv/F3L4klsiFvSSKv42cZaoLx27D5S3fjl3xe0A3Uc/kYcq+Ip3qUZy1/33SbNSdrH51JL+XxyWhGWPSUmHIX41HpXX3xskt/oZ4qzcV5b+4Rb30ZnSuZhDnKWaSI9XfhQxz8mqUU0krOnT8uknQ6VRWAt58ecLYkqSLOzVQB4YN0+Wzewtt9R/Vn68IiNKKaXyT4r8sW2JjGpWUAwMKdhslHy146S4JE3Cp94hgTbEVrS1vLg6Qg7lch25dHyFPF7DKdiKyl1v75LIpXlfK8xTy+Wp+oFid4ZI7TsfkoETv5YjScdk+eM1xIlNit71tuyKSZNzq0ZJk7Cm8vSnn8jQRmHS4sWf5YJpSszWidKioCGGbxN5af1W+aBTUbHhlFqDV+WYw5jHtdQUkUsrpU/xy3M+xB0hC3pVEX+bU0rU7yjdB74lv5wzJW73VGkfbBPDWVsGrTh2eT6EeUqWP1VfAu1OCal9pzw0cKJ8ve9wjjyYueZ13+Hl2coqJu2vXSvdkV/K4w1ayrAFc2RA00YydNlJMcUt+9+/U0Jsme1cAZsU671cMm4um437mHwxuKGEFKgsD7z6uaxavUzmf/CufPF7oufzi8dk0+dDpb6PIRgFpN6jL8nEMQPknlYdpN/r38mxyxNFsnNHypePN5CWwxbInAFNpdHQZXLSFHHvf1/uDLFlSRtiK9ZblueauLy5/tgsC4c1ldpd35Fvw6PFFJdsm/i4vBHuFjEvyL5VU+TeknYBh4R1fU9++j1cdn79vLQMtAmGQ8LuGimTX5ssLz39kDQp6SPFei+XlD+2yZJRzaSggRgFm8mor3bISZdIWvhUuSPQJtiKSusXV0tktjtKx8mcTt6CvYx0mThfvpzRW6oEVJU+n0WK+2ptwOjdMrV9sNgMp9QetCJLObrl6MzOUszhlFJNesgrP57Luy5n5T4je1Z/LP1reYmBQ8p1e09W74++op33vyZjzodRsWJFsSwLy7IwTZOoqKic8cl/i/s8h/bFElS1MiGOeI7ticReoSZl/BKITSiIM2EfR1JCqV658OU7UbhjiNh7jEtFq1AttAA2Ky7vZbNJ4cz+cC4Uqko5+zmivUtSJujyku6YCPYeu0TRKtUILZBHJ1XKGfaHX6BQ1XLYz0XjXbIMnk24OX9oH7FBVakc4iD+2B4i7RWoWaYANsCMOcreUz5UrFkS//RNJZ0KZ/8pg1LVq1PcD8AiLjaBgs4E9h1JIbR6ZQrnnhGllFL/Qte+jlz9WoEZT2T4YeIDKlGjbAB5DuxJOkX4/lMYpapT3XMBuXE5r6UAru8ZUKETc7wH4T46LWNBYiL2cuxSUapUCyXXbGVjEh8ZzuH4ACrVKEueo5OuM69/6VrpjubI3j+wl61JuaC89nBtrvOH2BcRg1moLNWqlMD/mmVwPdxEH9nLH/ay1CwXlGf+/3+L5+O7i9Hnh5qM276Gx53HSChchcoh6ffFyqsNeNVKZhJzdC+nfCpSs2R6iyq3uqwoU6YMdrsdDT6UUkop9S+TxHdDmvFu2bHUmtuDd4ImkfLriJwLKXWD4pjTqTh9V9Vk3PZNvJTXLXvV3yIj+NBgTCmllFL/Mj6Uq1eHtA3LOFysM+Mm9c25gFI3zBXxM9vOBRMSnMzBX3ZwWqex/iO050MppZRSSin1t9KeD6WUUkoppVS+0uBDKaWUUkoplS80+FBKKaWUUkrlCw0+lFJKKaWUUvniPx18WCkxnDpxjsT0ux2YyUm4ci70V7gTOXfiOJFn4vHsIpWkpNScS12WEsPJE+dJNgFSSE7JuYD6W6W6uMrRuU5u4s/FcPMP3d+13X8vd/w5Yv4VGU4l7mQkp+P1tihKKaXUX/UfDD4szm34gEHtb6Fht5dZtOobFk2fxIhBA3ik71S2Z2t9ujm982smdq5AkeDChN7en1ffeJ1XXnqabo3DKPnAPGKyLp7OOruOt/u0pF6LAby99Gd+XvoBo/s9TK++Xen91p70QCSrJHZ90JOOfd5i+Y9LeHfsE/Tv3Zc31l4tFEokYv0CnmpWnMLBRajUcRgvv/QUXdu04sFnP2LjWTPnCv8SqRxf/iQNiwZTrMVk9iQfZ/mTDSkaXIwWk3Mrm+vgPsWmt7pSpUhhSj66mOScn1+XVLa83JuXt9xI+JEjL26IWdyTKiXL0Gry3j+Xlzz8Xdu9Xq6T21jy4p2ULRxMcOHS3D/7JFaWz917JtOyWGGCg0Oo0WMaP4Sfz/JpTleWm0cip07FebYbs5ieVUpSptVk9l4jw6nHl/Nkw6IEF2vB5Msbu4os+7kG8/gXDGrYkMdeGsStpesw/KfEnIsopZRS6gb8x4IPi7PfDKVV26f4tthYVi6dyvC+j9F/yFgmDa1NwvH4HA0SByXqdaJzvQASYmNJLNGGoSNGMmb8W3z+/Wy6h7rJ2cS3TnxJ/+btGbG2Ei8vn88rQ/vw2BOjeeOjqXT1iuBYiuRYA8x903jiuXAaPvcSTzw2kFGvvkHfMjGcdl257GUFKN/sflpXFuJi46HK/Ywc/w6fvnM3MbOf4I7b+rI46nqaV/nNi7DWDQlNiCU2/hKmVxitG4aSEBtL/KWcpXmdHKE0aF4Fn4RYYhJvJHjIInYF785awpwPviMu52d5ypEXoEC1VtzdsRMdG5a4qSfX37Xd6+VdsgF339WAMG+IjznJNzM/4UDm4XKxZfFWLgZeJDY2gRLNutK2Rkj2DWRzZbkBxP70EkM+OOAJrgpUo9XdHenUsSElrpFhr7DWNAxNIDY2nuupQtn2c1UprJ70NB/t8qNhz550bd2AcsHOnAsppZRS6gZc47L+P+biKl4cMoN9aTXpNfweimfJvVfVfox+tCK5PevSMIxs/+/67XvWGLfTu0dd/LJ+YJ3ny1FDmHvIpPpDA2lfOMsObMW5a9IEupW4cg9pB/ZyMGkP88ZNZ0u0BRSg4eAhdAjOvt/c5Eybd40BPH1fcdxH5jN8wrdczPwklegju9l7IjFLgOUm5sg2th2KwRV9ntjMD1KJPb6bzVsPEZ3Zljdxu1NJdbsxLbDiIth9JAYzz/c9rMQT7N6yjQNns4yfyZHmHP8Lea2XC3fMUXZuP0J0rnFWbnnOjUnE/A9ZcdbNqaUfsCgy69IWpjuV1FQ3pmWRfGov28NPXx7+lC3xFvZqPXn/i/mMvqPw5ZMr5TThmzfxe1SOdKTGcnz3ZrYeir5iuFfK6XA2b/qdqEQrz+3mXkbZj4fr7H5+PxSdo6GdS7m4YziybRuHYlxEn4/NvbwMb257rCdVneDa/gkfb05PdeLPrEhsyT0lPWXhqZMWpttNaqobtwmYbtypqbjdpmfbOQ564s5pPNrzPfalmKS5TSx7NXq+/wXzR99BYRtYppvU1FTcpoWVfIq928M5ffkgkEsVIjX2OLs3b+XQ5Up8xX6yLHzlsTAvEvXHBUxMrMJdeHPpPJ6s5517uWfLn0VcxG6OxJg53k/h7P6d7D2V3jeXfJrwnQc4n+Pg55ZupZRS6n/Ffyr4uPj9PL6MdGME1+PWKjmDAB9uGzSQxl453s7JPMlXM78kwu1FrUb18c/6WcIPfPbNWSybP9XrVrsykAnuwojBda9433nL7TQqZHJ86VPcVr0hPV//nsiAjtxzm3eOJa+HL/VvqYYdk9Pffc1vLiB+E1Puac7jS/exdGAT2r+6kUTc7Jt2F02Hfk/Ujun0aDecH1LAtW82PdsNZP6efXw2uD4Vmozi5zjg4n7e7xyKr3dRHnr9bbrUrEq9Wwez9Gwe7ydbRP/0PM1rdOOTY0eZ9UBt2k5clyXAycv1rmdxZuVTNKxyL9P37ObrBes4l3WZXPOcB9cWFkXdwVMt/OHiGmbM2nm5se6KYsUTdfD39qXCHd3p9Xh/7q1fibp9Picq56/sqSf49sl6FPD2o/64XbiBixtf5c5mg1m+62N6VKlCp/fCceNi3+yetBs4nz37PmNw/Qo0GfVzeo/LRTa+eifNBi9n18c9qFKlE+/tOpZju3mXkRW3m9fbFsHHuyjNew+l7wPtuLVGLbrNi/I0+nMrF/c+pt3VlKHfR7Fjeg/aDf8hz7kljloDGNjcH8N9mEWzf+AiEP3tWrzu6khg1gWtWLaOu40AHx+qPP0L0fvf4+4SvniF9GBJznFxSdv5dOI0Vp12c2bVKwwcMp0T3z5JvQLe+NUfxy63i6gVT1DH3xvfCnfQvdfj9L+3PpXq9uHzKw4C4NrH7J7tGDh/D/s+G0z9Ck0Y9XNcLvuZCXkeCze7577I/HA3WMdZOv59NqbmXe4X979P51BfvIs+xOtvd6Fm1XrcOngpZ/dP465ivngF3soD/R/j4XtbUqdyE/pPeIl+Pe+nQ6OaVLvnA46YV0m3Ukop9b+kYsWKUr58eQkLC5PSpUvL/y637Hv5VnGCOCoMlV9cOT/PS5r8/tIt4sQQn1t6yIhutSXA50756ELO5UTc4ROlgRPBXkae+DEl58dX4ZbIr5+WxkUcYoBg2CTwlkGy5Lg754I5XJLljxUTGw6pOGydZGQpaf694mcgeHeSOQku2Ty6pniF9JSvk0w59V5r8S7QXqZH7ZPJjZ3iLNNZpm48J5ELZ8vKhBRZPbC02L0aysvhSbJmSHmx28vIwNUpIuKSjSOqisNwStmH58qWVVNk6NjFctSdx/tJv8nwKk5x1h8ve9LSZPe4+uJ0VpeRG1wiSZ/IPd6Is84LsjNNJOmTe8Qbp9R5YaekpVxlvaxc6+XZKg5x1horW9NEXL8+LZUchvh0+VSSJI88nzSzbyPdhS9GyfPfJciFzx+SojbEXqqvrEi4/Hnc7LvEG7uU7f+tJJhx8nn3wmJzVJRh667MS+K8LHlJ2yYv1PWWwG6fS6Jro4yp5SuFuy6SmJTVMrC0XbwavizhSWtkSHm72MsMlNUpImnbXpC63oHS7fNEcW0cI7V8C0vXRTHZt3vVMkqR1U+UEbtRUNpPj5KUTaOkusOQwIe+yLNc3l87SRo7nVKm81TZeC5SFs5eKVmyn8m1eYK8+HmixHz1qITaEVtQF5l7KlJmj31Tfnf9IdPu8BLwkjYfnBFTRC593VOK2OxSfsgaSXGtl+FVHGIEdpPFSXJFuSV93lUKGQ6pOmKjpx4nzsv2ucTNlru8EXvZ/vJtgilxn3eXwraMep8kn9zjLTjryAs70yRl9UApbfeShi+HS9KaIVLebpcyA1dLiuSyn6scC5FYmdXRW3A2klf2u0WuVu6ujTKiqkMMZ1l5eO4WWTVlqIxdfFTcrl/l6UoOMQp0lI9Om3Jx3j3ia9ilTN+VEpe2VyY0cIrh21nmxslV062UUkr9f1e6dGkJCwuT/1DPh0FAQEFsBlgJ8cRf8Uv6tTkr3M24z9bx9ZBq2HN+CBiBQQTYDJAUkpMy5mu4OLn5E567/w5atGhJm54vs+JAfPYVU9Ioes9Uft2zlumD76CMjxC340MGPrck1wnt15KSfAlTwBZUlBBbFL+sPYg77TDfTpvCvOMladMiFIkNpcEtZeDEcobf0ZinztbktoLeNH3qPd6eMpLGR2cyf3McIi5c2eapOKjd9h5ubfsM77z8IOUzCyL7+2WO/sgvEWkYhYIIthn4+/tC2mF+WRORZVtXch+6vvXME+vZGOGGwCAKG2Dz98c3Y+yNmUeeL+Ry0M1DfPq9ya3lzxNfqxN3htoxT37J9M+yTKg2DMBGkZKl8LX5U6VyaezuSLZt/iP7tnKMJjKPrmZ1eBp2pxO7V2Mm7Yjj1KLuBHk35an33mbKyMYcnTmfzXGCuFykiMnR1asJT7PjdNrxajyJHXGnWNQ9KNt2r1VGBoDhT8nSIdi9nDgMcKWk5Fkuhld9PFVhOHc0foqzNW+j4OXd5WAQdNeT9KruROJ+YNbkD4ks/yA1c3bnpcs6HCq3oVF5umIsnmdola1ISUr52vCvUpnSdjeR2zbzR47OD++mT/He21MY2fgoM+dvJk4ElyuFXGdQ5Xksci547XIHwFGbtvfcSttn3uHlB8t7vicMMJyBBAfasDkd2DEoGBKCr+GNlxPEvERyinVj6VZKKaX+n/oPBR82irVuSz1vAysunN+P5jJc47oE0PThB6iZy4goW7E2dGjkh2HFcuTgyfR5D96UbPQA9Z07+XXdek6HtqV91YBs6yV/+yFzDpk4ijfl8fd+5ve1r9AqGOL27ebYtWfF5pDKvv1HMbFRtHVHmvmkkpoK4gqkQZ8RPPfGPFaunMMTtQNo88YyZvapTaHUCJaN7MnE9an4BPoT891YRiwPpW3DIE8Fydr6MXwoWNAnyxt5vC/iWc3uwA5Ylqcpn7NJeYXrXc/l8twWOeNvNnnl+coWcsrGRRwIrYvr9+1s3+vkjntvwZcEfvxwZpa7MGVl4PTyTDrOOd8mJ0l1kYZFwtFDngaywwsvG4APgf4xfDd2BMtD29IwyHMaCkKqKw2sBI4e+gPPKl5XnqTXW0ZZiJB3uTRuzxvLZtKndiFSI5YxsudE1l9tuoFXAx4f2JICpLDxyxPUvrfMlWkktwDi5jGcXjjx7OOKvfgE4h/zHWNHLCe0bUM8xZtXEz6vY5GL6yh3w6cguZ0eV5e+txtKt1JKKfX/U65thv9V9moDmTiwBr7u3/n84xxzAFIP8fknPxOPi13T/q+9+46L4uj/AP7h7uiCoLEgIoh4RqNRhNg7Ko+xxygGo2INTxIsURNLYldijDExMWqMLRYiv8cYSwQrRaUoCtIEg0iRXu6QIuV2v78/7mjHFVAkaub9evFK3DI7O/Od2Z27nb0pcHxnKnZHKu7A5HduVf/V6zUAfZrJF5VF7MIUx3cwdXckyoVd8N9vv8TgFhzunPJCTNUNnAACoQA60IFQJIRA+RhlIdi33Qc5io/azd5xx4cDDNDK/h3YcRHYNcUR70zdjcrs1FJ5b1L5X8llHD79CDqWE7B5/USYC23gYN8GgtKb8Doeh3IAZXE3EZqZh3Pe9zF6300Efj8WbfgsPE6X4MznM7Dh8hv4YOW7aCGrACkfggg81f4GQdVyUZcRGGIjAhU/QQERCguLAF1bDBpqW12eCjX/qXG/GoQ2DrBvIwT3KBpRhTyKM7MU32YRoPaclb754HPw5/E8jFw2A1OnTsXUqVMxa/V/Mao5UH7vEHZfVjVLhEN+XgFIZA2HPpaaz6XzYPRrL4Qs7AR+vVUMgIckMRF5BWfw+YwNuPzGB1j5bgvIKipLWYTOg/uhvVCGsBO/Qr6LBImJeeAaUEZVmxJQa+a4unKJOwPv+6Ox72Ygvh/bBnzWY6SrHHhVEsDa9RNMaSdCJ5eFGGsOAHyN48r/T8fIEIY6gEzGAWX5kBRTjWCqXW4CoQhCHfkNvUwqqbNeGZefhwISwdqhDyyFikGBQuGZzzFjw2W88cFKvNtChqriVXWcQnV1gZolKa8djeUu35aIh1LzUDl+kJ9e9YZEmvPNMAzDMK+Lf9XgAzDDyG8v4uyW92F8ah6mrvoVZ69ew19ee7Ft6xno9h2A5ijBg6BAhN8NREhCMTIjffBncCo4EJ7GXMb/XX9Y65GtkgdBCAy/i8CQBJQBMHpnJc77HcLCZicwc8pK7P3jIq5e8Ibf3zpo8/YIjLZvDZ1axygDBMbQTzmOz5dvw5Gzvji96wucpCU48PV4NC95gKDAcNwNDEFCrY/4i5AUehZXogpA4JAZuB9bN6/BR3O+Q/rIrTh743fMsxMBMMLoVdvwoZhDwBcjMGDsB1jiK4Nta0MU+W/Dos1/IMmwFdr1mo8Fo4wgFIkgkIXjyIaf8UDQBvqUj6AzvkjLj0dIZDZ4FCPW7xqSKvNSoGa5/iCs3r0MjhlnsdfLC4cvP8GAVXuwqj+Q7BeEBB7gMu4iICISV4MSwINDxt0AxJQMULOf0psAjEZj5dZp6Fj0Bz77zwTM+zUWHHSAh9dxIUGg5pxrhDufh9t7P8GXJ8MQ5BOGDA4AipGS+BSGzQUAl4oTX67E6YTK2dE8ciLO4OSpwzhwIQt2szZj6QDlc7mHKzXP5ekQrPnhU/Q2jsF3EwdgjOsn2B1FaC4QQiQSQBZ+BBt+fgBBG31QfhDO+KZBd9ga/PBpbxjHfIeJA8bA9ZPdiCqTwL+eZcRLohASKwFPBbgfdhcRtyKQyRG4hyG4mW6gulzal8B/2yJs/iMJhq3aodf8BRhV6zVuQHnaLZzy8sWfp36FT2w+eLMx+NR9LhYsGAADPg/3r/4f/B9wAHgkBJyCf1w+dO3fhXNHEdJPfYEZK/7EIwJQ8jdCbqfWLrcYCYT2wzG4FfDo5HIs3BOKpGu111c2OT4nAmdOnsLhAxeQZTcLm+WVgCD5xrgbEAOJjggigQzhRzbg5wcCtNEn5AedgW8aB91ax7kLQF1dpCIn+gKCHnIA/xh3LocjS1ddTOuhID4Ekdk8UBwLv2tJVd/GFcaFIjqXBxXFITgkBqG3E1EGHtn3biIi4gZup/AAn4zbQamQCdXnm2EYhmFeFzp2dnbE8zx4ngfHcUhJSVHe5vXEFSMrKRGp+RxMO4ghblPjbqskA/dTgI5vWkD7ExQlyJBvDItaG/MoyUrAgyQJZM3eQDvL9mhrpl892qtxDD1JHgqat4S5LA+J9xNRYGiDbuJWqHyyqyTjPlLQEW/WPkDDyPKRGP0IT1t3Qdd2zSAAD6nkCUx0nyA2oRTtuonRUg+ALAcPYiUwf1OMVqICPIpKhrBTd3Ro9ozj1OJ0xNxPh077bujWVumOVpN67leaeR8xuaZ4s6MQ2Xn6sOxgjqphSp1zfjYFh8ajzdyL6L7+Dvw+0sWjJy3RpUb9aMMVJCPm7wI07/wWrJvLJ8nIch4gVmKON8WtICp4hKhkITp17wB5MXMoSI7B3wXN0fktayh2qaueZVSHcrnwUkiemED3SSwSStuhm7hldRk+J74wGdGPeHR4qyPM1J2HApf/ENHpBrDrbln7LXIAUHAI49vMxcXu63HH7yPoPnqCll3EaKWyEmTIeRALifmbELcSoeBRFJKFndC9gzwGlI+juS5UeNZy10pzvhmGYRjmVdahQwcIhcJ/8eCDYepJenAc2s67hO7r7yBkXY86r0pmmoD0IMa1nYdL3dfjTsg69GCVwDAMwzCvlMrBB/tAjWE0KUvEtbBstGjVAiXx/riboXEyBPNClCHxWhiyW7RCi5J4+N/NqMevkzMMwzAM8zJi33wwDMMwDMMwDPNCsW8+GIZhGIZhGIZpUq/dNx9eXl7KixiGYRiGYRjmlfbBBx8oL3qlsG8+GIZhGIZhGIZpUmzwwTAMwzAMwzBMk3jtHrtiGIZhGIZhGOblwh67YhiGYRiGYRimSbHBB8MwDMMwDMMwTYINPhiGYRiGYRiGaRJs8MEwDMMwDMMwTJNggw+GYRiGYRiGYZoEG3wwDMMwDMMwDNMk2OCDYRiGYRiGYZgmwQYfDMMwDMMwDMM0CTb4YBiGYRiGYRimSbDBB8MwDMMwDMMwTYINPhiGYRiGYRiGaRJs8MEwDMMwDMMwTJNggw+GYRiGYRiGYZoEG3wwDMMwDMMwDNMk2OCDYRiGYRiGYZgmwQYfDMMwDMMwDMM0CTb4YBiGYRiGYRimSbDBB8MwDMMwDMMwTYINPhiGYRiGYRiGaRJs8MEwDMMwDMMwTJNggw+GYRiGYRiGYZoEG3wwDMMwDMMwDNMk2OCDYRiGYRiGYZgmwQYfDMMwDMMwDMM0CTb4YGooRnL4PaSWKi9vOqVpUbifxSsv/nfhC5EYlQDpv7wYXoxSpEXdR+OFmKo28zzH4FGYGIWEl6Lyn+c8XmLFyQi/l4pG6eY4KSQFr1sBPSsOkgdReFSsvLwpKbcfVe2zqfyTx66fZ7re8gVICruB4OjMxmlD6vAFkEg55aUvCeU4YxqKDT5eInxGCE7+sATvDR2EQYPH4+Nvj+F6cmXjK0PCtYPYPP8/GOw0A1/uv4qEMqUEnhOf9Atm9R+ABUcylVe9cLw0HMc+c4Kd3TBsvlGuvPpfgkPqtR1w69MRb7n8gjiZ8nrm2fGQhh/DZ052sBu2GY0VYjXbDP+cx+BSr2GHWx90fMsFv/yjlf9858En/4KpXXpi+i9xaOCuTYBH0i+z0H/AAhzJfL4bh7KE0/hu+zn8/SQelw9swFznQRg4cBCGjByHKS4umPLeFMz46At86xWC9MqC4LNx+/dv8Onk4Rg0ZDI2+EtqJ1qeCP/DWzF/zFCM/+RbHLuRiLSbv+Fr9wkYMmgQhr63BD+cDEbaS3ZPxiVfw45ZvdHx7Xk4XnXNalqq2k/t9tm01B+7DNfXDECXIcvhm93UuZLTfL3l8OCnSejSexaOPKzdD3GPvPG5+zacCz6DL53F6PHhUTx6YdVdiqgTa7Hl1EM0/FaHR07oAXwx+3287+KCD+Z/jh2HD2PLnqvPkFZtquKMeQZ2dnZka2tLNjY2ZGVlRcw/TBZDm9/RJZH4M7pRpryS6On5+dR7/nkqVl7RKIoo6W4EpTxVXt40uJQfaLi+Obn+7x/KwEuhjG58Jib9N1dQsIr6f5Vx2WF0O0GmvLgJcZTyw3DSN3elxgsx5TbzfMcou/EZifXfpBX/eOU/63lwlLZnLHVzPU5J/2RVa1KURHcjUqhBp6VE9ug4zXf9msKrEimmM7Nbk7D5++RVqFj0NI2CDi2mQa11yaz3x3SqRoFUPDxAkyyEJLKcQkcSlQuqmP6cO4CWBlbHQMW9ddRbV5d6r7tHFbW2fXmUXvuEbPQdaVOM8vk0nbrtR7l9NiU1xy67Scsd+9OaQKnSikbAZVPY7QSqTw2ovd5yj+j70d1pzv8eE1dreSb9NrkdvftLHhFxlHtlI33ofpDu1+dgz0xC176YSPN+T67XOVUqur6KHMST6ecIKRFx9CTuT1ozvA0ZTzraKPdOdeOMqS8rKyuysbEh9s3Hy0bnDbQ014GOiRnMVNSOoLk52r/REiLlFY3CGNb2PWFloLy8aQhMTWCso7z030YIMzNTvH7FUIzQH9bi8IN/8pMiAUxNjBu5bJXbzPMdQ2hmBtNn3blRPet5lCCGH4vD+1xhLVRe95IwtoZ9Tys8czfHJWK/x3bgA3f0qkpEBLPmJtDREUJY2W8btEN/t+/he+5LvPn3Psx1+wGxik+JRR36wqFzG7Qo+BOLZmxBaFFlOgAgRHOzNjA1qb4A6BgbwxA6MDEze2kfVxAam8D4H85c3faj3D6bkupjcynJaP/5CWwY3Lz2ikZQHPoD1h5+gPr0smqvtwWxEE45hp+mWNaOtfIQXLlRDGNTAwACtHT6Ckf3zMGbL7Sdm2H45x+ibNOnOFDvr1hKcfXXg0jtNxtzejYHIIBJl4nY6PUtJrVUdcINVzfOmIb6h7uKV1RpEvwPb8f69dtw8FoiSpTXN6lipETFI48HyrNiEBQUi2ytPU8J0qNuwj/wDpILlb4QTo9ErPLjCCXpiLrpj8A7yai1eUkqIu9ngQcHaWIYgsJTUPm4b3lWLIJu3EN6zYdC+UI8iklEIc9BkhCCwNAE1HqkU6Cj4mZHhrwHofC76o/biVLU6n5KUhAVlwOuNB33bsUhX2XfxEP6MBQB1yOQUpCH9IzaDySXpEfhpn8g7iQXavxani98hJjEQvCcBAkhgQhNUOSFz0DEZV/4+PjiepwUPDik37kIHx8fXAx5VDs21JUjAMjykXArAIHhqXiqtArQsm8d6uq3frFSnh2HYH9/hCZIapc3AE6SiLDrgQiJy67zSE1xShTi5YkjJigIsZWJ8zkI2TUbH+64haSIS/D1i0YOr77+ZHkPEOp3Ff63E2vHB0qQEhWHHK4U6fduIU51hWuMGYFO3QgDgOK0SNwIDMb97DKUZyUiqZBHRsRl+Pr4wPd6HKQ8wKXfwUUfH/hcDMGjGhVbmla7zag6hvpzAgAZ8hNuISAwHKkqK5+DJDEM1wNDEJetXOoqyPLwINQPV/1vI7HuwWrTsK2q8wBKkRF9EwE3IpBcNdehZlk9xjvu/0XvJ6rKqn7xVxMvfYjQgOuISClAXnpGVf8CLbEIjXFcirTIWNTu5upfxkVXvsH2CAdMGlG/m0fjPsuw3rU9iq5/jx+uVAeOTsvJ2L57GszCNuPDxaeRobVdN1R9ylvTeZcgNVI+54eTJiIsKBwp1R08YoNu4F7NDl6nsv8myHLuIyQkBplKkwJKUqIQl8OhNP0ebsXlV9dLg/o3ZZrbj3L7VJsHtf0mAJQjOy4Y/v6hSJAotyn165SPDQBo2RcD26bgtoq4VduHasUjJ2QXZn+4A7eSInDJ1w/ROZXHVXNeKq+3APR7YehbEoTVqIuylFu4eCkEDws45MZegc/FICQUVu6gKYaeNwYBtBiDKb3D8M12v1rtXz0d6OmJkH9+B7Zey6yqX0GbsZgxwRK1xkoNijvNcaa2nLX0Y+rzoP469jpgg4+GKr6Frc4OcJr7OTZsWIl5oxwxamMQan1w1SR45Nw6giXD7SAe4wmvAwvhPNYVM8f2Qo9J+5CgJlL5DF9sWrAM+wIicfvkMgwSD8GaK3ngpfdw8ov/oHOnAfjqWuUVg0eG7yYsWLYPAZG3cXLZIIiHrMGVnFyEHVuGkeLOGLreG6fWzcB0t7mY0r8r+i3zRdjRjzFu8hx8NLUfug5eh+ASDqmBP2J+H2t0c/0RxzeMRu++ozCyf1eIR2zEzQKlTFbiEnFsdj9M+eEecjOD4OksxqANwSjhsxFycDGG24kxav1ebHt/EAb074M5R/OUEihH5C43eJxIhaw0Fgdn9MP7vybJPxXiM+C7aQGW7QtA5O2TWDZIjCFrriBPuQPiUhH443z0se4G1x+PY8Po3ug7aiT6dxVjxMabKBC0QIf2Wfht4UQsOBALGYRoYdUa8btmYMJn3kjnoL4cFQcrifoFM53n40BEGhLOrYbHvgc1OhrN+ypTXb85yKpPrPA58N8yC27fXkFydiR+nCCGo8cZxU2RFCHfu8FlpTeiUuJxdtlgdHPeCL8cHnzOLRxZMhx24jHw9DqAhc5j4TpzLHr1mIR9CRx4aTryDM3RjOdRViyFVPIYoSrrLxuJx2aj35QfcC83E0GezhAP2oDgEh7ZIQexeLgdxKPWY++29zFoQH/0mXMUyjWuNmaUt6tUEoPD7mMxc9tFxMQF4rvp9ujYbTJ+iePRokN7ZP22EBMXHECsDBC2sELr+F2YMeEzeKdz4CXh8Pp8NOw6DcGGQHVTLzk156RYXRKFX2Y6Y/6BCKQlnMNqj314ULPtSkPwvZsLVnpHISX+LJYN7gbnjX7ywZsKXOIxzO43BT/cy0VmkCecxYOwoepgtTVkWwBAQTC+mTQe60IqoF/wFz7p1xXvDB+NsVO2IvINTWVV8Ux9VXnkLrh5nECqrBSxB2eg3/u/IkkGjbEIaIpjHpJwL3w+2g6dhmxAVZU1qIwLcfn4n8h46x28U+9P040xaNQANKcM3PCLrrFcgHbT9uHEKntkH1mAWbuin/t5dLl6XhvUnjeP/LBjWDZSjM5D18P71DrMmO6GuVP6o2u/ZfANO4qPx03GnI+mol/XwVhXK2YIWX95YID9ADgN6gGbrhPxQ1gR+OwQHFw8HHbiUVi/dxveHzQA/fvMwdG8hvVvdWhoP8rtU30e1PWbeeAB8Dn+2DLLDd9eSUZ25I+YIHaEx5kMjetkKvsG9XGrrQ/VipciPc8Q5s148GXFkEoLUCLTfF51qa8LKi9GgbQYFSBUFBdAKn2CUo7XGEPPF4M182UIB4c3kXb6OK7Wa/ShjxEeyzBUEITN/7HH4IU/ITCtHIA5xkwYBn1A47mqpCHOoPa6Ky9n9f2Yhjw09Dr2KmJzPhqCo8xfx5GJDgio/tMxHk0/P671dOSz47Joz2g90nXYSNEqHu4tu76CJqwMJvmThjJ6uH0g6Zk60uIziVRGRNL/zaDW+oNo+0MVT0hyWeQ1YzitDFE8p8gl086heqRrv5bCK4godx/9R9+Y3jsufyqSy/KiGcNXUvXmO2moni7Zrw2nCi6dfnLSJ6N+qyggQ0ZEZXT3q16k27w/fXHpMVUQUUX4V9RL35Y8/EqJqIyClnchXYsRtM73MVVQMcXun0yWQj1yWK94jvnJIRpvUP0Mquz+Vupr5EAboiqIqIJurepOBr0UeeWSaecwPTLssZguZUso5oov3ctTqoOyIFrevRd9ESJPj8s8Tpt/jKEK4ijLawYNXxmiKEeOkncOJT1de1obrqrQg2h5F12yGLGOfB9XEBXH0v7JliTUc6D19yqIZLG0uY8BdVl+U5FeGd1c3oUM+39Nf8u0lGPxDVrxti3NOSNRHKyIzs+zJF3FnA+N+yr2qKKxfrXFCkcZJ1zIznk3JXNERBUUvX0otWg3m04XEUkufETirksooPLx4OIbtKyrHllM/50yOSLZw+00UM+UHBefoUR54jSjtT4N2v6QZETEpf9ETgaWNP9CaXXelOsvO4a29jUihw1R8vi5tYq6G/RS1AlHyTuHkZ5hD1p8KZskMVfI915e7WeStcUMET05NJ4MquYxFNK1Jd3JfsXNqueAy4KW05v63WnVrQoiklHs5j5k0GU53VQUadnN5dTFsD99/be8fXEZu8lJ35Smnax+krjWMWT3NZxTMd1Y8TbZzjlDVbV/fh5Z6lY+SyyhCx+JqeuSgKr5CcU3llFXPQua/ntmnXMnktH9rX3JyGEDyU//Fq3qbkC9VMVKPbatXVYVFLXpHWrmuInkj/RX0N0v3yb9TovIv0yenuay0hZ/ysooaHl36vVFiPzcuUw6vvlHiqnQFoua45iIo4zdTqRvOo3kVdbAMi67Scu66FL7hb6kiOTKFRSwqBOJzFzIW8VD5WWBS6izSEAW887LF1RE0+bJHnS5lIhkiXTk/fYkMuxBSy7nEUel5PfZZFpXoy+SJXxDA3X1aOjO5Lp5UklbeWs7b47Sf3IifaN+tCogg2REVHb3K+ql25z6f3GJHlcQUUU4fdVLn2w9/Ki0Mrb1LGnCrluUJyMqitpPU210Sd9xI0VWyPuuYXqG1GPxJcqWxNAV33uUk9GA/q0Obe2nbvtUlYe8Cg39ZlkGnXCxI+fdinKviKbtQ1tQu9mnqYjTsE7FsTXHrfY+VCsunX5yMiDL+RfksanxelD3eqv1WlP8G000MCOXqgDXFkPPG4PVnp6eSW/ovkkrghSZq4eiGC/6bHh70tfRIUHzN2nyhvOUWHn50XautWiJM43lrL4f05SHUi3XsVcZm/PxTHhkJKeilGovpbJUJD2u813isxHoQEdHBwBB6TByPIfqh4qFaNbMGEKTXnB27gg9AMbizrASFECar2LvEn+c9k3Dg/M74OnpCc9tx/HUeT02znKAIQAYNoNRjckkJf6n4Zv2AOd3eMLT0xPbjj+F8/qNmOVgCAiawdhIB3ode8OxrRCAHsR21hDBCr0HWkIEQGRjjXY6BZBICIAAhoYGELYagIlOlhDBCF3dNmBBL0JUQIDK13kKxe44EngcHjap8D+4DYdCJODLnqKUByAwhKGeAKaOThjcygzdnJzxdgulcBZZQmydjO8mDMHsracQo+uCNZ92gwgl8D/ti7QH57HD0xOenttw/Kkz1m+cBQfD2kkAimMZCNFqwEQ4WYoAo65w27AAvSgKAQFZaj5FqqapHIt89+BwYg8MG26m2NoAHW0sqr4a1rRvHRrrV1usSODj5Qt9e0e0FQCACG8t90de2mFMMs7Huf2/I9WuJ+wrP+016guXSWLknj8BHykgbNYMxkIT9HJ2Rkd54uhsJUCBNF91HKuqv1Zvwv1III572CDV/yC2HQqBhC/DU3mFw9BQDwJTRzgNbgWzbk5wfrtFna9uNcaMsoK/sPdYIfqOdoCRYpGweXM0U05UA4GJCZqpfHZBQShWf05FvthzOBE9hg1HVe13tIFFZeXnn8P+31Nh19O+an6CUV8XTBLn4vwJH0gVy6oJIXY/gsDjHrBJ9cfBbYcQIuFR9rRURYw2ZFsAkCEpMRXlVY9qiNCxoxWQnoQklY8gKNMWf8pEsBRbI/m7CRgyeytOxejCZc2n6CbSFoua4hgABDAxaVb9uElDy1iWitQMoFnz5qofWVGDiopQQgKYmJkrrwKEHTFr/3Es7/YIP7nNx5HEenzSrZWW8tZ63gI0MzaCjl5H9HZsCyEAPbEdrEWAVe+BsJR38LBup4MCiaS6jQst8I5Tb7QQAsbd52LHZ4OgExWI67k8BIaG0BOYwtFpMFqZdYOT89swCGxA/6ZMW/tR0T5V5aFFqYZ+U+IDL1992Du2lfc1orew3D8PaYcnwVjTujrH1ha3z9CHaqPxelBXg641qE/bed4YrKZj1hwmlI6klPrfZxl3m44d12Jx9/++wkSLdJxZPwkD3/sZsbIGnqu2ONNYzur6Mc15aNB17BXVgMssA4hg18cBrZUmWAnecEDfLnq1Fz4zQxgZCEAlxShWEWh8YRFgbFJ1cyofqFTTEQqhAwKvorfiC3OQ91QfXSetwKpVq6r+Vi6ZgC4iANBBdXI8CnPy8FS/KyatqN521aqVWDKhC0S1tpXTEejIvwuqXgCBukEUAIg64a3OxkBFGcpUbSQQ4WnELixwP4j0nnPhPsICglrp1/h/VQQdMO/oZex1MUHAlmno3WUAFp9OAccXIifvKfS7TsKKGuWwauUSTJAXhFaiTm9BnvUy9ecHaClHO2TE/Q0phBCpbIma9u1S56UD2upXY6xwecjOLYU0v8aNRCUuCymPS8CXl9d4r7sINtaWEJRLIXnC13jeW0FHCKEOQKoCsVKd+hNA9DQCuxa442B6T8x1HwGLBlV4PWKmBi79IZKKRNDTrUe66ujUbQe1qT8nLjUOf0sBoerKB5eVgsclPMrLazzSJbKBtaUA5VIJnqjoHwSip4jYtQDuB9PRc647RlgI6tanQkO2BfTQd9xotIm/iouPOABluB+XDHOn8RjaTHlb1TTGXx0CdJh3FJf3usAkYAum9e6CAYtPI6VcSyxKctTHsYJOjVhtcBlTBSoqSPGld33JkBAWjmwyh2P/Hsor5cyGYNPvOzGWzmHxB5txtxGer9BU3vU5b+X9oSOA/Ev/qgUQCABSWxQCtLLtCDMdDrIK+ZLaKTasf1Omrf0AqtuncnPV1G/aFWQjt1SKfEndk+Ty1K8DlI79ovpQDTSdV93LXMPr4lliqKExWLWfrh50wYNXbo8qcXgYFq54dMsE3aZswB/hd3D0w47IvbgVOy8/bdC5aoszzeWsph/jtJR3A65jryrVpcmo1ezdzdi7uA9ainQA6EBo7oBP9n6NSZVD4uemh462VtBJe4D4OhNJOCRFPkaLLh1qT5qqJ4FpO1gYxcH7wFVUv12eQ6LPX4is84GCAKbtLGAU540DV2u8i55LhM9fkfV6m4ZKRDU+Wa1ASSmP1l27o52KEyq6sBQTV+dh6k+b4OrQuqpTqHcb5FIR/dgKbruuIi7mHFa/nYI9HltwpcIU7SyMEOd9ALVPzQd/1S2IKkQ1er6KEpTyrdG1ezsIIYRIqOIiQQROYzlGwfSNFhCVRuNOhNLT3sSD17hv3TpoWP0qEbZBB0tDZPmcxMX8yoU88nz24XhCG3TuZAouJgx3qm6KeJSXlUPQvifsLRqpGym6gKUTVyNv6k/Y5OqA1g2u8IbFjI6ZOZrjMcJCHqmdzCeUV6zS/gRSt4MyDeek0+INtBCVIvpOhNKz/gSeB4TtOqOTKYeYsDvVz/ry5SgrF6B9T3vULfYiXFg6EavzpuKnTa5w0FiADdkW8hvJSTuxx00fV7/fhJ07tuK04efwOTofNoq2+9xlVQuH1OjHsHLbhatxMTi3+m2k7PHAFr+WmmOxvYX6OI6vm5EGl7GoLdq8oYPiwmK1JaWMz7uI7w/fg7D7PHw61kR5dRWR3VwcPLoIttHbseb443qn/ywafN7PqCQnF0879ELvNqoSbFj/pkxb+6kvTf1mTMsOsDTMgs/Ji6gOpzz47DuOhDfUr6sTasJ2muO2sQq8Bk3nVfd60PC6eN4Yasj+VFKMEp2WaKP8ya9KMiT83wH41pw4YmCH6Rvd0V/4BBIp16Bz1RZnmstZTT92pUJjHqQNuI69qrSEB1OHwALjdgThYXwI/PyCEZ8Yil0TlV5J91z00G/eRxgouIJdW68iq6oTK0e6nyc+v9odbqONFct4cJwMxNf49JBIfuOqqvc1HoU5rh2RtM8Fw2ZsxK/ep3DEcz6+CDKGrfJwH4DxqDlw7ZiEfS7DMGPjr/A+dQSe879AkLEtRODA8wDVPA7Jj1/VQIhA4MHXnJiVk4wkxaCKTz+Ls5Hd4f7xCPnXrhwHDqTIO4+Ch4nIKkpB/KMilKYG4FxwBriSAmREhCK6SH48WYVyV1EDlwrvb/bhbglgYPMuVn81FTZG+jDQMcaoOa7omLQPLsNmYOOv3jh1xBPzvwiCsaqCAADwyElOUrxYgEf62bOI7O6Oj0cYAMLWsGyrh7SQS7iblY37f+3B4Zt5kOWk4lFuIYRqy9EOFuNnYtwbiTiwdDXOp5QDZcm4G50NTpKG5MwC6Kjd17bOJzSa61dbrDTHmDnTYJV5FB+9twQ/e/+B4zs+gZu3CAPsWmDcInf0kJzCzoPx8je08Jm47J+KgYs+xmB9gOc4yIivMQAjkKIueQACAwPo4wky0vORE3oDkSV1648veIjErCKkxD9CUWkqAs4FI4MrQUFGBEKrK7zOxaGa9pjhOE5xzoCg9X/w3jBDhH49Ax/vuYhbd67h8KFryKiKVyFaW7aFXloILt3NQvb9v7Dn8E3kyXKQ+igXhaUAeA481b7ZqXkMTed0O2sEZo57A4kHlmL1+RSUowzJd6ORzUmQlpyJAt1xWOTeA5JTO3EwXv4WGD7zMvxTB2LRx4MVEydr4AvwMDELRSnxeFRUitSAcwjO4FBSkIGI0JoTneu3bc3zAADJhVVYlzoZ329ZCY+lG/DNhpnoVfWhi7ay0hZ/yjiken+DffLGi3dXf4WpNkbQNzDTEoua4lh+48JzPIjkcYnmDSxj3Z54p5cBclOr3+wnRygvr/umHlmGH7ZMn4+jpSOx9fBX6F81Sb0c5SXK3/gK0GKEJ37/djSal5XXvtEoK0MZCLKKCsXyEtz+cTbGfbARF1W+JktLedfjvDl5B1/jwyKSt+vqDh5EAF+zg6cSFEgVt2ilUThw7CH+89Vi9Fc8GECQoWaXrfEaU3IbP84ehw82XlT5JjBBq/Ga20+J6vapnAeN/WbLMZgzzQqZRz/Ce0t+hvcfx7HjEzd4iwbAroWGdULlYzfXErfa+9CS2z9i9rgPsPFiRo3M1yAwgIE+8CQjHfk5objxcKD68xIpX2+11AUAlJejgspRXqYoTK0x9PwxWKkkLR0Sg7fh+LYuwOfh8gYXfLDZr8bNfm0kuYAtK04grmpUwyEtKBSP2k7EdCcj7edag9Y409EQPyJ1/ZiOhjzYoFjLdey1wCacv4w4yr35Ey0c2ZO69hpITqNHkdPQwTRy5la6lFI940gaeYpWO7Umoa6Ypu+4QDHx1+ngogFkJjAi+/n76UaaiqmJxbF0zGME2Znrk55pBxq48DBFV84fKz5BU5o1q5pwLt/8GHmMsCNzfT0y7TCQFh6OpmIqotiz62iMpZBEtlNo27koSo74gzZN6EBCkS1N9vyT7j0KI++175KlUEQdJ3uST0IxhX/Vk/Qs+tG0+Z/Q0s8+oQ8nu9CX5xQ/HvQ0js6vdaa2QiFZT9pCZ6KfEJd2mhb1aUsm5p1oyPw95PebG1mb2dK4r30pwGsVjbQQktDSmdZ4hVGuilOlspu0ekAn6jXSjT5fv5FWLlxInlcrJ7IVU+wxDxphZ076eqbUYeBCOlxVEEoqwumrnnpk0W8azf9kKX32yYc02eVLOpdcPQ3wyY3NNKqDKZla2tPUb/zowgoH6jx0Nq0/dptyOXXlSETEkeTWbnLrZ03mZjbkOP5TWj+vH3Xs70pfHgqmDI37qqCmfusXK8UUe9yDRohbkUlzS3J03UHXsysLtoKSzq6hCQ72NGz6Avrv3Jnk/l0AZXFEJI2kU6udqLVQl8TTd9CFmHi6fnARDTATkJH9fNp/I41IlkCHPhCTeUsxTdp+kW6oqj8ujU4v6kNtTcyp05D5tMfvN3KzNiPbcV+Tb4AXrRppQUKhJTmv8aIwlRVO6mPmm2DKjDtPa53bklBoTZO2nKHoJ0Sy9Eu0bnxXatXMlGyGLyVvn3XkaFg54ZyIntygzaM6kKmpJdlP/Yb8Lqwgh85Dafb6Y3Q7OZrOrRtD7YQispm0hf6KL6WnyseQqjunbyhYSsRJbtFut35kbW5GNo7j6dP186hfx/7k+uUhCs7giCqS6OyaCeRgP4ymL/gvzZ3pTt8FZKmZdMxR2ulF1KetCZl3GkLz9/jRb27WZGY7jr4JVv5BM83b1jmPJxylnfiQrPV1CADp6AhI18CUWnceSu5H78tftKChrPwC/68e8VdTGd1cPYA69RpJbp+vp40rF9JCz6uUqZhErjYWiTTGcVHsOVo3ph0JRTY0actfFF9KDS7jjEMT6Q3xEqr6DcDiOLpycANNsBaRjq4FOUz4gObMn0duLuNo6IDh5LLiF7qRXmPyeMpNOvHtTHrL2JrGrztAl+OVWjOXTT5LZ9CW8AoiktHjIC/6bk5PMtYRkIn9bNp29CY9Lk+jQ5PbktkbrWngxqja+9f32qDhvItiz9K6MZYkFNnSlG3nKCo5gv7YNIE6CEVkO9mT/rz3iMK819K7lkISdZxMnj4JVFb8N53d/CENfWcITXT7hBYt+Jg2nXtIT4mIy7tLXqtGkoVQSJbOa8grLLeqfNX1b1zaIZrc1ozeaD2QNkapnmmrsf08rN0+z4WGqM2Dun6zct1xjxEkbmVCzS0dyXXHdarqFtWtK4qt0zdojFutfWgqpR2aTG3N3qDWAzdW5lqJjBIOfUBi85YknrSDQgo1nJeK6y1pqIuKxKv086JB1FIgoNbDV9C+/wumxzLNbed5Y7Ca/Id3W048RBkcEckSaPeYNtR23F6q8/ucRERUSpfWTKEPF3xA48dMoCku02nqhBE05N1P6dC9yl8AVX+uqmiMM/lFWnU5a+zH1OdB03VMuSd/1VROONexs7MjnpePRDmOQ0pKivL4hPm3KPHC+209YHjkMY5Orvd7JOtJhoi1juh/ZjyC7myCvfLHCy8zWQTWOvbHmfFBuLPJvs4nI8zrg4vdjH6OJzEqIBxb32E1XY1H2tmN2Ff4HtzseeRKClBUUgRJ+j2cPJKBBT4/YlSdrwleUyXXsbz/UhgcCMFmx382RspvrMbHd+bj18W2yqteE+W4sfpj3Jm/D4tt6/PIzWuu/AZWf3wHW39drLzm9SWLwNr+s/F0ZzC2D6p8NQjzqurQoQOEQmEjPi3EvPr4CsgEXdD9LV3lNY1KxTfor4hXN+cM8zz4tKPwWHIPtv95G7bdeqHPwKEYMWospkx1huM7b6l8bPO1ZTQYX+0ajbs//o7Uf7BL4POC8Mv5lvhw1us68OCRF/QLzrf8ELPYwAPg8xD0y3m0/HCW8prXGI/sM3twd+QufMkGHq8VNvj4t5PFYPuw9ug+YxfO/xmK8mnLMVvxbHTjkiE//wm4gjxI6j4a/XKT5SP/CYeCPEmdX6RlXi+y3FwUyIogfaJ+Zsm/ksgMbQ2vYXHfEfhw8Rps3LIZ6z7/CDP/+wdsF85HpxfRZbzEmg/dhL3vJ+Gnn2/W/WHSpsBLEBXBY9z6ZRim4u29rwNeEoUIfhzWLxuG1/QUG4CHJCoC/Lj1WPa6VngdPCS3DmBX/Fjs3jwUzZVXM6809tjVv54MKdd+xRH/bJj2GAvX9xzQqtFvJMqQcPkw/i8wCQUyEcxshmHaHCfYNtbbiV+ksgRcPvx/CEwqgExkBpth0zDHyRavQtaZhuHSbuLoiYuIz6uArrktRrjMxbDKVzkxQFkaQs+fhX9UOkqE5rDuPQoT/9MDLf/FRVSWcgtRcIBjh39xITDMi8ClICyM0L2vddXvgDCvvsrHrtjgg2EYhmEYhmGYF4rN+WAYhmEYhmEYpkmxwQfDMAzDMAzDME2CDT5eNaVpiLqf9a9871JpWhTuZz3fmfMFSQi7EYzozFLlVQ1QjOTIONT8AdXGw6MwMQoJ0heSeOMqTkb4vVQ8T0k2Fb4wEVEJ0vq1m+dqY6VIi7qP5wzTWoqTw3EvtWYpN/4xGq4x89CYMd+YaWnXGH1SlVeoPTEMwzwPNvh4VfBShB/7DE52dhi2+ca/6q1LvDQcxz5zgp3dMGy+8axnzuGR9+dw33YOwWe+hLO4Bz48+kh5Iy14ZIccgMdQO3QZ/Q1CnjUranCp17DDrQ86vuWCX+Je9rct8Uj6ZRb6D1iAI5mNdPP1InCpuLbDDX06vgWXX+I0/Dr687YxHtLwY/jMyQ52wzbjmcNUGZ+EX2b1x4AFR5DJv6BjNEjj5qExY74x09KmcfqkmjS0p7LrWDOgC4Ys90X2S9zUGIZh6osNPl4VAjPYuy7FRDGBlNe95gRm9nBdOhFievYz57NOYNnSGLyz3AMe27zx24p+MJGVKW+mhQCt+7lhybhOyisahdBqBDwWDEXL5zjPpiOAzcLfEBy0H7PbvsTdiNAKIzwWYGjLerSb52pjApjZu2LpRDEatfoENlj4WzCC9s9GW8ELOkaDNG4eGjPmGzMtbRqjT6pNfXsqv3MWlzAVW776D1q/xE2NYRimvlhX9ioRmMLEWEd56b+CwNQEz3Pq5SFXcKPYGKYGAAQt4fTVUeyZ86byZvUghImJMZ4jKxoJzcxg+qISb2zG1rDvafXyvwZRaAaz+hbqc7UxAUxfQGwYW9ujp1VlKb+YYzRM4+ahMWO+MdPS5nn7pDpUticOKcnt8fmJDRjMfuiAYZjXBBt8vIxkeXgQ6oer/reRKOVqrBBAp87FrgSpkfJnrzlpIsKCwpFSrFhVnoXYoBu4l670FLHa9OXKs+MQ7O+P0AQJlNeWpEfhpn8g7iQX1n4mvjgFUfF54FGOrJggBMVmKz3iIkPeg1D4XfXH7URp7XRLUhAVlwOuNB33bsUhX/mgACDQqXuzo+U85MqQcusiLoU8RAGXi9grPrgYlIDCqvUlSI+6Cf/AO0guVH6moRzZccHw9w9FgqQ6fZ0alVCeGY2bQbHIVnrKQ5b3AKF+V+F/OxFqs1ZFhvyEWwgIDEfqU+V10JJHZarzLMdBkhiG64EhiMuu+6hISWqk/Pl1TorEsCCEVwcSsmKDcONeutLz6KVIi4yF8lMi6mKkOCUK8Xk8UJ6FmKAgxNYotIIHN3HRxwc+tf58cSNeWrUNJ0lE2PVAhMRl1+uRKFl+Am4FBCJcdaGqyaeqNqZMfSwL1O1cnIbIG4EIvp+NsvIsJCYVgs+IwGVfH/j4XkeclAe4dNy56AMfn4sIeVRSvW9pGiJjM6vyqO4Yqs8HKEmJQlwOh9L0e7gVl1+77fF5iPH3VZT3RYQmyY9bkhSKiz4+8PWPUfkjeqry8M/FfMPT4vPvI9BXEWe+NxBfwAMoRMLNi/WPu5p9Ep+BiMu+8PHxxfU4KXhwSL9zET4+PrgY8gg1ahMoz0ZcsD/8QxNQu4mqbk8t+w5E25TbKtpsMVKi4iFvUjEIUtEPMQzDvIzY4OMlwyUew+x+U/DDvVxkBnnCWTwIG4JrXboUeOSHHcOykWJ0Hroe3qfWYcZ0N8yd0h9d+y2Db9hRfDxuMuZ8NBX9ug7GOkUaGtPnc+C/ZRbcvr2C5OxI/DhBDEePM8jg5RdX300LsGxfACJvn8SyQWIMWXMFebIc3DqyBMPtxBjj6YUDC50x1nUmxvbqgUn7EuQ3Olwijs3uhyk/3ENuZhA8ncUYtCEYJXw2Qg4uxnA7MUat34tt7w/CgP59MOdoXq0zVUXjedRCKC8ugLS4AqAKFBdIIX1SCo4H+AxfbFqwDPsCInH75DIMEg/Bmit54AHwOf7YMssN315JRnbkj5ggdoTHmYwaN3XlePT7Ukyb4Y6FE+3RY/J+PJSfLBKPzUa/KT/gXm4mgjydIR60ASqzBgAlUfhlpjPmH4hAWsI5rPbYhwc1bkg05VGZxjxLQ/C9mwtWekchJf4slg3uBueNfsjhAT4/DMeWjYS481Cs9z6FdTOmw23uFPTv2g/LfMNw9ONxmDznI0zt1xWD1wWjBDwk4V74fLQdOg3ZgMDKEYmaGMnJuoUjS4bDTjwGnl4HsNB5LFxnjkWvHpOwL4EDUI77R7ZgX2ga8qVSSKW5CNu7ABOmrML5bCEAKUK+d4PLSm9EpcTj7LLB6Oa8EX5qZ/yXIOqXmXCefwARaQk4t9oD+2oXqsp8qrrJrkNdLCtvV6UEMYfdMXbmNlyMiUPgd9Nh37EbJv8SB75FB7TP+g0LJy7AgVgZIGwBq9bx2DVjAj7zTgfHSxDu9TlG23XCkA2B6iciqzmfnMwQHFw8HHbiUVi/dxveHzQA/fvMQa3mJTBEs+LL+GraOLjuSULrVvLP3Q1aCnFz82qcLzZDM61XiX8u5p81LRi3hH7cz5g3fiK23DVDO2MBACO0aXYLO3eEQdTCqGFxJ2iBDu2z8NvCiVhwIBYyCNHCqjXid83AhM+8kc4BAI8c/y2Y5fYtriRnI/LHCRA7euBMhkx1e1LbZnnk3DqCJcPtIB7jCa8DC+E81hUzx/ZCj0n7kKB14McwDPMPs7OzI1tbW7KxsSErKyti/kkyur+1Lxk5bKCoCiKquEWruhtQr7XhVEFERE/o0HgDMnf9Hz0lIiKO0n9yIn2jfrQqIINkRFR29yvqpduc+n9xiR5XEFFFOH3VS59sPfyoVGP6HGWccCE7592UzBERVVD09qHUot1sOl3EUZbXDBq+MoTKFMdN3jmU9HTtaW14BZHsIW0fqEemjovpTGIZEUnpfzNak/6g7fRQRiS7v5X6GjnQBvlB6daq7mTQay2FVxARl0w7h+mRYY/FdClbQjFXfOleHlezUOSeHKLxBubk+r+n9Sinuop/m0gGZi7kXaxYwGWR14zhtDJEfkbEJdPOoXqka7+Wwssy6ISLHTnvTiZ5UUTT9qEtqN3s01RERNl7ncnApD+tCcgmjogK/5xNFgZD6bskjkh2n7b2NSKHDVEkz9oq6m7QS15OdRTTjRVvk+2cMyRRLCk6P48sdd+kFcFlmvOonBynKc8SuvCRmLouCVDEDVHxjWXUVc+Cpv+eSRwRcek/kZO+EfVbFUAZ8kCir3rpUvP+X9AleSBR+Fe9SN/Wg/xKiYg4ytjtRPqm0+hksfzfmmJE9nA7DdQzJcfFZ0geIv+jGa31adD2hySjCoo+f57iFOdUGPQlOTQzo8Ffh1MpEUkufETirksooDrztKyrHllM/50yVYRK8Y0V9LbtHDpTXag0z1KX3lwRTGVa8lm3jdWmMZaJ6Mmh8WRg7kr/U+xceG0JdbdfQTcr464siJa/qU/dV92iCiKSxW6mPgZdaPlNRR2X3aTlXQyp/9d/k4zk9brbSZ9Mp52kyiRqH0Pz+XDJO2mYniH1WHyJsiUxdMX3HtVtXsUUsERM+l1XUFCpfAmXeYRmTt9LKXW2lauVh38q5p83rYoo2vSOIVnOOUNS+QaUfugTWuFTSFSfuKvVJxGRLJY29zGgLstvKuqijG4u70KG/b+mv2VEXMYJcrFzpt3yDpYqorfT0BbtaPbpIhXtSVubldHD7QNJz9SRFp9JJHmTmkGt9QfR9ocyxR4MwzAvFysrK7KxsSGtn2kxTUkIsfsRBB73gE2qPw5uO4QQCY+yp6WqP/WDAM2MjaCj1xG9HdtCCEBPbAdrEWDVeyAsRQBENrBup4MCiQSkMX0JfLx8oW/vCPl8RxHeWu6PvLTDmGRcAv/Tvkh7cB47PD3h6bkNx586Y/3GWXAwBCBshmbGQpj0coZzRz0AxhB3toKgQIp8AoRidxwJPA4Pm1T4H9yGQyES8GVPUcrLP3k11BPA1NEJg1uZoZuTM95uoS0sNZ1HPZX447RvGh6c3wFPT094bjuOp87rsXGWAwwlPvDy1Ye9Y1v5V4Oit7DcPw9phyfBuHJ/ozfRt08rCAAYdOiA1pBCIuEBoRjuRwJx3MMGqf4Hse1QCCR8GZ6WqshZkS/2HE5Ej2HDYaZYZNDRBhZCxT805bFGMgAATXnOP4f9v6fCrqd91fPkRn1dMEmci/MnfCAFIGhmDCMdPXTs7Yi28kCCnTyQMFAeSLCxbgedAgkkBAACmJg0q/EonOYYETZrBmOhCXo5O0MeImJ0thKgQJoPgghvjR2LLiKAz/PFF3O+xePh3+DQ8l7QRz7O7f8dqXY9YV+debhMEiP3/An4VD8do1AE3z2HkdhjGIZXFypsqgtVYz610RjLdRTgr73HUNh3NByMFIuEzdFc+1cJ1QQmMGlW9xGnaprPR2BoCD2BKRydBqOVWTc4Ob+Nus3LCAM9PsWgtCP47lQWeHBI9v4LupOnwqrOtir8UzH/vGmJumGe+0iUnN4H7zQe4B7AK7QNpo1oBjQ47rST+HjBV98ejooJ5aK3lsM/Lw2HJxnXbU9a26wQzZoZQ2jSC87OHSFvUp1hJSiANL+xJsEzDMO8GPW5tDBNSCB6iohdC+B+MB0957pjhIVA45t3as4/kC8QQKfWHjoQCFD1Zhq16XN5yM4thTRfUvd4fCFy8p5Cv+skrFi1Cqsq/1YuwYQuIgA6Ss/J60Ao1AGIl6clEOFpxC4scD+I9J5z4T7CAoLaWWwwtedRT3xhDvKe6qPrpBXV57NqFVYumQC7gmzklkqRL7/L1k4ogBAcZBUAIIDoaQR2LXDHwfSemOs+Aha1TrYalxqHv6WAUKS6GWrKYxdR7W25PPV55rJS8LiER3l5jQd3RDawthSgXCrBEx6AjvKcGh0IdFA7kmoGkiL2qp951xIjyunrCCEPkRpH4NPg7bEQB8qmYfe+eegkBMBlIeVxCfjy8hqPHYlgY20JQbkUkidKN7hcKuLkhaq6c9OWT220xXJNXDoeJhVBpKf7LCGuoFO3jddUj/PRsHcVoe0sLJ1qgL++24uo0hgc82uD6eNaKG+mxj8U88+dlgAW09wxxcQP+w5Eo/jW73jYfQbs9Z4h7rTikJedi1JpvmLwXlfN9lSfNqscFzpCIXRAqNmkGIZhXkaqe23mH1KEC0snYnXeVPy0yRUOrSuvto11NdGQvrANOlgaIsvnJC7mV27PI89nH47/bYx2FkaI8z6Aq5Lq1LhEH/wVqX2GY9GFpZi4Og9Tf9oEV4fWeP6z0nAe9SQwbQcLozh4H7iK6lPikOjzF2JadoClYRZ8Tl5EdVHkwWffccRre5666AKWTlyNvKk/YZOrAzRlTafFG2ghKkX0nQjUfukvgec151G52IVt1Oc5oU1ndDLlEBN2p3puAl+OsnIB2ve0h0Vj9AIC0+eKEUCG+H0LsOhPU/z31+8xxUIA8BJkS1ujcydTcDFhuFOdeZSXlUPQvifslTOv0wJvtBChNPoOIpTepEzyQn2ufDYolnXMYN4ceBwWgkfq4kYoglDFDSORuh2UPOf5VGsO5yUf4e37+/H1xt24+9aHGF75bY02/1DMN0pazUbD3U2MmEPfYaNXAYZOt4UQAITtGhZ3AAAhREKlATUAEIGDEG06WMIwywcnqztY8Hk+2Hc8vs6LPYTtmqDNMgzD/ENYF/Yy4QvwMDELRSnxeFRUitSAcwjO4FBSkIGI0GgAHDhOfhNV+bkbx/MAVf9bfsWnGh9Qy/+f5zkt6adizJxpsMo8io/eW4Kfvf/A8R2fwM1bhAF2phg1xxUdk/bBZdgMbPzVG6eOeGL+F0EwthUBPAdORuArv+mQX2/l+eR5FDxMRFZRCuIfFaE0NQDngjPAlRQgIyIU0UXyLMsqtNwocRw4EHie13Ie0cp7AgDKyytA5eUoqywo41GY49oRSftcMGzGRvzqfQpHPOfjiyBj2LYcgznTrJB59CO8t+RneP9xHDs+cYO3aADshPJzqvpWp4p8OV/wEIlZRUiJf4Si0lQEnAtGBleCgowIhEYX1dpD0Go8Zo57A4kHlmL1+RSUowzJd6ORzUmQlpyJAh0NeVT+kL65hjy3GIdF7j0gObUTB+Plb8zhMy/DP3UgFn08GPoAwPHgFTdtlQgA1fimg+SBVHWjxHM8qCr2jDXGCM9xkBFf48aMQIr65AGUhH2NuatuotPKQ9jiZC7fROKDM1dFGLfIHT0kp7DzYLz8bUN8Ji77p2Lgoo8xWF+RXCVBK4yfOQ5vJB7A0tXnkVIOlCXfRXQ2B0laMjILdDTmU1Ubq6Y9ljn5zvJyFLTGf94bBsPQrzHj4z24eOsOrh0+hGsZ1beawtaWaKuXhpBLd5GVfR9/7TmMm3ky5KQ+Qm5hKQAeHE/ygZNCrWNoKXcAIMigrXkBgKjbAiwZV4H/+z4G/T90qBpYqVIzD/9UzDdOWiLYz1uIwXkncIrGY1zLyuXNtcddzT4JAIStYdlWD2khl3A3Kxv3/9qDwzfzIMtJxaPcQuiPmYNpVpk4+tF7WPKzN/44vgOfuHlDNMAOQuX21Fxbm+XBcTIQX2PgKu90FfnhkXd5A1w+2Ay/GoNShmGYlwKbcP4y4Sjt9CLq09aEzDsNofl7/Og3N2sysx1H3wRnUtz5teTcVkhC60m05Uw0FcWepXVjLEkosqUp285RVHIE/bFpAnUQish2sif9ee8RhXmvpXcthSTqOJk8fR7QI7XpS4momGKPe9AIcSsyaW5Jjq476Hp25YzTYoo95kEj7MxJX8+UOgxcSIeji4lISpGnVpNTayHpiqfTjgsxFH/9IC0aYEYCI3uav/8GpaaepkV92pKJeScaMn8P+f3mRtZmtjTua18K8FpFIy2EJLR0pjVeYZSraoLr0zg6v9aZ2gqFZD1pC52JlmooJ/nU0WoVlHj1Z1o0qCUJBK1p+Ip99H/Bj+WTeYtj6ZjHCLIz1yc90w40cOFhiq6c1VscS8c9RpC4lQk1t3Qk1x3XKZsjkt77P/pieGsS6orJZft5io4LpAOLB5KZ0JgcPjpIIempdHpRH2prYk6dhsynPX6/kZu1GdmO+4bqZI2IOMkt2u3Wj6zNzcjGcTx9un4e9evYn1y/PETBGZzmPCpTk2ciIqpIorNrJpCD/TCavuC/NHemO30XkCWfnF4US2fXjSFLoYhsp2yjc1HJFPHHJprQQUgi28nk+ec9ehTmTWvftSShqCNN9vShyIhztG5MOxKKbGjSlr8ovpTUx4g0kk6tdqLWQl0ST99BF2Li6frBRTTATEBG9vNp/7UztOptAxKYOZDr8i/oiy++oC8+X0Kzh7xJH3gVE1EFJZ1dQxMc7GnY9AX037kzyf27AMpSFStERJyEbu12o37W5mRm40jjP11P8/p1pP6uX9Kh4Az1+aSnddqYMi5NTSx/E0yZcedprXNbEgqtadKWMxT9hIhk6XRp3Xjq2qoZmdoMp6XePrTO0bBqwjnRE7qxeRR1MDUlS/up9I3fBVrh0JmGzl5Px24nU+y5dTSmnZBENpNoy1/x9FTVMdScD5d3l7xWjSQLoZAsndeQV1iuvL41KA1YQg7jf6E0DRvWyYM07R+L+cZJS0J/zBtHG+8pz2jXEHd1+qQnRET05MZmGtXBlEwt7WnqN350YYUDdR46m9Yfu025HFFx7HHyGCGmVibNydLRlXZcl7+0oihWRXvS0GalkadotZO8H5q+4wLFxF+ng4sGkJnAiOzn76cbaeWUsHsMtWk7jvYmsgnoDMO8HConnOvY2dkRr/iEmuM4pKSkKI9PGIZhmMbAxWJzP0ecHBWA8K3vaPx2oenxSNnrhi2tfsC+KYpvnxiGYRimkXTo0AFCoZA9dsUwDPOvxhUhX1IKvigIey5b4MOxbODBMAzDvDhs8MEwDNNUZLnILZChSPoE9ZiG0QRkiNwyDBatW6Ptm4uQP2spBla+25VhGIZhXgD22BXDMExT4NJw8+gJXIzPQ4WuOWxHuGDBMBvlrZqcLPki9h6PxhujZ2Gao/y3axiGYRimsVU+dsUGHwzDMAzDMAzDvFBszgfDMAzDMAzDME2KDT4YhmEYhmEYhmkSbPDBNJri5HDcSy1VXvz8ipMRfi8VLyBlppGVpkXhflbdn+erF74QiVEJkD7j7sxzYu2s6TV6zPMoTIxCQuMlqKQUaVH38axN/LXT6PX3uuIgeRCFR8XKy2soTUPU/SwVP+76b/d6tjk2+HiJ8BkhOPnDErw3dBAGDR6Pj789huvJlb+GXIaEawexef5/MNhpBr7cfxUJZUoJ/JP4JPwyqz8GLDiCzEZtJDySfpmF/gMW4EjjJsw0Il4ajmOfOcHObhg235D/InP9cUi9tgNufTriLZdfEPdyvAbqX4a1s6bV+DHPpV7DDrc+6PiWC3553gS5B/hpUhf0nnUED2UAwEMafgyfOdnBbthmNLiJv3Yav/5eV1zyNeyY1Rsd356H41X3MzXwUoQf+wxOdnYYtvkG/vWhVeX1bnNs8PESEVj0g8unC+Hw9BZCs8WYsehDDLYWKtbqw27EXCyfbIUSW1esXuAEO32lBP5JAhss/C0YQftno+1zRhWfcwdhDys7KQFsFv6G4KD9mP28CTMvjMDMHq5LJ0JMpLyqHoSwGuGBBUNb4pl2f1nxObgT9hAqLrcvIdbOmlbjx7zQagQ8FgxFy0ZIkE/1wbmHA7HGcyY6iQBAADN7VyydKG60/L7aGqn+Xqk+4tkIrUfg0zmDYQ41BSUwg73rUkwUk7ot/qVe7zbHrjIvG5030NJcBzomZjBTUTuC5uZo/0bLl+yXkeWMre3R0+p5fySgGKE/rMXhBzU+SjK2hn1PKzxvysyLJTA1gbGO8tL6EsLMzBTPvPtLqDj0B6w9/OAl+T2PemDtrIk1fswLzcxg2ggJFsQKMeXYT5hiWfMiJICpiXGj5vfV9vz198r1Ec9IaGwCYxX3M1UEpjB59ovHa+z1bXOawoFRpzQJ/oe3Y/36bTh4LRElyuubVDFSouKRxwPlWTEICopFdj16Ml76EKEB1xGRUoC89AzUfBSTkyQi7HogQuKyVX4FWp4dh2B/f4QmSGp/YlOahsjYTKVnNjlIEsNwPTAEcdmqUquBz0HIrtn4cMctJEVcgq9fNHJ4yJ95jIxVepyrBOlRN+EfeAfJhTVX1Kc81O2rSTHSIm8gMPg+ssvKkZWYhEI+AxGXfeHj44vrcVLw4JB+5yJ8fHxwMeRR7bgoSUfUTX8E3kmG9kPykD4MRcD1CKQU5CE9o/aDsiXpUbjpH4g7yYW1yrokJQpxORxK0+/hVly+xk/TZHkPEOp3Ff63EyHlAIBH/v1A+Pr4wMfHB7434lHAAyhMwM2LPvDxvYF4xYPNdfdVEOio6CRlyHsQCr+r/ridKK2bJ1k+Em4FIDA8FU+V1wEAJ0Fi2HUEhsRBW/gAAPhCPIpJRCHPQZIQgsDQhNp5BLTEZAlSouKQw5Ui/d4txOXX2bk2lfnjkROyC7M/3IFbSRG45OuH6BxeY9ra2lwdvBQPQwNwPSIFBXnpqBUiKvNUQ3k24oL94R+aAEntBqyinT1D3oAmbi/qy1VdW1HX//GFjxCTWAiekyAhJBChCSpiVlP5FqcgKj4PPMqRFROEoNjsujeWGmNeS3tRSYb8hFsICAxHat0EAQ3loI5+r6F4SxJWZ3uBTt0Wro66YxanRCFe3kEjJigIsXU7aDXKkR0XDH//UCTUDlz1fZLGvlRTP6CBxvqrb+yq6yPknqfs1O2LkhRExeWAK03HvVtxUNu11aMPVXetUdtX6FReGwiynPsICYlBZq3JZQKoDi111+oSpEbK50Fw0kSEBYUjpbJqy7MQG3QD99KVZq/J8vAg1A9X/W8jUemE1PUH6qnLV33uP9RQEzcNaXOvEjb4aKjiW9jq7ACnuZ9jw4aVmDfKEaM2BqFIebsXjkfOrSNYMtwO4jGe8DqwEM5jXTFzbC/0mLQPCeo6FgDlkbvg5nECqbJSxB6cgX7v/4okGQBIEfK9G1xWeiMqJR5nlw1GN+eN8KvsFPkc+G+ZBbdvryA5OxI/ThDD0eMMMmQShHt9jtF2nTBkQ2D1hFVpCL53c8FK7yikxJ/FssHd4LzRTzGgqIuXpiPP0BzNeB5lxVJIC4qQG+6Fz0fbodOQDQhUJMxn+GLTgmXYFxCJ2yeXYZB4CNZcyUFWPcpD9b55Gi/IJTGH4T52JrZdjEFc4HeYbt8R3Sb/gji+BTq0z8JvCydiwYFYyCBEC6vWiN81AxM+80Y6BwA8Mnw3YcGyfQiIvI2TywZBPGQNruSpO2I5Ine5weNEKmSlsTg4ox/e/zVJfgPDZ8B30wIs2xeAyNsnsWyQGEPWXEFOZggOLh4OO/EorN+7De8PGoD+febgaJ5y2gDAIfHYbPSb8gPu5WYiyNMZ4kEbEFwigHFLfcT9PA/jJ27BXbN28k+qjNqg2a2d2BEmQgsjUrOv8jEUuEQcm90PU364h9zMIHg6izFoQ3DVTWZJ1C+Y6TwfByLSkHBuNTz2Pah1syUN+R5uLivhHZWC+LPLMLibMzb65aipKw6pgT9ifh9rdHP9Ecc3jEbvvqMwsn9XiEdsxM0CxWZqY5JHdshBLB5uB/Go9di77X0MGtAffeYchcpi1JQ/Xor0PEOYN+PBlxVDKpXgcai6tLW0OVXKI7HLzQMnUmUojT2IGf3ex6/yBqw+T4C8z/Dfgllu3+JKcjYif5wAsaMHzmTIIFHRzrT2B2o0XXvRUGdq2koer6b/K0tF4I/z0ce6G1x/PI4No3uj76iR6N9VjBEbb6I6fNSUL5+DW0eWYLidGGM8vXBgoTPGus7E2F49MGlfQlVca4x5Le1FpZIo/DLTGfMPRCAt4RxWe+zDg5qNSEM5qNTQ7VVRk0ZO1i0cWTIcduIx8PQ6gIXOY+E6cyx69ZiEfZouWAD4HH9smeWGb68kIzvyR0wQO8LjTAZ4tf0ZNPelavsB5SPXprH+GhK7dfqIApTInrPs1OybJ8tGyMHFGG4nxqj1e7Ht/UEY0L8P5tS5QGjvQ/lsddea+vQVhKy/PDDAfgCcBvWATdeJ+CFM/Z2T6mt1DnLDjmHZSDE6D10P71PrMGO6G+ZO6Y+u/ZbBN+woPh43GXM+mop+XQdjneLixCUew+x+U/DDvVxkBnnCWTwIGxTrVPYHGgYM6vJVn/sP1RoQN68TOzs7srW1JRsbG7KysiJGE44yfx1HJjogoPpPx3g0/fyYU9742XBZtGe0Huk6bKToCuWVRGXXV9CElcFURkREMnq4fSDpmTrS4jOJVEZE0v/NoNb6g2j7Q5nyrgplFLS8O/X6IoSeEhFxmXR8848UU0EkufARibsuoYCnik2Lb9CyrnpkMf13yuQ4yjjhQnbOuymZIyKqoOjtQ6lFu9l0uoiIuAza7aRPptNOUjEREUnowkdi6rokQH4cIiq+sYy66lnQ9N8zSV1pcek/kZOBJc2/UFq5hDJ2O5G+6TQ6WSwvH68Zw2lliLwEiEumnUP1SNd+LYVXaCkPjftWZaG2wmu0pLs9rbgpPyt5+b1J+t1X0a0KIpLF0uY+BtRl+U1FnZTRzeVdyLD/1/S3jIjL8qIZw1dS9SF30lA9XbJfG04qD1kWRMu796IvQuSlxmUep80/xlAFcZTlNYOGrwxRHIej5J1DSU/XntaGVxCXvJOG6RlSj8WXKFsSQ1d871GeqkKW3aetfY3IYUMUVRBRxa1V1N2gF61VFEBF1CZ6x9CS5pyRyrfn0unQJyvIp1D7vvTkEI03MCfX/8nzLru/lfoaOdCGqAoiqqBbq7qTQS9FWRffoBVv29KcMxJFxoro/DxL0n1zBQWXEZHkAn0k7kpLqoORbizrSnoW0+n3TFUnRoq66UK6FiNone9jqqBiit0/mSyFeuSw/h5VaI1JjpJ3DiM9wx60+FI2SWKukO+9PNWxqi1/XDr95GRAlvMvkDySVaedp7HNVR2tlrKg5dS91xckDxGOMo9vph/lDVhjnriME+Ri50y75Q2YKqK309AW7Wi2vAHXbmekrT9QLFPW1O1FZbnmUIbatlKstv+jsiBa3kWXLEasI9/HFUTFsbR/siUJ9Rxo/T3t5Uuyh7R9oB6ZOi6mM4llRCSl/81oTfqDttNDmfaY19heVCqmGyveJts5Z6gqxfPzyFL3TVoRXEakpc+oS/v2Tw6NJwNzV1I0cRU0pyF7uJ0G6pmS4+IzJC+i/9GM1vo0aPtDUnfFIi6DTrjYkfPuZHlbrIim7UNbULvZp6lIU5+kti/V1g+ooaX+Ghy7KvqIZy87zfsSl0w7h+mRYY/FdClbQjFXfOmeyguEtj5Ufl7K15rE85r7iopbq6i7niVN2HWL8mRERVH7aaqNLuk7bqTICiKiJ3RovAGZu/5P0S41Xas5Sv/JifSN+tGqgAySEVHZ3a+ol25z6v/FJXpcQUQV4fRVL32y9fCjUpLR/a19ychhA8mb1i1a1d2Aeq0NpwoN90MqacyXlvsPNbTFjfY292qxsrIiGxsbYt98NAiPjORUlCpN/qGyVCQ91jBUbgiBDnR0dAComXzFc4CwstqEaNbMGEKTXnB27gg9AMbizrASFECar3JvACJYiq2R/N0EDJm9FadidOGy5lN0E+Xj3P7fkWrXE/aVD30b9YXLJDFyz5+Aj1QCHy9f6Ns7KiaUi/DWcn/kpR3GJGMAAhOYNKvx9WD+Oez/PRV2Pe2rniE36uuCSeJcnD/hA2n1lloIYGLSrPpxnhJ/nPZNw4PzO+Dp6QnPbcfx1Hk9Ns5ygKG28tC4r2oFf+3FscK+GO1gpFgiRPPmzer9lWGJ/2n4pj3A+R2e8PT0xLbjT+G8fiNmOag5osgSYutkfDdhCGZvPYUYXRes+bQbRCiB/2lfpD04jx2envD03IbjT52xfuMsOBgCAkND6AlM4eg0GK3MusHJ+W20UJVJoRjuRwJx3MMGqf4Hse1QCCR8GZ6Wyj9lEXWbB/eRJTi9zxtpPMA98EJom2kY0Uz7vsqEYnccCTwOD5tU+B/chkMhEvBlT1HKA0W+e3A4sQeGDTdTbG2AjjYWqHy9Qv65/fg91Q49q4MRfV0mQZx7Hid81EWPAIaGBhC2GoCJTpYQwQhd3TZgQS9CVEAAsnK1xaQAhoZ6EJg6wmlwK5h1c4Lz2y1U1nXD86cqbeAvjW1OKQkFkaUY1snfYcKQ2dh6Kga6LmvwaTeR1jxJfLzgq28PR8WEctFby+Gfl4bD8gZcu51BW39QtWEtTd5eVJarAQLVthV1/R8AgSEMDYRoNWAinCxFgFFXuG1YgF4UhYCALORqKV8Im6GZsRAmvZzh3FEPgDHEna0gKJAin7THvKb2olKRL/YcTkSPYcNRlWJHG1hUJqilz6irodurojkNYbNmMBaaoJezM+RFJEZnKwEKpPmqr3cAIPGBl68+7B3byuNI9BaW++ch7fAkGGvqk9T1pc94bdJWfw2PXWXPU3aa94XAEIZ6Apg6OmFwKzN0c3LG2yovEFr6UF7VtaY9bhyoR18htMA7Tr3RQggYd5+LHZ8Ngk5UIK7nqghwjddqAZoZG0FHryN6O7aFEICe2A7WIsCq90BYigCIbGDdTgcFEgkIQojdjyDwuAdsUv1xcNshhEh4lD0tBa/2fkg5Qwoa86Xl/kON54+bV5Oq6GPUEsGujwNaV3XucoI3HNC3i17thc/MEEYGAlBJMYpVtEm+sAgwNqnq8OQDlWo6QiF0QODVxroAHeYdxeW9LjAJ2IJpvbtgwOLTSCnPQsrjEvDl5TXe8y+CjbUlBOVSSCQ5yM4thTRfouYiUTlokuOyUvC4hEd5eY3nLkU2sLYUoFwqwRMV56aOTtXzogBfmIO8p/roOmkFVq1aVfW3cskEdBFpLg9t+9bFIf1hEopEetB9pscueRTm5OGpfldMWlF9vFWrVmLJhC6qXxog6IB5Ry9jr4sJArZMQ+8uA7D4dAo4vhA5eU+h33USVtTI+6qVSzBBkfn6ZVEA0dMI7FrgjoPpPTHXfQQsBDVqVGCBae5TYOK3Dweii3Hr94foPsMe8ujWsq8ygQhPI3ZhgftBpPecC/cRFpBvziE17m9IIYRIZQ/EISvlMUr4ctQOH2tYCsohlTxR8+iVCqJOeKuzMVBRhpLM+sRkfUrxWfOnlDanpc2paSSCDvNw9PJeuJgEYMu03ugyYDFOp5RryZMEOdm5KJXmQ6Kmymq2s2fL2z/QXoC65aqxreip7v/UPBYh6vQW5OFTgkyN5fsEPHSUnlvXgVCoAxAP0hrzmtqLalxqHP6WAkJ1CWosBxWl2dDtVdGWRs0YAwAdIeRFpP5Eubxs5JZKka8ycDX0SWr60vJnujZpq79njd0anqfstO2Lus2k3mr0oWWKoq2V1DP1FQK0su0IMx0Osgrlddqv1crXeegIIH8gpWoBBAJUvSVKIHqKiF0L4H4wHT3numOEhUCxtZr7ITX9QUPzpf1+rBHi5hWlshkx6jV7dzP2Lu6DliId+cXF3AGf7P0akyo/DHlueuhoawWdtAeIr/M4JIekyMdo0aVD1eCj4TikRj+GldsuXI2LwbnVbyNljwe2+LVE506m4GLCcKfqIWMe5WXlELTvCfv2FuhgaYgsn5O4mF+9Ps9nH47H122pwnad0cmUQ0zYnepnlvlylJUL0L6nPSyeMfIEpu1gYRQH7wNXIalayiHR5y9EavnyqeH76sDMvDnwOAwhj+qeo5wQIqGKiycROAhg2s4CRnHeOHC1+ojgEuHzV2TdiagAwKUi+rEV3HZdRVzMOax+OwV7PLbgSoUp2lkYIc77AGon5YO/VGdetaILWDpxNfKm/oRNrg5oXdm71ch+s9HucBPH4NB3G+FVMBTTbRXRVo99ayq6sBQTV+dh6k+b4OrQuqojJeigxRstICqNxp0IpR+rIR48hGjXuRNMuRiEVQcj+PIylAvao6e9heaOi6jGzX8FSkp5tO7aHVZWjRWTz5m/SsJ2mtucmgxxqdF4bOWGXVfjEHNuNd5O2QOPLX5oqTFP7WHRwRKGWT44Wd2Awef5YN/x+LoTm58pb/9Ae1FFoKmtlKnu/65UxyFRjZulihKU8q3RtbsVrDSWr7Y61xbzmtqLajot3kALUSmi70SgdooEntdWDipKs6Hbq9IYaSgRtukAS8Ms+Jy8iOpLTx589h1HfIGGPklNX+rX8ln6AW311wix+zxl9zz7qqKmD22n6sbjmfoKoCQnF0879ELvNnXXN/xarUkRLiydiNV5U/HTJlc41A4Srf1BTY2bLwCNETevqLq1zmgmsMC4HUF4GB8CP79gxCeGYtdEy0YsSD30m/cRBgquYNfWq8iquoaXI93PE59f7Q630caKZTw4Tgbia4ysieSdIa/q0wbIG5v3N9h3twQwsMG7q7/CVBsj6BuYYdwid/SQnMLOg/HyN1Xwmbjsn4qBiz7GYP3mGDNnGqwyj+Kj95bgZ+8/cHzHJ3DzFmGAnVCeF55AlcdtPg6L3HtAcmonDsbL33vBZ16Gf+pALPp4MNT9RInAwAD6eIKM9HzkhN5AZAnAczxIcYGG8SjMce2IpH0uGDZjI371PoUjnvPxRZAxbEVaykPjvrXzISdA6/+8h2GGofh6xsfYc/EW7lw7jEPXMqpv1oStYdlWD2khl3A3Kxv3/9qDwzfzIMtJxaPcQghHzYFrxyTscxmGGRt/hfepI/Cc/wWCjG1Vf6rBpcL7m32QV8+7WP3VVNgY6cNAxxij5riiY9I+uAybgY2/euPUEU/M/yIIxorME2So0NJb8QUPkZhVhJT4RygqTUXAuWBkcCUoyIhAaLRitCuyx7yFg5F34hRo/Di0rO++HAcOpIg9HgUPE5FVlIL4R0UoTQ3AueAMcCUFyIi4jawRMzHujUQcWLoa51PKgbJk3I3OBidJQ3JmAXTHLYJ7DwlO7TwIefjwyLzsj9SBi/DxYHXRI8fnJCNJcSp8+lmcjewO949HwKBeMUmArEJrp99cW/4EBjDQB55kpCM/JxQ3IktUpN1cS5urccAauFRvfLPvLkpgAJt3V+OrqTYw0jeAmZY8NR8zB9OsMnH0o/ew5Gdv/HF8Bz5x84ZogB2EUGpnz5S3f6C9ACrKVVNb0VHT/1V+YskjJzlJ8QIRHulnzyKyuzs+HmGgvc55DpyMwBNfNWCQdz88eF6AVuM1xbwEmWrbSygqm2ZNglbjMXPcG0g8sBSrz6egHGVIvhuNbE6CtORMFJRoKgdVpal9e47jFP2p8r6VNKfBcxxkxNcYfBJI0WeoTbL5GMyZZoXMox/hvSU/w/uP49jxiRu8RQNgW6ShT4qMV92XmtWnH1Cmrf4KoNPQ2K3TR+g8R9lpLnfF5pBpu0AoqO1DFetrX2vq2VdQCQqkipv60igcOPYQ//lqMfrrAQAHeWjV5zoPcDxfNWhXJC4vj6qRuvz/eZ4D+AI8TMxCUUo8HhWVIjXgHIIzOJQUZCAiNFJLf6BEY7603H+oYawlbrS3uVcUm3D+MuIo9+ZPtHBkT+raayA5jR5FTkMH08iZW+lSSvVMKGnkKVrt1JqEumKavuMCxcRfp4OLBpCZwIjs5++nG2mqJ5TdXD2AOvUaSW6fr6eNKxfSQs+rigmkFZR0dg1NcLCnYdMX0H/nziT37wIoqyqZYoo97kEjxK3IpLklObruoOvZHBEVUey5dTSmnZBENpNoy1/x8s0rkujsmgnkYD+Mpi/4L82d6U7fBWSpn9BHRCRLoEMfiMm8pZgm7QihzNhztG5MOxKKbGjSlr8ovpSIimPpmMcIsjPXJz3TDjRw4WGKLq5neajZVz0ZpV9aR+O7tqJmpjY0fKk3+axzJMPKCbRE9OTGZhrVwZRMLe1p6jd+dGGFA3UeOpvWH7tNuRxRcewx8hhhR+b6emTaYSAtPBytmJSvQtlNWj2gE/Ua6Uafr99IKxcuJM+rlZMgiyn2mAeNsDMnfT1T6jBwIR2OLiYu7y55rRpJFkIhWTqvIa+wXPVlzKXR6UV9qK2JOXUaMp/2+P1GbtZmZDvuGwpWzDEnIiLJHzRv3Ea6V3PinaZ9M+Po/FpnaisUkvWkLXQm+glxaadpUZ+2ZGLeiYbM30N+v7mRtZktjfsmmKTEkeTWbnLrZ03mZjbkOP5TWj+vH3Xs70pfHgqmDI6oIuksrZngQPbDptOC/86lme7fUUB1MKpQQeFf9SQ9i340bf4ntPSzT+jDyS705bnk6smsamOSo7y7XrRqpAUJhZbkvMaLwnI1HUtb/mSUcOgDEpu3JPGk7XTxhrq0tbW5uspurqYBnXrRSLfPaf3GlbRwoSddVcwA15wnouLY4+QxQkytTJqTpaMr7bieTRwRFalqZ8+Qt6ZtL5rqTHVb0dj/VYTTVz31yKLfNJr/yVL67JMPabLLl3QuuXqyqPrylVLkqdXk1FpIuuLptONCDMVfP0iLBpiRwMie5u+/QWmc5phPS9XUXlTjJLdot1s/sjY3IxvH8fTp+nnUr2N/cv3yEAVncBrKQR312z+NO09rnduSUGhNk7acoegnyvtWUpOGNJJOrXai1kJdEk/fQRdi4un6wUU0wExARvbzaf+NNOWEqhXH0nGPESRuZULNLR3Jdcd1yua09EnZGvpStf2AJprrL6NBsUtKfcQOCimk5yw7NftyeXTXaxWNtBCS0NKZ1niFkfquTXMfqv5ao6WvKP6bzm7+kIa+M4Qmun1CixZ8TJvOPVRM+H9KcefXknNbIQmtJ9GWM9GKfVRfq4tiz9K6MZYkFNnSlG3nKCo5gv7YNIE6CEVkO9mT/rz3iMK819K7lkISdZxMnj4P6NHpRdSnrQmZdxpC8/f40W9u1mRmO46+Cc5W3x+ooyZf9br/UENd3NS/zb06Kiec69jZ2RHPy0dmHMchJSVFeXzCMEwVDrGb+8Hx5CgEhG/FOyo/0mL+GTJErHVE/zPjEXRnE+xZ3bwEXqH2IovAWsf+ODM+CHc22av+tJphXmusD2VerA4dOkAoFDbi00IMwzAvidftG2qmKbHoYRjWCpgXiQ0+GKZBZMjNLYCsSIon9Xt8lmkyMuTnPwFXkAdJA36wmHmRXqH2IstH/hMOBXmSBvySO8O8TlgfyjQNYYsWLdYTESr/li5dqrwNwzAAAA5pN4/D93Fr9OpmAkmqDtr3soEZG8K/BMqQcPkILmW3R++3miE/hdDubVuYq3o7C9NEXqH2UpaAy0cuIbt9b7zVLB8p1A5v25o/x1sFGeZVw/pQ5sXbuXMnBAIB2JwPhmEYhmEYhmFeKDbng2EYhmEYhmGYJsUGHwzDMAzDMAzDNAk2+HjVlKYh6n5WI76JohjJ4feQWlpjUaMfg2EYhmEYhmHY4OPVwUsRfuwzONnZYdjmG432NhY+6RfM6j8AC45kgn9Bx2AYhmEYhmEYsMHHK0RgBnvXpZgoJpDyuucgsFmI34KDsH92Wwhe0DEYhmEYhmEYBmzw8YoRmMLEWEd56XMyhrV9T1gZKP75Qo7BMAzDMAzDMGzw8XKS5eFBqB+u+t9GopSrsUIAHTXjguK0SNwIDMb97DKUZyUiqZBHRsRl+Pr4wPd6HKQ8wKXfwUUfH/hcDMGjkup9S9MiEZtZOcND3TFKkB51E/6Bd5BcWHM2SAlSouKQw5Ui/d4txOXXzC/DMAzDMAzDVGODj5cMl3gMs/tNwQ/3cpEZ5Aln8SBsCK4xUlBWEoPD7mMxc9tFxMQF4rvp9ujYbTJ+iePRokN7ZP22EBMXHECsDBC2sELr+F2YMeEzeKdz4CXh8Pp8NOw6DcGGwJozzmvjM3yxacEy7AuIxO2TyzBIPARrruQgM+QgFg+3g3jUeuzd9j4GDeiPPnOOIk85AYZhGIZhGIZhg4+XDYe/T/6E/2EE/jt3KmZ8vgpT20TgT98HkClvCgAogt+a6dhlugbHdq3ARwu/wO4tY2FaLP9mQr+FGH26t6uuZIPWeKtPd7RW/GKpwNweLp9NwpuaZnjw2fBe8Q1K5v+ADZ/+Fyt+/A3LutzG9s9/QqajG5ZN7AJ6Eou8dw7h7u1L+L9NE2CunAbDMAzDMAzDsMHHy0YIsfsRBB73gE2qPw5uO4QQCY+yp6WqX3tb8Bf2HitE39EOMFIsEjZvjmYNqFWBiQmaqXzMSqHEH6d90/Dg/A54enrCc9txPHVej42zHGAIAQwN9SAwdYTT4FYw6+YE57dbsKBiGIZhGIZhVGL3iS8ZgegpInYtgPvBdPSc644RFgK130tw6Q+RVCSCnq6m0YMWOjpq5njI8YU5yHuqj66TVmDVqlVVfyuXTEAXEQBo2JlhGIZhGIZhamCDj5dKES4snYjVeVPx0yZXOLQWKZarHn7omJmjOR4jLOQR1E3zFoqEAPFKKRBI3Q5KBKbtYGEUB+8DVyGpWsoh0ecvRKp+FoxhGIZhGIZhVGKDj5cJX4CHiVkoSonHo6JSpAacQ3AGh5KCDESERgPgwHEA8Tx4AILW/8F7wwwR+vUMfLznIm7duYbDh64ho2pgIURry7bQSwvBpbtZyL7/F/Ycvok8WQ5SH+WisBQAz4EnAl/1XFftY8B4FOa4dkTSPhcMm7ERv3qfwhHP+fgiyBi2IsgHRrKKWnNS+LzL2ODyATb7VQ9XGIZhGIZhGIYNPl4mAgtMWfQRuj/6Fk69nLHxQV9MH9UOT64cQgC1QvxfO/F/dytQGHwC35+NAYQdseCgN74cXILTn0+Dy4rzMHUaAgvFhHIAMJu4DJ8PeIzvnR3wn3Wx6Dl5EKxt2qM49Aris2Nw/tuTCKt4irCT3+PCg4K6x0AzjPD8E4c+cUCJz1Z8suAz7E8ahvWrhqA8/Hfs/F8UKqR+2Lf5d9zJk49gSPo3QgP8EfpAWp0RhmEYhmEY5l9Px87OjnieB8/z4DgOKSkpytswrxAudjP6OZ7EqIBwbH2n8rEthmEYhmEYhvnndOjQAUKhkH3zwTAMwzAMwzBM02CDj9eMLDcXBbIiSJ+w2eAMwzAMwzDMy4UNPl4jXNpNeIWaYspn0/FG2FH4J9XzlVYMwzAMwzAM0wTYnA+GYRiGYRiGYV4oNueDYRiGYRiGYZgmxQYfDMMwDMMwDMM0if8HuLAPabR+BzEAAAAASUVORK5CYII=;" vertex="1" parent="1">
          <mxGeometry x="171" y="20" width="485.85" height="354.51" as="geometry" />
        </mxCell>
        <mxCell id="mQrTGYeU7w2Lj0z3KcBH-3" value="Pelicula" style="whiteSpace=wrap;html=1;align=center;fillColor=#f0a30a;strokeColor=#BD7000;fontColor=#000000;" vertex="1" parent="1">
          <mxGeometry x="330" y="400" width="100" height="40" as="geometry" />
        </mxCell>
      </root>
    </mxGraphModel>
  </diagram>
</mxfile>
